G04*
G04 #@! TF.GenerationSoftware,Altium Limited,Altium Designer,26.4.1 (12)*
G04*
G04 Layer_Color=12632256*
%FSLAX44Y44*%
%MOMM*%
G71*
G04*
G04 #@! TF.SameCoordinates,233FA51F-AB2E-4C41-B64E-6CE563956A17*
G04*
G04*
G04 #@! TF.FilePolarity,Positive*
G04*
G01*
G75*
%ADD20C,1.5000*%
%ADD21C,1.3700*%
%ADD22R,1.3700X1.3700*%
%ADD23R,1.3700X1.3700*%
%ADD24C,3.0000*%
D20*
X398130Y177500D02*
D03*
X353130D02*
D03*
Y242500D02*
D03*
X398130D02*
D03*
X192500Y160066D02*
D03*
X398130Y82500D02*
D03*
X192500Y95066D02*
D03*
X398130Y17500D02*
D03*
X162500Y237500D02*
D03*
X97500D02*
D03*
X62500Y157500D02*
D03*
X97500Y17500D02*
D03*
X162500D02*
D03*
X62500Y92500D02*
D03*
X162500Y62500D02*
D03*
X97500D02*
D03*
X237500Y95066D02*
D03*
Y160066D02*
D03*
X17500Y157500D02*
D03*
Y92500D02*
D03*
X97500Y192500D02*
D03*
X162500D02*
D03*
X353130Y17500D02*
D03*
Y82500D02*
D03*
D21*
X374600Y125000D02*
D03*
X110000Y155400D02*
D03*
Y130000D02*
D03*
X145000Y155400D02*
D03*
Y130000D02*
D03*
X349200Y125000D02*
D03*
D22*
X400000D02*
D03*
D23*
X145000Y104600D02*
D03*
X110000D02*
D03*
D24*
X30000Y27566D02*
D03*
X230000D02*
D03*
Y227566D02*
D03*
X30000D02*
D03*
M02*
