G04*
G04 #@! TF.GenerationSoftware,Altium Limited,Altium Designer,26.4.1 (12)*
G04*
G04 Layer_Physical_Order=1*
G04 Layer_Color=255*
%FSLAX44Y44*%
%MOMM*%
G71*
G04*
G04 #@! TF.SameCoordinates,CDA0829A-E898-4A71-A1D0-A83EF1A7FEC9*
G04*
G04*
G04 #@! TF.FilePolarity,Positive*
G04*
G01*
G75*
%ADD17C,0.2540*%
%ADD18C,3.0000*%
%ADD19C,1.3700*%
%ADD20R,1.3700X1.3700*%
%ADD21C,1.5000*%
D17*
X140000Y85000D02*
X162500Y62500D01*
X130000Y85000D02*
X140000D01*
X130000Y107500D02*
X131310Y108810D01*
X226190D01*
X237500Y97500D01*
X100000Y130000D02*
X130000D01*
X67500Y97500D02*
X100000Y130000D01*
X99330Y183170D02*
X130000Y152500D01*
X99330Y183170D02*
Y195670D01*
X97500Y197500D02*
X99330Y195670D01*
D18*
X30000Y30000D02*
D03*
X230000D02*
D03*
Y230000D02*
D03*
X30000D02*
D03*
D19*
X130000Y175000D02*
D03*
Y107500D02*
D03*
Y152500D02*
D03*
Y130000D02*
D03*
D20*
Y85000D02*
D03*
D21*
X97500Y17500D02*
D03*
Y62500D02*
D03*
X162500D02*
D03*
Y17500D02*
D03*
Y242500D02*
D03*
Y197500D02*
D03*
X97500D02*
D03*
Y242500D02*
D03*
X22500Y162500D02*
D03*
X67500D02*
D03*
Y97500D02*
D03*
X22500D02*
D03*
X192500Y162500D02*
D03*
X237500D02*
D03*
Y97500D02*
D03*
X192500D02*
D03*
M02*
