G04*
G04 #@! TF.GenerationSoftware,Altium Limited,Altium Designer,26.4.1 (12)*
G04*
G04 Layer_Color=16711935*
%FSLAX44Y44*%
%MOMM*%
G71*
G04*
G04 #@! TF.SameCoordinates,5D2831D5-87C7-412F-ABC5-FC3DD1F28746*
G04*
G04*
G04 #@! TF.FilePolarity,Positive*
G04*
G01*
G75*
%ADD10C,0.2540*%
%ADD16C,0.0254*%
%ADD17C,0.0762*%
D10*
X93270Y177700D02*
G03*
X93270Y177700I-1270J0D01*
G01*
Y28700D02*
G03*
X93270Y28700I-1270J0D01*
G01*
D16*
X132000Y197500D02*
G03*
X132000Y197500I-17500J0D01*
G01*
Y48500D02*
G03*
X132000Y48500I-17500J0D01*
G01*
X92770Y124000D02*
G03*
X92770Y124000I-2540J0D01*
G01*
X87000Y167500D02*
X97000D01*
X87000Y160000D02*
Y167500D01*
Y160000D02*
X97000D01*
Y167500D01*
X132000D02*
X142000D01*
X132000Y160000D02*
Y167500D01*
Y160000D02*
X142000D01*
Y167500D01*
X132000Y227500D02*
X142000D01*
Y235000D01*
X132000D02*
X142000D01*
X132000Y227500D02*
Y235000D01*
X87000Y227500D02*
X97000D01*
Y235000D01*
X87000D02*
X97000D01*
X87000Y227500D02*
Y235000D01*
X144500Y167500D02*
Y227500D01*
X84500D02*
X144500D01*
X84500Y167500D02*
Y227500D01*
Y167500D02*
X144500D01*
X84500Y18500D02*
X144500D01*
X84500D02*
Y78500D01*
X144500D01*
Y18500D02*
Y78500D01*
X87000Y78500D02*
Y86000D01*
X97000D01*
Y78500D02*
Y86000D01*
X87000Y78500D02*
X97000D01*
X132000D02*
Y86000D01*
X142000D01*
Y78500D02*
Y86000D01*
X132000Y78500D02*
X142000D01*
Y11000D02*
Y18500D01*
X132000Y11000D02*
X142000D01*
X132000D02*
Y18500D01*
X142000D01*
X97000Y11000D02*
Y18500D01*
X87000Y11000D02*
X97000D01*
X87000D02*
Y18500D01*
X97000D01*
X74990Y112570D02*
Y136700D01*
X156270D01*
Y112570D02*
Y136700D01*
X74990Y112570D02*
X156270D01*
D17*
X110270Y171039D02*
X108154Y168923D01*
Y164691D01*
X110270Y162575D01*
X112386D01*
X114502Y164691D01*
Y168923D01*
X116618Y171039D01*
X118734D01*
X120850Y168923D01*
Y164691D01*
X118734Y162575D01*
X108154Y175271D02*
X120850D01*
X116618Y179503D01*
X120850Y183735D01*
X108154D01*
X120850Y196431D02*
Y187967D01*
X112386Y196431D01*
X110270D01*
X108154Y194315D01*
Y190083D01*
X110270Y187967D01*
Y22039D02*
X108154Y19923D01*
Y15691D01*
X110270Y13575D01*
X112386D01*
X114502Y15691D01*
Y19923D01*
X116618Y22039D01*
X118734D01*
X120850Y19923D01*
Y15691D01*
X118734Y13575D01*
X108154Y26271D02*
X120850D01*
X116618Y30503D01*
X120850Y34735D01*
X108154D01*
X120850Y38967D02*
Y43199D01*
Y41083D01*
X108154D01*
X110270Y38967D01*
X89169Y130346D02*
X84937D01*
X87053D01*
Y119766D01*
X84937Y117650D01*
X82821D01*
X80705Y119766D01*
X93401Y117650D02*
X97633D01*
X95517D01*
Y130346D01*
X93401Y128230D01*
M02*
