G04*
G04 #@! TF.GenerationSoftware,Altium Limited,Altium Designer,26.4.1 (12)*
G04*
G04 Layer_Color=32768*
%FSLAX44Y44*%
%MOMM*%
G71*
G04*
G04 #@! TF.SameCoordinates,5D2831D5-87C7-412F-ABC5-FC3DD1F28746*
G04*
G04*
G04 #@! TF.FilePolarity,Positive*
G04*
G01*
G75*
%ADD12C,0.1524*%
G36*
X147080Y15960D02*
Y5920D01*
X81920D01*
Y15960D01*
X81960D01*
Y81040D01*
X81920D01*
Y91080D01*
X147080D01*
Y81040D01*
X147040D01*
Y15960D01*
X147080D01*
D02*
G37*
G36*
X158810Y139240D02*
X153730D01*
Y149908D01*
X77530D01*
Y139240D01*
X72450D01*
Y110030D01*
X77530D01*
Y98092D01*
X153730D01*
Y110030D01*
X158810D01*
Y139240D01*
D02*
G37*
G36*
X147080Y164960D02*
Y154920D01*
X81920D01*
Y164960D01*
X81960D01*
Y230040D01*
X81920D01*
Y240080D01*
X147080D01*
Y230040D01*
X147040D01*
Y164960D01*
X147080D01*
D02*
G37*
D12*
X81920Y154920D02*
X147080D01*
X81920D02*
Y164960D01*
Y230040D02*
Y240080D01*
X147080D01*
Y230040D02*
Y240080D01*
Y154920D02*
Y164960D01*
X81920D02*
X81960D01*
Y230040D01*
X81920D02*
X81960D01*
X147040D02*
X147080D01*
X147040Y164960D02*
Y230040D01*
Y164960D02*
X147080D01*
X147040Y15960D02*
X147080D01*
X147040D02*
Y81040D01*
X147080D01*
X81920D02*
X81960D01*
Y15960D02*
Y81040D01*
X81920Y15960D02*
X81960D01*
X147080Y5920D02*
Y15960D01*
Y81040D02*
Y91080D01*
X81920D02*
X147080D01*
X81920Y81040D02*
Y91080D01*
Y5920D02*
Y15960D01*
Y5920D02*
X147080D01*
X158810Y110030D02*
Y139240D01*
X153730Y110030D02*
X158810D01*
X153730Y98092D02*
Y110030D01*
X77530Y98092D02*
X153730D01*
X77530D02*
Y110030D01*
X72450D02*
X77530D01*
X72450D02*
Y139240D01*
X77530D01*
Y149908D01*
X153730D01*
Y139240D02*
Y149908D01*
Y139240D02*
X158810D01*
M02*
