M48
;Layer_Color=9474304
;FILE_FORMAT=4:4
METRIC,LZ
;TYPE=PLATED
T01F00S00C1.0000
T02F00S00C1.0200
;TYPE=NON_PLATED
T03F00S00C3.0000
%
T01
X000975Y000175
Y000625
X000675Y000975
X000225
X001925
X002375
X001625Y000625
Y000175
X001925Y001625
X002375
X001625Y001975
Y002425
X000975
Y001975
X000675Y001625
X000225
T02
X0013Y00085
Y001075
Y0013
Y001525
Y00175
T03
X0003Y0003
X0023
Y0023
X0003
M30
