solid OpenSCAD_Model
  facet normal 0 -1 0
    outer loop
      vertex 4 0 0
      vertex 126 0 50.5
      vertex 4 0 50.5
    endloop
  endfacet
  facet normal 0 -1 -0
    outer loop
      vertex 126 0 50.5
      vertex 4 0 0
      vertex 126 0 0
    endloop
  endfacet
  facet normal 0.995168 0.0981906 0
    outer loop
      vertex 130 75 50.5
      vertex 129.923 75.7804 0
      vertex 129.923 75.7804 50.5
    endloop
  endfacet
  facet normal 0.995168 0.0981906 0
    outer loop
      vertex 129.923 75.7804 0
      vertex 130 75 50.5
      vertex 130 75 0
    endloop
  endfacet
  facet normal -0.290259 0.956948 0
    outer loop
      vertex 3.21964 78.9231 0
      vertex 2.46927 78.6955 50.5
      vertex 3.21964 78.9231 50.5
    endloop
  endfacet
  facet normal -0.290259 0.956948 0
    outer loop
      vertex 2.46927 78.6955 50.5
      vertex 3.21964 78.9231 0
      vertex 2.46927 78.6955 0
    endloop
  endfacet
  facet normal -0.634428 0.772982 0
    outer loop
      vertex 1.77772 78.3259 0
      vertex 1.17157 77.8284 50.5
      vertex 1.77772 78.3259 50.5
    endloop
  endfacet
  facet normal -0.634428 0.772982 0
    outer loop
      vertex 1.17157 77.8284 50.5
      vertex 1.77772 78.3259 0
      vertex 1.17157 77.8284 0
    endloop
  endfacet
  facet normal 0.995167 -0.0981955 0
    outer loop
      vertex 129.923 3.21964 50.5
      vertex 130 4 0
      vertex 130 4 50.5
    endloop
  endfacet
  facet normal 0.995167 -0.0981955 0
    outer loop
      vertex 130 4 0
      vertex 129.923 3.21964 50.5
      vertex 129.923 3.21964 0
    endloop
  endfacet
  facet normal -0.995185 0.0980118 0
    outer loop
      vertex 0 75 0
      vertex 0.0768585 75.7804 50.5
      vertex 0.0768585 75.7804 0
    endloop
  endfacet
  facet normal -0.995185 0.0980118 0
    outer loop
      vertex 0.0768585 75.7804 50.5
      vertex 0 75 0
      vertex 0 75 50.5
    endloop
  endfacet
  facet normal 0.471686 -0.881766 0
    outer loop
      vertex 127.531 0.304482 0
      vertex 128.222 0.674121 50.5
      vertex 127.531 0.304482 50.5
    endloop
  endfacet
  facet normal 0.471686 -0.881766 0
    outer loop
      vertex 128.222 0.674121 50.5
      vertex 127.531 0.304482 0
      vertex 128.222 0.674121 0
    endloop
  endfacet
  facet normal -0.290286 -0.95694 0
    outer loop
      vertex 2.46927 0.304482 0
      vertex 3.21964 0.0768585 50.5
      vertex 2.46927 0.304482 50.5
    endloop
  endfacet
  facet normal -0.290286 -0.95694 -0
    outer loop
      vertex 3.21964 0.0768585 50.5
      vertex 2.46927 0.304482 0
      vertex 3.21964 0.0768585 0
    endloop
  endfacet
  facet normal 0.634522 0.772905 -0
    outer loop
      vertex 128.828 77.8284 0
      vertex 128.222 78.3259 50.5
      vertex 128.828 77.8284 50.5
    endloop
  endfacet
  facet normal 0.634522 0.772905 0
    outer loop
      vertex 128.222 78.3259 50.5
      vertex 128.828 77.8284 0
      vertex 128.222 78.3259 0
    endloop
  endfacet
  facet normal 0.957161 -0.289558 0
    outer loop
      vertex 129.696 2.46927 50.5
      vertex 129.923 3.21964 0
      vertex 129.923 3.21964 50.5
    endloop
  endfacet
  facet normal 0.957161 -0.289558 0
    outer loop
      vertex 129.923 3.21964 0
      vertex 129.696 2.46927 50.5
      vertex 129.696 2.46927 0
    endloop
  endfacet
  facet normal 0 1 -0
    outer loop
      vertex 126 79 0
      vertex 4 79 50.5
      vertex 126 79 50.5
    endloop
  endfacet
  facet normal 0 1 0
    outer loop
      vertex 4 79 50.5
      vertex 126 79 0
      vertex 4 79 0
    endloop
  endfacet
  facet normal -0.471356 0.881943 0
    outer loop
      vertex 2.46927 78.6955 0
      vertex 1.77772 78.3259 50.5
      vertex 2.46927 78.6955 50.5
    endloop
  endfacet
  facet normal -0.471356 0.881943 0
    outer loop
      vertex 1.77772 78.3259 50.5
      vertex 2.46927 78.6955 0
      vertex 1.77772 78.3259 0
    endloop
  endfacet
  facet normal 0.471648 0.881787 -0
    outer loop
      vertex 128.222 78.3259 0
      vertex 127.531 78.6955 50.5
      vertex 128.222 78.3259 50.5
    endloop
  endfacet
  facet normal 0.471648 0.881787 0
    outer loop
      vertex 127.531 78.6955 50.5
      vertex 128.222 78.3259 0
      vertex 127.531 78.6955 0
    endloop
  endfacet
  facet normal 0.881745 0.471726 0
    outer loop
      vertex 129.696 76.5307 50.5
      vertex 129.326 77.2223 0
      vertex 129.326 77.2223 50.5
    endloop
  endfacet
  facet normal 0.881745 0.471726 0
    outer loop
      vertex 129.326 77.2223 0
      vertex 129.696 76.5307 50.5
      vertex 129.696 76.5307 0
    endloop
  endfacet
  facet normal 0.772644 0.63484 0
    outer loop
      vertex 129.326 77.2223 50.5
      vertex 128.828 77.8284 0
      vertex 128.828 77.8284 50.5
    endloop
  endfacet
  facet normal 0.772644 0.63484 0
    outer loop
      vertex 128.828 77.8284 0
      vertex 129.326 77.2223 50.5
      vertex 129.326 77.2223 0
    endloop
  endfacet
  facet normal -1 0 0
    outer loop
      vertex 0 68.5 8.5
      vertex 0 75 0
      vertex 0 68.5 2.5
    endloop
  endfacet
  facet normal -1 0 0
    outer loop
      vertex 0 75 0
      vertex 0 10.5 2.5
      vertex 0 68.5 2.5
    endloop
  endfacet
  facet normal -1 -0 0
    outer loop
      vertex 0 10.5 2.5
      vertex 0 4 0
      vertex 0 10.5 8.5
    endloop
  endfacet
  facet normal -1 0 0
    outer loop
      vertex 0 4 0
      vertex 0 10.5 2.5
      vertex 0 75 0
    endloop
  endfacet
  facet normal -1 0 0
    outer loop
      vertex 0 75 0
      vertex 0 68.5 8.5
      vertex 0 75 50.5
    endloop
  endfacet
  facet normal -1 0 0
    outer loop
      vertex 0 10.5 8.5
      vertex 0 75 50.5
      vertex 0 68.5 8.5
    endloop
  endfacet
  facet normal -1 0 0
    outer loop
      vertex 0 10.5 8.5
      vertex 0 4 50.5
      vertex 0 75 50.5
    endloop
  endfacet
  facet normal -1 0 0
    outer loop
      vertex 0 4 50.5
      vertex 0 10.5 8.5
      vertex 0 4 0
    endloop
  endfacet
  facet normal -0.0980168 -0.995185 0
    outer loop
      vertex 3.21964 0.0768585 0
      vertex 4 0 50.5
      vertex 3.21964 0.0768585 50.5
    endloop
  endfacet
  facet normal -0.0980168 -0.995185 -0
    outer loop
      vertex 4 0 50.5
      vertex 3.21964 0.0768585 0
      vertex 4 0 0
    endloop
  endfacet
  facet normal -0.0980692 0.99518 0
    outer loop
      vertex 4 79 0
      vertex 3.21964 78.9231 50.5
      vertex 4 79 50.5
    endloop
  endfacet
  facet normal -0.0980692 0.99518 0
    outer loop
      vertex 3.21964 78.9231 50.5
      vertex 4 79 0
      vertex 3.21964 78.9231 0
    endloop
  endfacet
  facet normal 1 -0 0
    outer loop
      vertex 130 4 50.5
      vertex 130 75 0
      vertex 130 75 50.5
    endloop
  endfacet
  facet normal 1 0 0
    outer loop
      vertex 130 75 0
      vertex 130 4 50.5
      vertex 130 4 0
    endloop
  endfacet
  facet normal 0.290036 0.957016 -0
    outer loop
      vertex 127.531 78.6955 0
      vertex 126.78 78.9231 50.5
      vertex 127.531 78.6955 50.5
    endloop
  endfacet
  facet normal 0.290036 0.957016 0
    outer loop
      vertex 126.78 78.9231 50.5
      vertex 127.531 78.6955 0
      vertex 126.78 78.9231 0
    endloop
  endfacet
  facet normal 0.634483 -0.772937 0
    outer loop
      vertex 128.222 0.674121 0
      vertex 128.828 1.17157 50.5
      vertex 128.222 0.674121 50.5
    endloop
  endfacet
  facet normal 0.634483 -0.772937 0
    outer loop
      vertex 128.828 1.17157 50.5
      vertex 128.222 0.674121 0
      vertex 128.828 1.17157 0
    endloop
  endfacet
  facet normal -0.881937 0.471368 0
    outer loop
      vertex 0.304482 76.5307 0
      vertex 0.674121 77.2223 50.5
      vertex 0.674121 77.2223 0
    endloop
  endfacet
  facet normal -0.881937 0.471368 0
    outer loop
      vertex 0.674121 77.2223 50.5
      vertex 0.304482 76.5307 0
      vertex 0.304482 76.5307 50.5
    endloop
  endfacet
  facet normal -0.634389 -0.773014 0
    outer loop
      vertex 1.17157 1.17157 0
      vertex 1.77772 0.674121 50.5
      vertex 1.17157 1.17157 50.5
    endloop
  endfacet
  facet normal -0.634389 -0.773014 -0
    outer loop
      vertex 1.77772 0.674121 50.5
      vertex 1.17157 1.17157 0
      vertex 1.77772 0.674121 0
    endloop
  endfacet
  facet normal -0.95694 -0.290286 0
    outer loop
      vertex 0.304482 2.46927 0
      vertex 0.0768585 3.21964 50.5
      vertex 0.0768585 3.21964 0
    endloop
  endfacet
  facet normal -0.95694 -0.290286 0
    outer loop
      vertex 0.0768585 3.21964 50.5
      vertex 0.304482 2.46927 0
      vertex 0.304482 2.46927 50.5
    endloop
  endfacet
  facet normal -0.773014 -0.634389 0
    outer loop
      vertex 1.17157 1.17157 0
      vertex 0.674121 1.77772 50.5
      vertex 0.674121 1.77772 0
    endloop
  endfacet
  facet normal -0.773014 -0.634389 0
    outer loop
      vertex 0.674121 1.77772 50.5
      vertex 1.17157 1.17157 0
      vertex 1.17157 1.17157 50.5
    endloop
  endfacet
  facet normal 0.0981141 0.995175 -0
    outer loop
      vertex 126.78 78.9231 0
      vertex 126 79 50.5
      vertex 126.78 78.9231 50.5
    endloop
  endfacet
  facet normal 0.0981141 0.995175 0
    outer loop
      vertex 126 79 50.5
      vertex 126.78 78.9231 0
      vertex 126 79 0
    endloop
  endfacet
  facet normal -0.471395 -0.881922 0
    outer loop
      vertex 1.77772 0.674121 0
      vertex 2.46927 0.304482 50.5
      vertex 1.77772 0.674121 50.5
    endloop
  endfacet
  facet normal -0.471395 -0.881922 -0
    outer loop
      vertex 2.46927 0.304482 50.5
      vertex 1.77772 0.674121 0
      vertex 2.46927 0.304482 0
    endloop
  endfacet
  facet normal 0.0980616 -0.99518 0
    outer loop
      vertex 126 0 0
      vertex 126.78 0.0768585 50.5
      vertex 126 0 50.5
    endloop
  endfacet
  facet normal 0.0980616 -0.99518 0
    outer loop
      vertex 126.78 0.0768585 50.5
      vertex 126 0 0
      vertex 126.78 0.0768585 0
    endloop
  endfacet
  facet normal 0 0 -1
    outer loop
      vertex 126 0 0
      vertex 130 4 0
      vertex 129.923 3.21964 0
    endloop
  endfacet
  facet normal -0 0 -1
    outer loop
      vertex 130 4 0
      vertex 126 0 0
      vertex 130 75 0
    endloop
  endfacet
  facet normal 0 0 -1
    outer loop
      vertex 126 0 0
      vertex 129.923 3.21964 0
      vertex 129.696 2.46927 0
    endloop
  endfacet
  facet normal 0 0 -1
    outer loop
      vertex 126 79 0
      vertex 130 75 0
      vertex 126 0 0
    endloop
  endfacet
  facet normal 0 0 -1
    outer loop
      vertex 126 0 0
      vertex 129.696 2.46927 0
      vertex 129.326 1.77772 0
    endloop
  endfacet
  facet normal 0 0 -1
    outer loop
      vertex 130 75 0
      vertex 126 79 0
      vertex 129.923 75.7804 0
    endloop
  endfacet
  facet normal 0 0 -1
    outer loop
      vertex 126 0 0
      vertex 129.326 1.77772 0
      vertex 128.828 1.17157 0
    endloop
  endfacet
  facet normal 0 0 -1
    outer loop
      vertex 129.923 75.7804 0
      vertex 126 79 0
      vertex 129.696 76.5307 0
    endloop
  endfacet
  facet normal 0 0 -1
    outer loop
      vertex 126 0 0
      vertex 128.828 1.17157 0
      vertex 128.222 0.674121 0
    endloop
  endfacet
  facet normal 0 0 -1
    outer loop
      vertex 129.696 76.5307 0
      vertex 126 79 0
      vertex 129.326 77.2223 0
    endloop
  endfacet
  facet normal 0 0 -1
    outer loop
      vertex 126 0 0
      vertex 128.222 0.674121 0
      vertex 127.531 0.304482 0
    endloop
  endfacet
  facet normal 0 0 -1
    outer loop
      vertex 129.326 77.2223 0
      vertex 126 79 0
      vertex 128.828 77.8284 0
    endloop
  endfacet
  facet normal 0 0 -1
    outer loop
      vertex 126 0 0
      vertex 127.531 0.304482 0
      vertex 126.78 0.0768585 0
    endloop
  endfacet
  facet normal 0 0 -1
    outer loop
      vertex 128.828 77.8284 0
      vertex 126 79 0
      vertex 128.222 78.3259 0
    endloop
  endfacet
  facet normal 0 0 -1
    outer loop
      vertex 128.222 78.3259 0
      vertex 126 79 0
      vertex 127.531 78.6955 0
    endloop
  endfacet
  facet normal 0 0 -1
    outer loop
      vertex 127.531 78.6955 0
      vertex 126 79 0
      vertex 126.78 78.9231 0
    endloop
  endfacet
  facet normal 0 0 -1
    outer loop
      vertex 4 0 0
      vertex 126 79 0
      vertex 126 0 0
    endloop
  endfacet
  facet normal 0 0 -1
    outer loop
      vertex 4 0 0
      vertex 4 79 0
      vertex 126 79 0
    endloop
  endfacet
  facet normal 0 0 -1
    outer loop
      vertex 0 4 0
      vertex 4 0 0
      vertex 3.21964 0.0768585 0
    endloop
  endfacet
  facet normal 0 0 -1
    outer loop
      vertex 4 0 0
      vertex 0 4 0
      vertex 4 79 0
    endloop
  endfacet
  facet normal 0 0 -1
    outer loop
      vertex 0 4 0
      vertex 3.21964 0.0768585 0
      vertex 2.46927 0.304482 0
    endloop
  endfacet
  facet normal 0 0 -1
    outer loop
      vertex 0 75 0
      vertex 4 79 0
      vertex 0 4 0
    endloop
  endfacet
  facet normal 0 0 -1
    outer loop
      vertex 0 4 0
      vertex 2.46927 0.304482 0
      vertex 1.77772 0.674121 0
    endloop
  endfacet
  facet normal 0 0 -1
    outer loop
      vertex 4 79 0
      vertex 0 75 0
      vertex 3.21964 78.9231 0
    endloop
  endfacet
  facet normal 0 0 -1
    outer loop
      vertex 0 4 0
      vertex 1.77772 0.674121 0
      vertex 1.17157 1.17157 0
    endloop
  endfacet
  facet normal 0 0 -1
    outer loop
      vertex 3.21964 78.9231 0
      vertex 0 75 0
      vertex 2.46927 78.6955 0
    endloop
  endfacet
  facet normal 0 0 -1
    outer loop
      vertex 0 4 0
      vertex 1.17157 1.17157 0
      vertex 0.674121 1.77772 0
    endloop
  endfacet
  facet normal 0 0 -1
    outer loop
      vertex 2.46927 78.6955 0
      vertex 0 75 0
      vertex 1.77772 78.3259 0
    endloop
  endfacet
  facet normal 0 0 -1
    outer loop
      vertex 0 4 0
      vertex 0.674121 1.77772 0
      vertex 0.304482 2.46927 0
    endloop
  endfacet
  facet normal 0 0 -1
    outer loop
      vertex 1.77772 78.3259 0
      vertex 0 75 0
      vertex 1.17157 77.8284 0
    endloop
  endfacet
  facet normal 0 0 -1
    outer loop
      vertex 0 4 0
      vertex 0.304482 2.46927 0
      vertex 0.0768585 3.21964 0
    endloop
  endfacet
  facet normal 0 0 -1
    outer loop
      vertex 1.17157 77.8284 0
      vertex 0 75 0
      vertex 0.674121 77.2223 0
    endloop
  endfacet
  facet normal 0 0 -1
    outer loop
      vertex 0.674121 77.2223 0
      vertex 0 75 0
      vertex 0.304482 76.5307 0
    endloop
  endfacet
  facet normal 0 0 -1
    outer loop
      vertex 0.304482 76.5307 0
      vertex 0 75 0
      vertex 0.0768585 75.7804 0
    endloop
  endfacet
  facet normal 0.772669 -0.634809 0
    outer loop
      vertex 128.828 1.17157 50.5
      vertex 129.326 1.77772 0
      vertex 129.326 1.77772 50.5
    endloop
  endfacet
  facet normal 0.772669 -0.634809 0
    outer loop
      vertex 129.326 1.77772 0
      vertex 128.828 1.17157 50.5
      vertex 128.828 1.17157 0
    endloop
  endfacet
  facet normal -0.995185 -0.0980168 0
    outer loop
      vertex 0.0768585 3.21964 0
      vertex 0 4 50.5
      vertex 0 4 0
    endloop
  endfacet
  facet normal -0.995185 -0.0980168 0
    outer loop
      vertex 0 4 50.5
      vertex 0.0768585 3.21964 0
      vertex 0.0768585 3.21964 50.5
    endloop
  endfacet
  facet normal -0.956932 0.290311 0
    outer loop
      vertex 0.0768585 75.7804 0
      vertex 0.304482 76.5307 50.5
      vertex 0.304482 76.5307 0
    endloop
  endfacet
  facet normal -0.956932 0.290311 0
    outer loop
      vertex 0.304482 76.5307 50.5
      vertex 0.0768585 75.7804 0
      vertex 0.0768585 75.7804 50.5
    endloop
  endfacet
  facet normal 0.290063 -0.957008 0
    outer loop
      vertex 126.78 0.0768585 0
      vertex 127.531 0.304482 50.5
      vertex 126.78 0.0768585 50.5
    endloop
  endfacet
  facet normal 0.290063 -0.957008 0
    outer loop
      vertex 127.531 0.304482 50.5
      vertex 126.78 0.0768585 0
      vertex 127.531 0.304482 0
    endloop
  endfacet
  facet normal -0.881922 -0.471395 0
    outer loop
      vertex 0.674121 1.77772 0
      vertex 0.304482 2.46927 50.5
      vertex 0.304482 2.46927 0
    endloop
  endfacet
  facet normal -0.881922 -0.471395 0
    outer loop
      vertex 0.304482 2.46927 50.5
      vertex 0.674121 1.77772 0
      vertex 0.674121 1.77772 50.5
    endloop
  endfacet
  facet normal 0.957153 0.289582 0
    outer loop
      vertex 129.923 75.7804 50.5
      vertex 129.696 76.5307 0
      vertex 129.696 76.5307 50.5
    endloop
  endfacet
  facet normal 0.957153 0.289582 0
    outer loop
      vertex 129.696 76.5307 0
      vertex 129.923 75.7804 50.5
      vertex 129.923 75.7804 0
    endloop
  endfacet
  facet normal 0 0 1
    outer loop
      vertex 127.5 75 50.5
      vertex 130 75 50.5
      vertex 129.923 75.7804 50.5
    endloop
  endfacet
  facet normal 0 0 1
    outer loop
      vertex 130 75 50.5
      vertex 127.5 75 50.5
      vertex 130 4 50.5
    endloop
  endfacet
  facet normal 0 0 1
    outer loop
      vertex 127.471 75.2926 50.5
      vertex 129.923 75.7804 50.5
      vertex 129.696 76.5307 50.5
    endloop
  endfacet
  facet normal 0 0 1
    outer loop
      vertex 127.5 4 50.5
      vertex 130 4 50.5
      vertex 127.5 75 50.5
    endloop
  endfacet
  facet normal 0 0 1
    outer loop
      vertex 127.386 75.574 50.5
      vertex 129.696 76.5307 50.5
      vertex 129.326 77.2223 50.5
    endloop
  endfacet
  facet normal 0 0 1
    outer loop
      vertex 130 4 50.5
      vertex 127.5 4 50.5
      vertex 129.923 3.21964 50.5
    endloop
  endfacet
  facet normal 0 0 1
    outer loop
      vertex 127.247 75.8334 50.5
      vertex 129.326 77.2223 50.5
      vertex 128.828 77.8284 50.5
    endloop
  endfacet
  facet normal -0 0 1
    outer loop
      vertex 127.471 3.70736 50.5
      vertex 129.923 3.21964 50.5
      vertex 127.5 4 50.5
    endloop
  endfacet
  facet normal 0 0 1
    outer loop
      vertex 127.061 76.0607 50.5
      vertex 128.828 77.8284 50.5
      vertex 128.222 78.3259 50.5
    endloop
  endfacet
  facet normal 0 0 1
    outer loop
      vertex 129.923 3.21964 50.5
      vertex 127.471 3.70736 50.5
      vertex 129.696 2.46927 50.5
    endloop
  endfacet
  facet normal 0 0 1
    outer loop
      vertex 126.833 76.2472 50.5
      vertex 128.222 78.3259 50.5
      vertex 127.531 78.6955 50.5
    endloop
  endfacet
  facet normal -0 0 1
    outer loop
      vertex 127.386 3.42597 50.5
      vertex 129.696 2.46927 50.5
      vertex 127.471 3.70736 50.5
    endloop
  endfacet
  facet normal 0 0 1
    outer loop
      vertex 129.696 2.46927 50.5
      vertex 127.386 3.42597 50.5
      vertex 129.326 1.77772 50.5
    endloop
  endfacet
  facet normal 0 0 1
    outer loop
      vertex 129.923 75.7804 50.5
      vertex 127.471 75.2926 50.5
      vertex 127.5 75 50.5
    endloop
  endfacet
  facet normal 0 0 1
    outer loop
      vertex 129.696 76.5307 50.5
      vertex 127.386 75.574 50.5
      vertex 127.471 75.2926 50.5
    endloop
  endfacet
  facet normal 0 0 1
    outer loop
      vertex 129.326 77.2223 50.5
      vertex 127.247 75.8334 50.5
      vertex 127.386 75.574 50.5
    endloop
  endfacet
  facet normal 0 0 1
    outer loop
      vertex 128.828 77.8284 50.5
      vertex 127.061 76.0607 50.5
      vertex 127.247 75.8334 50.5
    endloop
  endfacet
  facet normal 0 0 1
    outer loop
      vertex 128.222 78.3259 50.5
      vertex 126.833 76.2472 50.5
      vertex 127.061 76.0607 50.5
    endloop
  endfacet
  facet normal 0 0 1
    outer loop
      vertex 126.574 76.3858 50.5
      vertex 127.531 78.6955 50.5
      vertex 126.78 78.9231 50.5
    endloop
  endfacet
  facet normal 0 0 1
    outer loop
      vertex 127.531 78.6955 50.5
      vertex 126.574 76.3858 50.5
      vertex 126.833 76.2472 50.5
    endloop
  endfacet
  facet normal 0 0 1
    outer loop
      vertex 126.78 78.9231 50.5
      vertex 126.293 76.4712 50.5
      vertex 126.574 76.3858 50.5
    endloop
  endfacet
  facet normal 0 0 1
    outer loop
      vertex 126 79 50.5
      vertex 126.293 76.4712 50.5
      vertex 126.78 78.9231 50.5
    endloop
  endfacet
  facet normal 0 0 1
    outer loop
      vertex 126 79 50.5
      vertex 126 76.5 50.5
      vertex 126.293 76.4712 50.5
    endloop
  endfacet
  facet normal -0 0 1
    outer loop
      vertex 4 79 50.5
      vertex 126 76.5 50.5
      vertex 126 79 50.5
    endloop
  endfacet
  facet normal 0 0 1
    outer loop
      vertex 4 79 50.5
      vertex 4 76.5 50.5
      vertex 126 76.5 50.5
    endloop
  endfacet
  facet normal 0 0 1
    outer loop
      vertex 4 79 50.5
      vertex 3.70736 76.4712 50.5
      vertex 4 76.5 50.5
    endloop
  endfacet
  facet normal -0 0 1
    outer loop
      vertex 3.21964 78.9231 50.5
      vertex 3.70736 76.4712 50.5
      vertex 4 79 50.5
    endloop
  endfacet
  facet normal 0 0 1
    outer loop
      vertex 3.70736 76.4712 50.5
      vertex 3.21964 78.9231 50.5
      vertex 3.42597 76.3858 50.5
    endloop
  endfacet
  facet normal -0 0 1
    outer loop
      vertex 2.46927 78.6955 50.5
      vertex 3.42597 76.3858 50.5
      vertex 3.21964 78.9231 50.5
    endloop
  endfacet
  facet normal 0 0 1
    outer loop
      vertex 3.42597 76.3858 50.5
      vertex 2.46927 78.6955 50.5
      vertex 3.16664 76.2472 50.5
    endloop
  endfacet
  facet normal -0 0 1
    outer loop
      vertex 1.77772 78.3259 50.5
      vertex 3.16664 76.2472 50.5
      vertex 2.46927 78.6955 50.5
    endloop
  endfacet
  facet normal 0 0 1
    outer loop
      vertex 3.16664 76.2472 50.5
      vertex 1.77772 78.3259 50.5
      vertex 2.93934 76.0607 50.5
    endloop
  endfacet
  facet normal -0 0 1
    outer loop
      vertex 1.17157 77.8284 50.5
      vertex 2.93934 76.0607 50.5
      vertex 1.77772 78.3259 50.5
    endloop
  endfacet
  facet normal 0 0 1
    outer loop
      vertex 2.7528 75.8334 50.5
      vertex 0.674121 77.2223 50.5
      vertex 2.61418 75.574 50.5
    endloop
  endfacet
  facet normal -0 0 1
    outer loop
      vertex 0.674121 77.2223 50.5
      vertex 2.7528 75.8334 50.5
      vertex 1.17157 77.8284 50.5
    endloop
  endfacet
  facet normal 0 0 1
    outer loop
      vertex 2.93934 76.0607 50.5
      vertex 1.17157 77.8284 50.5
      vertex 2.7528 75.8334 50.5
    endloop
  endfacet
  facet normal -0 0 1
    outer loop
      vertex 127.247 3.16664 50.5
      vertex 129.326 1.77772 50.5
      vertex 127.386 3.42597 50.5
    endloop
  endfacet
  facet normal 0 0 1
    outer loop
      vertex 129.326 1.77772 50.5
      vertex 127.247 3.16664 50.5
      vertex 128.828 1.17157 50.5
    endloop
  endfacet
  facet normal -0 0 1
    outer loop
      vertex 127.061 2.93934 50.5
      vertex 128.828 1.17157 50.5
      vertex 127.247 3.16664 50.5
    endloop
  endfacet
  facet normal 0 0 1
    outer loop
      vertex 128.828 1.17157 50.5
      vertex 127.061 2.93934 50.5
      vertex 128.222 0.674121 50.5
    endloop
  endfacet
  facet normal -0 0 1
    outer loop
      vertex 126.833 2.7528 50.5
      vertex 128.222 0.674121 50.5
      vertex 127.061 2.93934 50.5
    endloop
  endfacet
  facet normal 0 0 1
    outer loop
      vertex 128.222 0.674121 50.5
      vertex 126.833 2.7528 50.5
      vertex 127.531 0.304482 50.5
    endloop
  endfacet
  facet normal -0 0 1
    outer loop
      vertex 126.574 2.61418 50.5
      vertex 127.531 0.304482 50.5
      vertex 126.833 2.7528 50.5
    endloop
  endfacet
  facet normal 0 0 1
    outer loop
      vertex 127.531 0.304482 50.5
      vertex 126.574 2.61418 50.5
      vertex 126.78 0.0768585 50.5
    endloop
  endfacet
  facet normal -0 0 1
    outer loop
      vertex 126.293 2.52882 50.5
      vertex 126.78 0.0768585 50.5
      vertex 126.574 2.61418 50.5
    endloop
  endfacet
  facet normal -0 0 1
    outer loop
      vertex 126 2.5 50.5
      vertex 126.78 0.0768585 50.5
      vertex 126.293 2.52882 50.5
    endloop
  endfacet
  facet normal 0 0 1
    outer loop
      vertex 126 2.5 50.5
      vertex 126 0 50.5
      vertex 126.78 0.0768585 50.5
    endloop
  endfacet
  facet normal -0 0 1
    outer loop
      vertex 4 2.5 50.5
      vertex 126 0 50.5
      vertex 126 2.5 50.5
    endloop
  endfacet
  facet normal 0 0 1
    outer loop
      vertex 4 2.5 50.5
      vertex 4 0 50.5
      vertex 126 0 50.5
    endloop
  endfacet
  facet normal 0 0 1
    outer loop
      vertex 3.70736 2.52882 50.5
      vertex 4 0 50.5
      vertex 4 2.5 50.5
    endloop
  endfacet
  facet normal 0 0 1
    outer loop
      vertex 3.21964 0.0768585 50.5
      vertex 3.70736 2.52882 50.5
      vertex 3.42597 2.61418 50.5
    endloop
  endfacet
  facet normal 0 0 1
    outer loop
      vertex 3.70736 2.52882 50.5
      vertex 3.21964 0.0768585 50.5
      vertex 4 0 50.5
    endloop
  endfacet
  facet normal 0 0 1
    outer loop
      vertex 2.46927 0.304482 50.5
      vertex 3.42597 2.61418 50.5
      vertex 3.16664 2.7528 50.5
    endloop
  endfacet
  facet normal 0 0 1
    outer loop
      vertex 1.77772 0.674121 50.5
      vertex 3.16664 2.7528 50.5
      vertex 2.93934 2.93934 50.5
    endloop
  endfacet
  facet normal 0 0 1
    outer loop
      vertex 1.17157 1.17157 50.5
      vertex 2.93934 2.93934 50.5
      vertex 2.7528 3.16664 50.5
    endloop
  endfacet
  facet normal 0 0 1
    outer loop
      vertex 0.674121 1.77772 50.5
      vertex 2.7528 3.16664 50.5
      vertex 2.61418 3.42597 50.5
    endloop
  endfacet
  facet normal 0 0 1
    outer loop
      vertex 0.304482 2.46927 50.5
      vertex 2.61418 3.42597 50.5
      vertex 2.52882 3.70736 50.5
    endloop
  endfacet
  facet normal 0 0 1
    outer loop
      vertex 3.42597 2.61418 50.5
      vertex 2.46927 0.304482 50.5
      vertex 3.21964 0.0768585 50.5
    endloop
  endfacet
  facet normal 0 0 1
    outer loop
      vertex 0.0768585 3.21964 50.5
      vertex 2.52882 3.70736 50.5
      vertex 2.5 4 50.5
    endloop
  endfacet
  facet normal 0 0 1
    outer loop
      vertex 2.5 75 50.5
      vertex 0 75 50.5
      vertex 2.5 4 50.5
    endloop
  endfacet
  facet normal -0 0 1
    outer loop
      vertex 0.304482 76.5307 50.5
      vertex 2.61418 75.574 50.5
      vertex 0.674121 77.2223 50.5
    endloop
  endfacet
  facet normal 0 0 1
    outer loop
      vertex 0 4 50.5
      vertex 2.5 4 50.5
      vertex 0 75 50.5
    endloop
  endfacet
  facet normal 0 0 1
    outer loop
      vertex 2.61418 75.574 50.5
      vertex 0.304482 76.5307 50.5
      vertex 2.52882 75.2926 50.5
    endloop
  endfacet
  facet normal 0 -0 1
    outer loop
      vertex 0.0768585 3.21964 50.5
      vertex 2.5 4 50.5
      vertex 0 4 50.5
    endloop
  endfacet
  facet normal -0 0 1
    outer loop
      vertex 0.0768585 75.7804 50.5
      vertex 2.52882 75.2926 50.5
      vertex 0.304482 76.5307 50.5
    endloop
  endfacet
  facet normal 0 0 1
    outer loop
      vertex 3.16664 2.7528 50.5
      vertex 1.77772 0.674121 50.5
      vertex 2.46927 0.304482 50.5
    endloop
  endfacet
  facet normal 0 0 1
    outer loop
      vertex 2.52882 75.2926 50.5
      vertex 0.0768585 75.7804 50.5
      vertex 2.5 75 50.5
    endloop
  endfacet
  facet normal 0 0 1
    outer loop
      vertex 2.93934 2.93934 50.5
      vertex 1.17157 1.17157 50.5
      vertex 1.77772 0.674121 50.5
    endloop
  endfacet
  facet normal 0 0 1
    outer loop
      vertex 2.5 75 50.5
      vertex 0.0768585 75.7804 50.5
      vertex 0 75 50.5
    endloop
  endfacet
  facet normal 0 0 1
    outer loop
      vertex 2.7528 3.16664 50.5
      vertex 0.674121 1.77772 50.5
      vertex 1.17157 1.17157 50.5
    endloop
  endfacet
  facet normal 0 0 1
    outer loop
      vertex 2.61418 3.42597 50.5
      vertex 0.304482 2.46927 50.5
      vertex 0.674121 1.77772 50.5
    endloop
  endfacet
  facet normal 0 0 1
    outer loop
      vertex 2.52882 3.70736 50.5
      vertex 0.0768585 3.21964 50.5
      vertex 0.304482 2.46927 50.5
    endloop
  endfacet
  facet normal 0.881731 -0.471753 0
    outer loop
      vertex 129.326 1.77772 50.5
      vertex 129.696 2.46927 0
      vertex 129.696 2.46927 50.5
    endloop
  endfacet
  facet normal 0.881731 -0.471753 0
    outer loop
      vertex 129.696 2.46927 0
      vertex 129.326 1.77772 50.5
      vertex 129.326 1.77772 0
    endloop
  endfacet
  facet normal -0.772988 0.63442 0
    outer loop
      vertex 0.674121 77.2223 0
      vertex 1.17157 77.8284 50.5
      vertex 1.17157 77.8284 0
    endloop
  endfacet
  facet normal -0.772988 0.63442 0
    outer loop
      vertex 1.17157 77.8284 50.5
      vertex 0.674121 77.2223 0
      vertex 0.674121 77.2223 50.5
    endloop
  endfacet
  facet normal -0.471878 0.881664 0
    outer loop
      vertex 126.833 2.7528 2.5
      vertex 126.574 2.61418 50.5
      vertex 126.833 2.7528 50.5
    endloop
  endfacet
  facet normal -0.471878 0.881664 0
    outer loop
      vertex 126.574 2.61418 50.5
      vertex 126.833 2.7528 2.5
      vertex 126.574 2.61418 2.5
    endloop
  endfacet
  facet normal -0.881376 0.472415 0
    outer loop
      vertex 127.247 3.16664 2.5
      vertex 127.386 3.42597 50.5
      vertex 127.386 3.42597 2.5
    endloop
  endfacet
  facet normal -0.881376 0.472415 0
    outer loop
      vertex 127.386 3.42597 50.5
      vertex 127.247 3.16664 2.5
      vertex 127.247 3.16664 50.5
    endloop
  endfacet
  facet normal -0.471825 -0.881692 0
    outer loop
      vertex 126.574 76.3858 2.5
      vertex 126.833 76.2472 50.5
      vertex 126.574 76.3858 50.5
    endloop
  endfacet
  facet normal -0.471825 -0.881692 -0
    outer loop
      vertex 126.833 76.2472 50.5
      vertex 126.574 76.3858 2.5
      vertex 126.833 76.2472 2.5
    endloop
  endfacet
  facet normal -1 0 0
    outer loop
      vertex 127.5 4 2.5
      vertex 127.5 75 50.5
      vertex 127.5 75 2.5
    endloop
  endfacet
  facet normal -1 -0 0
    outer loop
      vertex 127.5 75 50.5
      vertex 127.5 4 2.5
      vertex 127.5 4 50.5
    endloop
  endfacet
  facet normal -0.633227 0.773966 0
    outer loop
      vertex 127.061 2.93934 2.5
      vertex 126.833 2.7528 50.5
      vertex 127.061 2.93934 50.5
    endloop
  endfacet
  facet normal -0.633227 0.773966 0
    outer loop
      vertex 126.833 2.7528 50.5
      vertex 127.061 2.93934 2.5
      vertex 126.833 2.7528 2.5
    endloop
  endfacet
  facet normal 0.471358 -0.881942 0
    outer loop
      vertex 3.16664 76.2472 2.5
      vertex 3.42597 76.3858 50.5
      vertex 3.16664 76.2472 50.5
    endloop
  endfacet
  facet normal 0.471358 -0.881942 0
    outer loop
      vertex 3.42597 76.3858 50.5
      vertex 3.16664 76.2472 2.5
      vertex 3.42597 76.3858 2.5
    endloop
  endfacet
  facet normal 0.881914 0.471411 0
    outer loop
      vertex 2.7528 3.16664 50.5
      vertex 2.61418 3.42597 2.5
      vertex 2.61418 3.42597 50.5
    endloop
  endfacet
  facet normal 0.881914 0.471411 0
    outer loop
      vertex 2.61418 3.42597 2.5
      vertex 2.7528 3.16664 50.5
      vertex 2.7528 3.16664 2.5
    endloop
  endfacet
  facet normal 0.773011 0.634393 0
    outer loop
      vertex 2.93934 2.93934 50.5
      vertex 2.7528 3.16664 2.5
      vertex 2.7528 3.16664 50.5
    endloop
  endfacet
  facet normal 0.773011 0.634393 0
    outer loop
      vertex 2.7528 3.16664 2.5
      vertex 2.93934 2.93934 50.5
      vertex 2.93934 2.93934 2.5
    endloop
  endfacet
  facet normal 0 -1 0
    outer loop
      vertex 4 76.5 2.5
      vertex 126 76.5 50.5
      vertex 4 76.5 50.5
    endloop
  endfacet
  facet normal 0 -1 -0
    outer loop
      vertex 126 76.5 50.5
      vertex 4 76.5 2.5
      vertex 126 76.5 2.5
    endloop
  endfacet
  facet normal -0 0 1
    outer loop
      vertex 0 68.5 2.5
      vertex 2.5 10.5 2.5
      vertex 2.5 68.5 2.5
    endloop
  endfacet
  facet normal 0 0 1
    outer loop
      vertex 2.5 10.5 2.5
      vertex 0 68.5 2.5
      vertex 0 10.5 2.5
    endloop
  endfacet
  facet normal 0 0 1
    outer loop
      vertex 126 76.5 2.5
      vertex 127.5 75 2.5
      vertex 127.471 75.2926 2.5
    endloop
  endfacet
  facet normal 0 0 1
    outer loop
      vertex 127.5 75 2.5
      vertex 126 76.5 2.5
      vertex 127.5 4 2.5
    endloop
  endfacet
  facet normal 0 0 1
    outer loop
      vertex 126 76.5 2.5
      vertex 127.471 75.2926 2.5
      vertex 127.386 75.574 2.5
    endloop
  endfacet
  facet normal 0 0 1
    outer loop
      vertex 126 2.5 2.5
      vertex 127.5 4 2.5
      vertex 126 76.5 2.5
    endloop
  endfacet
  facet normal 0 0 1
    outer loop
      vertex 126 76.5 2.5
      vertex 127.386 75.574 2.5
      vertex 127.247 75.8334 2.5
    endloop
  endfacet
  facet normal 0 0 1
    outer loop
      vertex 127.5 4 2.5
      vertex 126 2.5 2.5
      vertex 127.471 3.70736 2.5
    endloop
  endfacet
  facet normal 0 0 1
    outer loop
      vertex 126 76.5 2.5
      vertex 127.247 75.8334 2.5
      vertex 127.061 76.0607 2.5
    endloop
  endfacet
  facet normal 0 0 1
    outer loop
      vertex 127.471 3.70736 2.5
      vertex 126 2.5 2.5
      vertex 127.386 3.42597 2.5
    endloop
  endfacet
  facet normal 0 0 1
    outer loop
      vertex 126 76.5 2.5
      vertex 127.061 76.0607 2.5
      vertex 126.833 76.2472 2.5
    endloop
  endfacet
  facet normal 0 0 1
    outer loop
      vertex 127.386 3.42597 2.5
      vertex 126 2.5 2.5
      vertex 127.247 3.16664 2.5
    endloop
  endfacet
  facet normal 0 0 1
    outer loop
      vertex 126 76.5 2.5
      vertex 126.833 76.2472 2.5
      vertex 126.574 76.3858 2.5
    endloop
  endfacet
  facet normal 0 0 1
    outer loop
      vertex 127.247 3.16664 2.5
      vertex 126 2.5 2.5
      vertex 127.061 2.93934 2.5
    endloop
  endfacet
  facet normal 0 0 1
    outer loop
      vertex 126 76.5 2.5
      vertex 126.574 76.3858 2.5
      vertex 126.293 76.4712 2.5
    endloop
  endfacet
  facet normal 0 0 1
    outer loop
      vertex 127.061 2.93934 2.5
      vertex 126 2.5 2.5
      vertex 126.833 2.7528 2.5
    endloop
  endfacet
  facet normal 0 0 1
    outer loop
      vertex 126.833 2.7528 2.5
      vertex 126 2.5 2.5
      vertex 126.574 2.61418 2.5
    endloop
  endfacet
  facet normal 0 0 1
    outer loop
      vertex 126.574 2.61418 2.5
      vertex 126 2.5 2.5
      vertex 126.293 2.52882 2.5
    endloop
  endfacet
  facet normal 0 0 1
    outer loop
      vertex 2.5 68.5 2.5
      vertex 126 76.5 2.5
      vertex 4 76.5 2.5
    endloop
  endfacet
  facet normal 0 0 1
    outer loop
      vertex 126 76.5 2.5
      vertex 2.5 68.5 2.5
      vertex 126 2.5 2.5
    endloop
  endfacet
  facet normal 0 0 1
    outer loop
      vertex 2.5 75 2.5
      vertex 4 76.5 2.5
      vertex 3.70736 76.4712 2.5
    endloop
  endfacet
  facet normal -0 0 1
    outer loop
      vertex 2.5 10.5 2.5
      vertex 126 2.5 2.5
      vertex 2.5 68.5 2.5
    endloop
  endfacet
  facet normal 0 0 1
    outer loop
      vertex 2.5 75 2.5
      vertex 3.70736 76.4712 2.5
      vertex 3.42597 76.3858 2.5
    endloop
  endfacet
  facet normal 0 0 1
    outer loop
      vertex 126 2.5 2.5
      vertex 2.5 10.5 2.5
      vertex 4 2.5 2.5
    endloop
  endfacet
  facet normal 0 0 1
    outer loop
      vertex 2.5 75 2.5
      vertex 3.42597 76.3858 2.5
      vertex 3.16664 76.2472 2.5
    endloop
  endfacet
  facet normal -0 0 1
    outer loop
      vertex 2.5 4 2.5
      vertex 4 2.5 2.5
      vertex 2.5 10.5 2.5
    endloop
  endfacet
  facet normal 0 0 1
    outer loop
      vertex 2.5 75 2.5
      vertex 3.16664 76.2472 2.5
      vertex 2.93934 76.0607 2.5
    endloop
  endfacet
  facet normal 0 0 1
    outer loop
      vertex 4 2.5 2.5
      vertex 2.5 4 2.5
      vertex 3.70736 2.52882 2.5
    endloop
  endfacet
  facet normal 0 0 1
    outer loop
      vertex 2.5 75 2.5
      vertex 2.93934 76.0607 2.5
      vertex 2.7528 75.8334 2.5
    endloop
  endfacet
  facet normal 0 0 1
    outer loop
      vertex 3.70736 2.52882 2.5
      vertex 2.5 4 2.5
      vertex 3.42597 2.61418 2.5
    endloop
  endfacet
  facet normal 0 0 1
    outer loop
      vertex 2.5 75 2.5
      vertex 2.7528 75.8334 2.5
      vertex 2.61418 75.574 2.5
    endloop
  endfacet
  facet normal 0 0 1
    outer loop
      vertex 3.42597 2.61418 2.5
      vertex 2.5 4 2.5
      vertex 3.16664 2.7528 2.5
    endloop
  endfacet
  facet normal 0 0 1
    outer loop
      vertex 2.5 75 2.5
      vertex 2.61418 75.574 2.5
      vertex 2.52882 75.2926 2.5
    endloop
  endfacet
  facet normal 0 0 1
    outer loop
      vertex 3.16664 2.7528 2.5
      vertex 2.5 4 2.5
      vertex 2.93934 2.93934 2.5
    endloop
  endfacet
  facet normal 0 0 1
    outer loop
      vertex 4 76.5 2.5
      vertex 2.5 75 2.5
      vertex 2.5 68.5 2.5
    endloop
  endfacet
  facet normal 0 0 1
    outer loop
      vertex 2.93934 2.93934 2.5
      vertex 2.5 4 2.5
      vertex 2.7528 3.16664 2.5
    endloop
  endfacet
  facet normal 0 0 1
    outer loop
      vertex 2.7528 3.16664 2.5
      vertex 2.5 4 2.5
      vertex 2.61418 3.42597 2.5
    endloop
  endfacet
  facet normal 0 0 1
    outer loop
      vertex 2.61418 3.42597 2.5
      vertex 2.5 4 2.5
      vertex 2.52882 3.70736 2.5
    endloop
  endfacet
  facet normal 0.634311 -0.773078 0
    outer loop
      vertex 2.93934 76.0607 2.5
      vertex 3.16664 76.2472 50.5
      vertex 2.93934 76.0607 50.5
    endloop
  endfacet
  facet normal 0.634311 -0.773078 0
    outer loop
      vertex 3.16664 76.2472 50.5
      vertex 2.93934 76.0607 2.5
      vertex 3.16664 76.2472 2.5
    endloop
  endfacet
  facet normal 0.0980086 0.995186 -0
    outer loop
      vertex 4 2.5 2.5
      vertex 3.70736 2.52882 50.5
      vertex 4 2.5 50.5
    endloop
  endfacet
  facet normal 0.0980086 0.995186 0
    outer loop
      vertex 3.70736 2.52882 50.5
      vertex 4 2.5 2.5
      vertex 3.70736 2.52882 2.5
    endloop
  endfacet
  facet normal -0.995124 -0.0986282 0
    outer loop
      vertex 127.5 75 2.5
      vertex 127.471 75.2926 50.5
      vertex 127.471 75.2926 2.5
    endloop
  endfacet
  facet normal -0.995124 -0.0986282 0
    outer loop
      vertex 127.471 75.2926 50.5
      vertex 127.5 75 2.5
      vertex 127.5 75 50.5
    endloop
  endfacet
  facet normal -0.773912 0.633293 0
    outer loop
      vertex 127.061 2.93934 2.5
      vertex 127.247 3.16664 50.5
      vertex 127.247 3.16664 2.5
    endloop
  endfacet
  facet normal -0.773912 0.633293 0
    outer loop
      vertex 127.247 3.16664 50.5
      vertex 127.061 2.93934 2.5
      vertex 127.061 2.93934 50.5
    endloop
  endfacet
  facet normal 0.0979413 -0.995192 0
    outer loop
      vertex 3.70736 76.4712 2.5
      vertex 4 76.5 50.5
      vertex 3.70736 76.4712 50.5
    endloop
  endfacet
  facet normal 0.0979413 -0.995192 0
    outer loop
      vertex 4 76.5 50.5
      vertex 3.70736 76.4712 2.5
      vertex 4 76.5 2.5
    endloop
  endfacet
  facet normal 0.881967 -0.471312 0
    outer loop
      vertex 2.61418 75.574 50.5
      vertex 2.7528 75.8334 2.5
      vertex 2.7528 75.8334 50.5
    endloop
  endfacet
  facet normal 0.881967 -0.471312 0
    outer loop
      vertex 2.7528 75.8334 2.5
      vertex 2.61418 75.574 50.5
      vertex 2.61418 75.574 2.5
    endloop
  endfacet
  facet normal 1 0 0
    outer loop
      vertex 2.5 75 50.5
      vertex 2.5 68.5 8.5
      vertex 2.5 75 2.5
    endloop
  endfacet
  facet normal 1 0 0
    outer loop
      vertex 2.5 75 50.5
      vertex 2.5 10.5 8.5
      vertex 2.5 68.5 8.5
    endloop
  endfacet
  facet normal 1 -0 0
    outer loop
      vertex 2.5 4 50.5
      vertex 2.5 10.5 8.5
      vertex 2.5 75 50.5
    endloop
  endfacet
  facet normal 1 0 0
    outer loop
      vertex 2.5 4 2.5
      vertex 2.5 10.5 8.5
      vertex 2.5 4 50.5
    endloop
  endfacet
  facet normal 1 0 0
    outer loop
      vertex 2.5 10.5 8.5
      vertex 2.5 4 2.5
      vertex 2.5 10.5 2.5
    endloop
  endfacet
  facet normal 1 0 0
    outer loop
      vertex 2.5 75 2.5
      vertex 2.5 68.5 8.5
      vertex 2.5 68.5 2.5
    endloop
  endfacet
  facet normal 0.773011 -0.634393 0
    outer loop
      vertex 2.7528 75.8334 50.5
      vertex 2.93934 76.0607 2.5
      vertex 2.93934 76.0607 50.5
    endloop
  endfacet
  facet normal 0.773011 -0.634393 0
    outer loop
      vertex 2.93934 76.0607 2.5
      vertex 2.7528 75.8334 50.5
      vertex 2.7528 75.8334 2.5
    endloop
  endfacet
  facet normal -0.995126 0.0986148 0
    outer loop
      vertex 127.471 3.70736 2.5
      vertex 127.5 4 50.5
      vertex 127.5 4 2.5
    endloop
  endfacet
  facet normal -0.995126 0.0986148 0
    outer loop
      vertex 127.5 4 50.5
      vertex 127.471 3.70736 2.5
      vertex 127.471 3.70736 50.5
    endloop
  endfacet
  facet normal 0 1 -0
    outer loop
      vertex 126 2.5 2.5
      vertex 4 2.5 50.5
      vertex 126 2.5 50.5
    endloop
  endfacet
  facet normal 0 1 0
    outer loop
      vertex 4 2.5 50.5
      vertex 126 2.5 2.5
      vertex 4 2.5 2.5
    endloop
  endfacet
  facet normal 0.995184 -0.0980219 0
    outer loop
      vertex 2.5 75 50.5
      vertex 2.52882 75.2926 2.5
      vertex 2.52882 75.2926 50.5
    endloop
  endfacet
  facet normal 0.995184 -0.0980219 0
    outer loop
      vertex 2.52882 75.2926 2.5
      vertex 2.5 75 50.5
      vertex 2.5 75 2.5
    endloop
  endfacet
  facet normal 0.471411 0.881914 -0
    outer loop
      vertex 3.42597 2.61418 2.5
      vertex 3.16664 2.7528 50.5
      vertex 3.42597 2.61418 50.5
    endloop
  endfacet
  facet normal 0.471411 0.881914 0
    outer loop
      vertex 3.16664 2.7528 50.5
      vertex 3.42597 2.61418 2.5
      vertex 3.16664 2.7528 2.5
    endloop
  endfacet
  facet normal 0.634393 0.773011 -0
    outer loop
      vertex 3.16664 2.7528 2.5
      vertex 2.93934 2.93934 50.5
      vertex 3.16664 2.7528 50.5
    endloop
  endfacet
  facet normal 0.634393 0.773011 0
    outer loop
      vertex 2.93934 2.93934 50.5
      vertex 3.16664 2.7528 2.5
      vertex 2.93934 2.93934 2.5
    endloop
  endfacet
  facet normal 0.995186 0.0980086 0
    outer loop
      vertex 2.52882 3.70736 50.5
      vertex 2.5 4 2.5
      vertex 2.5 4 50.5
    endloop
  endfacet
  facet normal 0.995186 0.0980086 0
    outer loop
      vertex 2.5 4 2.5
      vertex 2.52882 3.70736 50.5
      vertex 2.52882 3.70736 2.5
    endloop
  endfacet
  facet normal 0.290413 -0.956901 0
    outer loop
      vertex 3.42597 76.3858 2.5
      vertex 3.70736 76.4712 50.5
      vertex 3.42597 76.3858 50.5
    endloop
  endfacet
  facet normal 0.290413 -0.956901 0
    outer loop
      vertex 3.70736 76.4712 50.5
      vertex 3.42597 76.3858 2.5
      vertex 3.70736 76.4712 2.5
    endloop
  endfacet
  facet normal -0.290782 -0.956789 0
    outer loop
      vertex 126.293 76.4712 2.5
      vertex 126.574 76.3858 50.5
      vertex 126.293 76.4712 50.5
    endloop
  endfacet
  facet normal -0.290782 -0.956789 -0
    outer loop
      vertex 126.574 76.3858 50.5
      vertex 126.293 76.4712 2.5
      vertex 126.574 76.3858 2.5
    endloop
  endfacet
  facet normal -0.881429 -0.472316 0
    outer loop
      vertex 127.386 75.574 2.5
      vertex 127.247 75.8334 50.5
      vertex 127.247 75.8334 2.5
    endloop
  endfacet
  facet normal -0.881429 -0.472316 0
    outer loop
      vertex 127.247 75.8334 50.5
      vertex 127.386 75.574 2.5
      vertex 127.386 75.574 50.5
    endloop
  endfacet
  facet normal -0.633145 -0.774033 0
    outer loop
      vertex 126.833 76.2472 2.5
      vertex 127.061 76.0607 50.5
      vertex 126.833 76.2472 50.5
    endloop
  endfacet
  facet normal -0.633145 -0.774033 -0
    outer loop
      vertex 127.061 76.0607 50.5
      vertex 126.833 76.2472 2.5
      vertex 127.061 76.0607 2.5
    endloop
  endfacet
  facet normal -0.773912 -0.633293 0
    outer loop
      vertex 127.247 75.8334 2.5
      vertex 127.061 76.0607 50.5
      vertex 127.061 76.0607 2.5
    endloop
  endfacet
  facet normal -0.773912 -0.633293 0
    outer loop
      vertex 127.061 76.0607 50.5
      vertex 127.247 75.8334 2.5
      vertex 127.247 75.8334 50.5
    endloop
  endfacet
  facet normal 0.956942 -0.290279 0
    outer loop
      vertex 2.52882 75.2926 50.5
      vertex 2.61418 75.574 2.5
      vertex 2.61418 75.574 50.5
    endloop
  endfacet
  facet normal 0.956942 -0.290279 0
    outer loop
      vertex 2.61418 75.574 2.5
      vertex 2.52882 75.2926 50.5
      vertex 2.52882 75.2926 2.5
    endloop
  endfacet
  facet normal -0.0978894 0.995197 0
    outer loop
      vertex 126.293 2.52882 2.5
      vertex 126 2.5 50.5
      vertex 126.293 2.52882 50.5
    endloop
  endfacet
  facet normal -0.0978894 0.995197 0
    outer loop
      vertex 126 2.5 50.5
      vertex 126.293 2.52882 2.5
      vertex 126 2.5 2.5
    endloop
  endfacet
  facet normal -0.290658 0.956827 0
    outer loop
      vertex 126.574 2.61418 2.5
      vertex 126.293 2.52882 50.5
      vertex 126.574 2.61418 50.5
    endloop
  endfacet
  facet normal -0.290658 0.956827 0
    outer loop
      vertex 126.293 2.52882 50.5
      vertex 126.574 2.61418 2.5
      vertex 126.293 2.52882 2.5
    endloop
  endfacet
  facet normal -0.957279 0.289167 0
    outer loop
      vertex 127.386 3.42597 2.5
      vertex 127.471 3.70736 50.5
      vertex 127.471 3.70736 2.5
    endloop
  endfacet
  facet normal -0.957279 0.289167 0
    outer loop
      vertex 127.471 3.70736 50.5
      vertex 127.386 3.42597 2.5
      vertex 127.386 3.42597 50.5
    endloop
  endfacet
  facet normal -0.0978221 -0.995204 0
    outer loop
      vertex 126 76.5 2.5
      vertex 126.293 76.4712 50.5
      vertex 126 76.5 50.5
    endloop
  endfacet
  facet normal -0.0978221 -0.995204 -0
    outer loop
      vertex 126.293 76.4712 50.5
      vertex 126 76.5 2.5
      vertex 126.293 76.4712 2.5
    endloop
  endfacet
  facet normal 0.956939 0.290289 0
    outer loop
      vertex 2.61418 3.42597 50.5
      vertex 2.52882 3.70736 2.5
      vertex 2.52882 3.70736 50.5
    endloop
  endfacet
  facet normal 0.956939 0.290289 0
    outer loop
      vertex 2.52882 3.70736 2.5
      vertex 2.61418 3.42597 50.5
      vertex 2.61418 3.42597 2.5
    endloop
  endfacet
  facet normal -0.957282 -0.289158 0
    outer loop
      vertex 127.471 75.2926 2.5
      vertex 127.386 75.574 50.5
      vertex 127.386 75.574 2.5
    endloop
  endfacet
  facet normal -0.957282 -0.289158 0
    outer loop
      vertex 127.386 75.574 50.5
      vertex 127.471 75.2926 2.5
      vertex 127.471 75.2926 50.5
    endloop
  endfacet
  facet normal 0.290289 0.956939 -0
    outer loop
      vertex 3.70736 2.52882 2.5
      vertex 3.42597 2.61418 50.5
      vertex 3.70736 2.52882 50.5
    endloop
  endfacet
  facet normal 0.290289 0.956939 0
    outer loop
      vertex 3.42597 2.61418 50.5
      vertex 3.70736 2.52882 2.5
      vertex 3.42597 2.61418 2.5
    endloop
  endfacet
  facet normal 0 0 -1
    outer loop
      vertex 0 10.5 8.5
      vertex 2.5 68.5 8.5
      vertex 2.5 10.5 8.5
    endloop
  endfacet
  facet normal -0 0 -1
    outer loop
      vertex 2.5 68.5 8.5
      vertex 0 10.5 8.5
      vertex 0 68.5 8.5
    endloop
  endfacet
  facet normal 0 -1 0
    outer loop
      vertex 0 68.5 2.5
      vertex 2.5 68.5 8.5
      vertex 0 68.5 8.5
    endloop
  endfacet
  facet normal 0 -1 -0
    outer loop
      vertex 2.5 68.5 8.5
      vertex 0 68.5 2.5
      vertex 2.5 68.5 2.5
    endloop
  endfacet
  facet normal 0 1 -0
    outer loop
      vertex 2.5 10.5 2.5
      vertex 0 10.5 8.5
      vertex 2.5 10.5 8.5
    endloop
  endfacet
  facet normal 0 1 0
    outer loop
      vertex 0 10.5 8.5
      vertex 2.5 10.5 2.5
      vertex 0 10.5 2.5
    endloop
  endfacet
endsolid OpenSCAD_Model
