solid OpenSCAD_Model
  facet normal -0.0980168 -0.995185 0
    outer loop
      vertex 3.21964 0.0768585 0
      vertex 4 0 3
      vertex 3.21964 0.0768585 3
    endloop
  endfacet
  facet normal -0.95694 -0.290286 0
    outer loop
      vertex 0.0768585 3.21964 3
      vertex 0.304482 2.46927 0
      vertex 0.304482 2.46927 3
    endloop
  endfacet
  facet normal -0.290286 -0.95694 -0
    outer loop
      vertex 2.46927 0.304482 3
      vertex 2.46927 0.304482 0
      vertex 3.21964 0.0768585 3
    endloop
  endfacet
  facet normal -0.0980692 0.99518 0
    outer loop
      vertex 3.21964 71.3231 0
      vertex 3.21964 71.3231 3
      vertex 4 71.4 0
    endloop
  endfacet
  facet normal -0.995185 -0.0980168 -0
    outer loop
      vertex 0.0768585 3.21964 3
      vertex 0 4 3
      vertex 0.0768585 3.21964 0
    endloop
  endfacet
  facet normal 0 0 -1
    outer loop
      vertex 4 0 0
      vertex 101.326 69.6223 0
      vertex 98 0 0
    endloop
  endfacet
  facet normal -0.956932 0.290311 0
    outer loop
      vertex 0.304482 68.9307 3
      vertex 0.304482 68.9307 0
      vertex 0.0768585 68.1804 3
    endloop
  endfacet
  facet normal -0.634389 -0.773014 -0
    outer loop
      vertex 1.77772 0.674121 3
      vertex 1.17157 1.17157 3
      vertex 1.77772 0.674121 0
    endloop
  endfacet
  facet normal 0.957153 0.289582 0
    outer loop
      vertex 101.923 68.1804 3
      vertex 101.923 68.1804 0
      vertex 101.696 68.9307 3
    endloop
  endfacet
  facet normal 0.0980643 0.99518 0
    outer loop
      vertex 98 71.4 0
      vertex 98.7804 71.3231 3
      vertex 98.7804 71.3231 0
    endloop
  endfacet
  facet normal -0.881937 0.471368 0
    outer loop
      vertex 0.674121 69.6223 3
      vertex 0.304482 68.9307 0
      vertex 0.304482 68.9307 3
    endloop
  endfacet
  facet normal -1 0 0
    outer loop
      vertex 0 67.4 0
      vertex 0 4 3
      vertex 0 67.4 3
    endloop
  endfacet
  facet normal -0.0980692 0.99518 0
    outer loop
      vertex 4 71.4 0
      vertex 3.21964 71.3231 3
      vertex 4 71.4 3
    endloop
  endfacet
  facet normal 0.957153 0.289582 0
    outer loop
      vertex 101.696 68.9307 3
      vertex 101.923 68.1804 0
      vertex 101.696 68.9307 0
    endloop
  endfacet
  facet normal 0 -0 -1
    outer loop
      vertex 1.17157 70.2284 0
      vertex 101.326 69.6223 0
      vertex 0.674121 69.6223 0
    endloop
  endfacet
  facet normal 0.772644 0.63484 0
    outer loop
      vertex 100.828 70.2284 0
      vertex 101.326 69.6223 3
      vertex 101.326 69.6223 0
    endloop
  endfacet
  facet normal -0.881922 -0.471395 -0
    outer loop
      vertex 0.304482 2.46927 3
      vertex 0.304482 2.46927 0
      vertex 0.674121 1.77772 3
    endloop
  endfacet
  facet normal -0.471395 -0.881922 0
    outer loop
      vertex 1.77772 0.674121 0
      vertex 2.46927 0.304482 0
      vertex 1.77772 0.674121 3
    endloop
  endfacet
  facet normal -0.995185 -0.0980168 0
    outer loop
      vertex 0.0768585 3.21964 0
      vertex 0 4 3
      vertex 0 4 0
    endloop
  endfacet
  facet normal -0.772988 0.63442 0
    outer loop
      vertex 0.674121 69.6223 0
      vertex 1.17157 70.2284 3
      vertex 1.17157 70.2284 0
    endloop
  endfacet
  facet normal 0 1 0
    outer loop
      vertex 98 71.4 3
      vertex 4 71.4 0
      vertex 4 71.4 3
    endloop
  endfacet
  facet normal 0.634522 0.772905 0
    outer loop
      vertex 100.222 70.7259 3
      vertex 100.828 70.2284 0
      vertex 100.222 70.7259 0
    endloop
  endfacet
  facet normal 0 0 1
    outer loop
      vertex 99.5307 71.0955 3
      vertex 101.326 69.6223 3
      vertex 100.222 70.7259 3
    endloop
  endfacet
  facet normal 0.0980118 -0.995185 0
    outer loop
      vertex 98 0 0
      vertex 98.7804 0.0768585 3
      vertex 98 0 3
    endloop
  endfacet
  facet normal -0 -1 -0
    outer loop
      vertex 98 0 3
      vertex 4 0 3
      vertex 98 0 0
    endloop
  endfacet
  facet normal -0 -0 -1
    outer loop
      vertex 98.7804 71.3231 0
      vertex 101.326 69.6223 0
      vertex 98 71.4 0
    endloop
  endfacet
  facet normal -1 0 0
    outer loop
      vertex 0 4 0
      vertex 0 4 3
      vertex 0 67.4 0
    endloop
  endfacet
  facet normal -0.471395 -0.881922 0
    outer loop
      vertex 1.77772 0.674121 3
      vertex 2.46927 0.304482 0
      vertex 2.46927 0.304482 3
    endloop
  endfacet
  facet normal 0 0 -1
    outer loop
      vertex 1.17157 1.17157 0
      vertex 101.326 69.6223 0
      vertex 1.77772 0.674121 0
    endloop
  endfacet
  facet normal 0 -0 -1
    outer loop
      vertex 0.674121 69.6223 0
      vertex 101.326 69.6223 0
      vertex 0.304482 68.9307 0
    endloop
  endfacet
  facet normal 0 -0 1
    outer loop
      vertex 0.674121 1.77772 3
      vertex 101.326 69.6223 3
      vertex 0.304482 2.46927 3
    endloop
  endfacet
  facet normal 0 1 -0
    outer loop
      vertex 98 71.4 0
      vertex 4 71.4 0
      vertex 98 71.4 3
    endloop
  endfacet
  facet normal 0.995168 0.0981906 -0
    outer loop
      vertex 102 67.4 0
      vertex 101.923 68.1804 0
      vertex 102 67.4 3
    endloop
  endfacet
  facet normal 0.772669 -0.634809 0
    outer loop
      vertex 100.828 1.17157 0
      vertex 101.326 1.77772 3
      vertex 100.828 1.17157 3
    endloop
  endfacet
  facet normal 0 0 -1
    outer loop
      vertex 100.222 0.674121 0
      vertex 101.326 69.6223 0
      vertex 100.828 1.17157 0
    endloop
  endfacet
  facet normal 0 -0 1
    outer loop
      vertex 0.0768585 3.21964 3
      vertex 101.326 69.6223 3
      vertex 0 4 3
    endloop
  endfacet
  facet normal 0.290283 0.956941 0
    outer loop
      vertex 99.5307 71.0955 3
      vertex 99.5307 71.0955 0
      vertex 98.7804 71.3231 3
    endloop
  endfacet
  facet normal 0 -0 1
    outer loop
      vertex 100.222 0.674121 3
      vertex 101.326 69.6223 3
      vertex 99.5307 0.304482 3
    endloop
  endfacet
  facet normal 0 0 1
    outer loop
      vertex 101.923 3.21964 3
      vertex 101.326 69.6223 3
      vertex 101.696 2.46927 3
    endloop
  endfacet
  facet normal -0.995185 0.0980118 0
    outer loop
      vertex 0 67.4 3
      vertex 0.0768585 68.1804 3
      vertex 0 67.4 0
    endloop
  endfacet
  facet normal 1 0 0
    outer loop
      vertex 102 67.4 3
      vertex 102 4 0
      vertex 102 67.4 0
    endloop
  endfacet
  facet normal -0.881922 -0.471395 -0
    outer loop
      vertex 0.674121 1.77772 3
      vertex 0.304482 2.46927 0
      vertex 0.674121 1.77772 0
    endloop
  endfacet
  facet normal 0 -0 -1
    outer loop
      vertex 4 71.4 0
      vertex 101.326 69.6223 0
      vertex 3.21964 71.3231 0
    endloop
  endfacet
  facet normal 0 -0 1
    outer loop
      vertex 101.326 1.77772 3
      vertex 101.326 69.6223 3
      vertex 100.828 1.17157 3
    endloop
  endfacet
  facet normal 0.634483 -0.772937 0
    outer loop
      vertex 100.828 1.17157 3
      vertex 100.222 0.674121 3
      vertex 100.828 1.17157 0
    endloop
  endfacet
  facet normal -0.95694 -0.290286 0
    outer loop
      vertex 0.0768585 3.21964 0
      vertex 0.304482 2.46927 0
      vertex 0.0768585 3.21964 3
    endloop
  endfacet
  facet normal -0.773014 -0.634389 0
    outer loop
      vertex 1.17157 1.17157 0
      vertex 1.17157 1.17157 3
      vertex 0.674121 1.77772 0
    endloop
  endfacet
  facet normal 0.471488 0.881872 0
    outer loop
      vertex 100.222 70.7259 3
      vertex 99.5307 71.0955 0
      vertex 99.5307 71.0955 3
    endloop
  endfacet
  facet normal 0 0 1
    outer loop
      vertex 100.222 70.7259 3
      vertex 101.326 69.6223 3
      vertex 100.828 70.2284 3
    endloop
  endfacet
  facet normal 0.290283 0.956941 0
    outer loop
      vertex 98.7804 71.3231 3
      vertex 99.5307 71.0955 0
      vertex 98.7804 71.3231 0
    endloop
  endfacet
  facet normal -0 0 1
    outer loop
      vertex 1.17157 70.2284 3
      vertex 101.326 69.6223 3
      vertex 1.77772 70.7259 3
    endloop
  endfacet
  facet normal 0.772669 -0.634809 0
    outer loop
      vertex 101.326 1.77772 0
      vertex 101.326 1.77772 3
      vertex 100.828 1.17157 0
    endloop
  endfacet
  facet normal 1 -0 0
    outer loop
      vertex 102 4 3
      vertex 102 4 0
      vertex 102 67.4 3
    endloop
  endfacet
  facet normal 0.471488 0.881872 -0
    outer loop
      vertex 100.222 70.7259 0
      vertex 99.5307 71.0955 0
      vertex 100.222 70.7259 3
    endloop
  endfacet
  facet normal 0 0 -1
    outer loop
      vertex 2.46927 0.304482 0
      vertex 101.326 69.6223 0
      vertex 3.21964 0.0768585 0
    endloop
  endfacet
  facet normal -0.772988 0.63442 0
    outer loop
      vertex 0.674121 69.6223 3
      vertex 1.17157 70.2284 3
      vertex 0.674121 69.6223 0
    endloop
  endfacet
  facet normal 0.995168 0.0981906 0
    outer loop
      vertex 102 67.4 3
      vertex 101.923 68.1804 0
      vertex 101.923 68.1804 3
    endloop
  endfacet
  facet normal -0 -0 -1
    outer loop
      vertex 99.5307 71.0955 0
      vertex 101.326 69.6223 0
      vertex 98.7804 71.3231 0
    endloop
  endfacet
  facet normal 0.634483 -0.772937 0
    outer loop
      vertex 100.828 1.17157 0
      vertex 100.222 0.674121 3
      vertex 100.222 0.674121 0
    endloop
  endfacet
  facet normal 0.0980643 0.99518 0
    outer loop
      vertex 98 71.4 3
      vertex 98.7804 71.3231 3
      vertex 98 71.4 0
    endloop
  endfacet
  facet normal 0 0 -1
    outer loop
      vertex 0 4 0
      vertex 101.326 69.6223 0
      vertex 0.0768585 3.21964 0
    endloop
  endfacet
  facet normal -0.956932 0.290311 0
    outer loop
      vertex 0.0768585 68.1804 3
      vertex 0.304482 68.9307 0
      vertex 0.0768585 68.1804 0
    endloop
  endfacet
  facet normal 0 -0 -1
    outer loop
      vertex 1.77772 70.7259 0
      vertex 101.326 69.6223 0
      vertex 1.17157 70.2284 0
    endloop
  endfacet
  facet normal 0 0 -1
    outer loop
      vertex 3.21964 0.0768585 0
      vertex 101.326 69.6223 0
      vertex 4 0 0
    endloop
  endfacet
  facet normal 0 -0 1
    outer loop
      vertex 98.7804 0.0768585 3
      vertex 101.326 69.6223 3
      vertex 98 0 3
    endloop
  endfacet
  facet normal -0.290286 -0.95694 -0
    outer loop
      vertex 3.21964 0.0768585 3
      vertex 2.46927 0.304482 0
      vertex 3.21964 0.0768585 0
    endloop
  endfacet
  facet normal 0 0 1
    outer loop
      vertex 98 71.4 3
      vertex 101.326 69.6223 3
      vertex 98.7804 71.3231 3
    endloop
  endfacet
  facet normal 0.471527 -0.881852 0
    outer loop
      vertex 100.222 0.674121 0
      vertex 100.222 0.674121 3
      vertex 99.5307 0.304482 0
    endloop
  endfacet
  facet normal -0.0980168 -0.995185 0
    outer loop
      vertex 4 0 0
      vertex 4 0 3
      vertex 3.21964 0.0768585 0
    endloop
  endfacet
  facet normal 0 -1 0
    outer loop
      vertex 98 0 0
      vertex 4 0 3
      vertex 4 0 0
    endloop
  endfacet
  facet normal 0 -0 -1
    outer loop
      vertex 0.304482 68.9307 0
      vertex 101.326 69.6223 0
      vertex 0.0768585 68.1804 0
    endloop
  endfacet
  facet normal 0 0 1
    outer loop
      vertex 0.304482 68.9307 3
      vertex 101.326 69.6223 3
      vertex 0.674121 69.6223 3
    endloop
  endfacet
  facet normal -0.773014 -0.634389 0
    outer loop
      vertex 0.674121 1.77772 0
      vertex 1.17157 1.17157 3
      vertex 0.674121 1.77772 3
    endloop
  endfacet
  facet normal -0.634389 -0.773014 0
    outer loop
      vertex 1.77772 0.674121 0
      vertex 1.17157 1.17157 3
      vertex 1.17157 1.17157 0
    endloop
  endfacet
  facet normal 0.957161 -0.289558 0
    outer loop
      vertex 101.923 3.21964 0
      vertex 101.923 3.21964 3
      vertex 101.696 2.46927 0
    endloop
  endfacet
  facet normal -0.290259 0.956948 0
    outer loop
      vertex 3.21964 71.3231 0
      vertex 2.46927 71.0955 0
      vertex 3.21964 71.3231 3
    endloop
  endfacet
  facet normal -0.881937 0.471368 0
    outer loop
      vertex 0.674121 69.6223 0
      vertex 0.304482 68.9307 0
      vertex 0.674121 69.6223 3
    endloop
  endfacet
  facet normal 0 0 -1
    outer loop
      vertex 0.0768585 3.21964 0
      vertex 101.326 69.6223 0
      vertex 0.304482 2.46927 0
    endloop
  endfacet
  facet normal 0.290311 -0.956932 0
    outer loop
      vertex 98.7804 0.0768585 3
      vertex 99.5307 0.304482 0
      vertex 99.5307 0.304482 3
    endloop
  endfacet
  facet normal 0.881745 0.471726 -0
    outer loop
      vertex 101.326 69.6223 0
      vertex 101.326 69.6223 3
      vertex 101.696 68.9307 0
    endloop
  endfacet
  facet normal 0 -0 1
    outer loop
      vertex 4 0 3
      vertex 101.326 69.6223 3
      vertex 3.21964 0.0768585 3
    endloop
  endfacet
  facet normal 0 -0 1
    outer loop
      vertex 2.46927 0.304482 3
      vertex 101.326 69.6223 3
      vertex 1.77772 0.674121 3
    endloop
  endfacet
  facet normal -0.634428 0.772982 0
    outer loop
      vertex 1.77772 70.7259 0
      vertex 1.17157 70.2284 3
      vertex 1.77772 70.7259 3
    endloop
  endfacet
  facet normal -0.634428 0.772982 0
    outer loop
      vertex 1.17157 70.2284 0
      vertex 1.17157 70.2284 3
      vertex 1.77772 70.7259 0
    endloop
  endfacet
  facet normal 0 0 -1
    outer loop
      vertex 0 67.4 0
      vertex 101.326 69.6223 0
      vertex 0 4 0
    endloop
  endfacet
  facet normal 0 0 -1
    outer loop
      vertex 102 67.4 0
      vertex 101.326 69.6223 0
      vertex 101.923 68.1804 0
    endloop
  endfacet
  facet normal 0.634522 0.772905 0
    outer loop
      vertex 100.828 70.2284 3
      vertex 100.828 70.2284 0
      vertex 100.222 70.7259 3
    endloop
  endfacet
  facet normal -0 -0 -1
    outer loop
      vertex 98 71.4 0
      vertex 101.326 69.6223 0
      vertex 4 71.4 0
    endloop
  endfacet
  facet normal 0.995167 -0.0981955 0
    outer loop
      vertex 102 4 3
      vertex 101.923 3.21964 3
      vertex 102 4 0
    endloop
  endfacet
  facet normal 0 0 1
    outer loop
      vertex 101.696 2.46927 3
      vertex 101.326 69.6223 3
      vertex 101.326 1.77772 3
    endloop
  endfacet
  facet normal -0 0 1
    outer loop
      vertex 3.21964 71.3231 3
      vertex 101.326 69.6223 3
      vertex 4 71.4 3
    endloop
  endfacet
  facet normal 0 0 1
    outer loop
      vertex 102 4 3
      vertex 101.326 69.6223 3
      vertex 101.923 3.21964 3
    endloop
  endfacet
  facet normal 0 0 -1
    outer loop
      vertex 0.674121 1.77772 0
      vertex 101.326 69.6223 0
      vertex 1.17157 1.17157 0
    endloop
  endfacet
  facet normal 0.290311 -0.956932 0
    outer loop
      vertex 98.7804 0.0768585 0
      vertex 99.5307 0.304482 0
      vertex 98.7804 0.0768585 3
    endloop
  endfacet
  facet normal 0 0 1
    outer loop
      vertex 101.923 68.1804 3
      vertex 101.326 69.6223 3
      vertex 102 67.4 3
    endloop
  endfacet
  facet normal 0.0980118 -0.995185 0
    outer loop
      vertex 98.7804 0.0768585 0
      vertex 98.7804 0.0768585 3
      vertex 98 0 0
    endloop
  endfacet
  facet normal 0.995167 -0.0981955 0
    outer loop
      vertex 102 4 0
      vertex 101.923 3.21964 3
      vertex 101.923 3.21964 0
    endloop
  endfacet
  facet normal 0.957161 -0.289558 0
    outer loop
      vertex 101.696 2.46927 0
      vertex 101.923 3.21964 3
      vertex 101.696 2.46927 3
    endloop
  endfacet
  facet normal 0 -0 -1
    outer loop
      vertex 0.0768585 68.1804 0
      vertex 101.326 69.6223 0
      vertex 0 67.4 0
    endloop
  endfacet
  facet normal 0 0 -1
    outer loop
      vertex 0.304482 2.46927 0
      vertex 101.326 69.6223 0
      vertex 0.674121 1.77772 0
    endloop
  endfacet
  facet normal 0 -0 1
    outer loop
      vertex 1.17157 1.17157 3
      vertex 101.326 69.6223 3
      vertex 0.674121 1.77772 3
    endloop
  endfacet
  facet normal -0.995185 0.0980118 0
    outer loop
      vertex 0 67.4 0
      vertex 0.0768585 68.1804 3
      vertex 0.0768585 68.1804 0
    endloop
  endfacet
  facet normal 0 -0 -1
    outer loop
      vertex 2.46927 71.0955 0
      vertex 101.326 69.6223 0
      vertex 1.77772 70.7259 0
    endloop
  endfacet
  facet normal 0 -0 -1
    outer loop
      vertex 3.21964 71.3231 0
      vertex 101.326 69.6223 0
      vertex 2.46927 71.0955 0
    endloop
  endfacet
  facet normal -0.471356 0.881943 0
    outer loop
      vertex 2.46927 71.0955 3
      vertex 2.46927 71.0955 0
      vertex 1.77772 70.7259 3
    endloop
  endfacet
  facet normal -0.290259 0.956948 0
    outer loop
      vertex 3.21964 71.3231 3
      vertex 2.46927 71.0955 0
      vertex 2.46927 71.0955 3
    endloop
  endfacet
  facet normal 0 -0 1
    outer loop
      vertex 0.304482 2.46927 3
      vertex 101.326 69.6223 3
      vertex 0.0768585 3.21964 3
    endloop
  endfacet
  facet normal 0 0 1
    outer loop
      vertex 0 4 3
      vertex 101.326 69.6223 3
      vertex 0 67.4 3
    endloop
  endfacet
  facet normal 0 0 1
    outer loop
      vertex 0.0768585 68.1804 3
      vertex 101.326 69.6223 3
      vertex 0.304482 68.9307 3
    endloop
  endfacet
  facet normal 0 0 1
    outer loop
      vertex 0 67.4 3
      vertex 101.326 69.6223 3
      vertex 0.0768585 68.1804 3
    endloop
  endfacet
  facet normal 0 0 -1
    outer loop
      vertex 98.7804 0.0768585 0
      vertex 101.326 69.6223 0
      vertex 99.5307 0.304482 0
    endloop
  endfacet
  facet normal 0 0 -1
    outer loop
      vertex 99.5307 0.304482 0
      vertex 101.326 69.6223 0
      vertex 100.222 0.674121 0
    endloop
  endfacet
  facet normal 0 -0 1
    outer loop
      vertex 1.77772 0.674121 3
      vertex 101.326 69.6223 3
      vertex 1.17157 1.17157 3
    endloop
  endfacet
  facet normal 0.471527 -0.881852 0
    outer loop
      vertex 99.5307 0.304482 0
      vertex 100.222 0.674121 3
      vertex 99.5307 0.304482 3
    endloop
  endfacet
  facet normal 0 0 -1
    outer loop
      vertex 100.828 1.17157 0
      vertex 101.326 69.6223 0
      vertex 101.326 1.77772 0
    endloop
  endfacet
  facet normal 0 0 -1
    outer loop
      vertex 102 4 0
      vertex 101.326 69.6223 0
      vertex 102 67.4 0
    endloop
  endfacet
  facet normal 0.881745 0.471726 -0
    outer loop
      vertex 101.696 68.9307 0
      vertex 101.326 69.6223 3
      vertex 101.696 68.9307 3
    endloop
  endfacet
  facet normal 0.772644 0.63484 0
    outer loop
      vertex 100.828 70.2284 3
      vertex 101.326 69.6223 3
      vertex 100.828 70.2284 0
    endloop
  endfacet
  facet normal 0 -0 1
    outer loop
      vertex 3.21964 0.0768585 3
      vertex 101.326 69.6223 3
      vertex 2.46927 0.304482 3
    endloop
  endfacet
  facet normal 0 -0 1
    outer loop
      vertex 98 0 3
      vertex 101.326 69.6223 3
      vertex 4 0 3
    endloop
  endfacet
  facet normal 0.881731 -0.471753 0
    outer loop
      vertex 101.326 1.77772 3
      vertex 101.696 2.46927 0
      vertex 101.696 2.46927 3
    endloop
  endfacet
  facet normal 0.881731 -0.471753 0
    outer loop
      vertex 101.326 1.77772 0
      vertex 101.696 2.46927 0
      vertex 101.326 1.77772 3
    endloop
  endfacet
  facet normal 0 0 1
    outer loop
      vertex 101.696 68.9307 3
      vertex 101.326 69.6223 3
      vertex 101.923 68.1804 3
    endloop
  endfacet
  facet normal 0 0 1
    outer loop
      vertex 102 67.4 3
      vertex 101.326 69.6223 3
      vertex 102 4 3
    endloop
  endfacet
  facet normal 0 0 -1
    outer loop
      vertex 98 0 0
      vertex 101.326 69.6223 0
      vertex 98.7804 0.0768585 0
    endloop
  endfacet
  facet normal 0 0 -1
    outer loop
      vertex 1.77772 0.674121 0
      vertex 101.326 69.6223 0
      vertex 2.46927 0.304482 0
    endloop
  endfacet
  facet normal 0 0 1
    outer loop
      vertex 0.674121 69.6223 3
      vertex 101.326 69.6223 3
      vertex 1.17157 70.2284 3
    endloop
  endfacet
  facet normal 0 0 -1
    outer loop
      vertex 101.923 68.1804 0
      vertex 101.326 69.6223 0
      vertex 101.696 68.9307 0
    endloop
  endfacet
  facet normal 0 0 1
    outer loop
      vertex 98.7804 71.3231 3
      vertex 101.326 69.6223 3
      vertex 99.5307 71.0955 3
    endloop
  endfacet
  facet normal -0 0 1
    outer loop
      vertex 4 71.4 3
      vertex 101.326 69.6223 3
      vertex 98 71.4 3
    endloop
  endfacet
  facet normal -0 -0 -1
    outer loop
      vertex 100.828 70.2284 0
      vertex 101.326 69.6223 0
      vertex 100.222 70.7259 0
    endloop
  endfacet
  facet normal -0 -0 -1
    outer loop
      vertex 100.222 70.7259 0
      vertex 101.326 69.6223 0
      vertex 99.5307 71.0955 0
    endloop
  endfacet
  facet normal 0 0 -1
    outer loop
      vertex 101.923 3.21964 0
      vertex 101.326 69.6223 0
      vertex 102 4 0
    endloop
  endfacet
  facet normal -0.471356 0.881943 0
    outer loop
      vertex 1.77772 70.7259 3
      vertex 2.46927 71.0955 0
      vertex 1.77772 70.7259 0
    endloop
  endfacet
  facet normal 0 -0 1
    outer loop
      vertex 99.5307 0.304482 3
      vertex 101.326 69.6223 3
      vertex 98.7804 0.0768585 3
    endloop
  endfacet
  facet normal 0 -0 1
    outer loop
      vertex 100.828 1.17157 3
      vertex 101.326 69.6223 3
      vertex 100.222 0.674121 3
    endloop
  endfacet
  facet normal 0 0 -1
    outer loop
      vertex 101.696 2.46927 0
      vertex 101.326 69.6223 0
      vertex 101.923 3.21964 0
    endloop
  endfacet
  facet normal 0 0 -1
    outer loop
      vertex 101.326 1.77772 0
      vertex 101.326 69.6223 0
      vertex 101.696 2.46927 0
    endloop
  endfacet
  facet normal -0 0 1
    outer loop
      vertex 2.46927 71.0955 3
      vertex 101.326 69.6223 3
      vertex 3.21964 71.3231 3
    endloop
  endfacet
  facet normal -0 0 1
    outer loop
      vertex 1.77772 70.7259 3
      vertex 101.326 69.6223 3
      vertex 2.46927 71.0955 3
    endloop
  endfacet
endsolid OpenSCAD_Model
