ISO-10303-21;
HEADER;
/* Generated by software containing ST-Developer
 * from STEP Tools, Inc. (www.steptools.com) 
 */

FILE_DESCRIPTION(
/* description */ (''),
/* implementation_level */ '2;1');

FILE_NAME(
/* name */ '4_Roller_Drum.step',
/* time_stamp */ '2025-10-20T20:35:17-07:00',
/* author */ (''),
/* organization */ (''),
/* preprocessor_version */ 'ST-DEVELOPER v20.1',
/* originating_system */ 'Autodesk Translation Framework v14.17.0.0',
/* authorisation */ '');

FILE_SCHEMA (('AUTOMOTIVE_DESIGN { 1 0 10303 214 3 1 1 }'));
ENDSEC;

DATA;
#10=MECHANICAL_DESIGN_GEOMETRIC_PRESENTATION_REPRESENTATION('',(#13),#1486);
#11=SHAPE_REPRESENTATION_RELATIONSHIP('SRR','None',#1493,#12);
#12=ADVANCED_BREP_SHAPE_REPRESENTATION('',(#14),#1485);
#13=STYLED_ITEM('',(#1502),#14);
#14=MANIFOLD_SOLID_BREP('MeshBody1',#760);
#15=FACE_BOUND('',#137,.T.);
#16=FACE_BOUND('',#139,.T.);
#17=FACE_BOUND('',#147,.T.);
#18=FACE_BOUND('',#149,.T.);
#19=FACE_BOUND('',#151,.T.);
#20=CYLINDRICAL_SURFACE('',#820,3.19999993060904);
#21=CYLINDRICAL_SURFACE('',#823,6.00000008466859);
#22=CYLINDRICAL_SURFACE('',#826,1.99999987554614);
#23=CYLINDRICAL_SURFACE('',#828,3.19999993060905);
#24=CYLINDRICAL_SURFACE('',#830,17.9999999106464);
#25=CIRCLE('',#776,2.50000020236075);
#26=CIRCLE('',#777,2.70000011887804);
#27=CIRCLE('',#778,2.50000020236075);
#28=CIRCLE('',#779,2.70000011887804);
#29=CIRCLE('',#780,2.50000020236075);
#30=CIRCLE('',#781,2.70000011887804);
#31=CIRCLE('',#782,2.50000020236075);
#32=CIRCLE('',#783,2.70000011887804);
#33=CIRCLE('',#784,2.50000020236075);
#34=CIRCLE('',#798,1.99999987554614);
#35=CIRCLE('',#800,1.99999987554614);
#36=CIRCLE('',#803,1.99999987554614);
#37=CIRCLE('',#805,1.99999987554614);
#38=CIRCLE('',#807,1.99999987554614);
#39=CIRCLE('',#810,1.99999987554614);
#40=CIRCLE('',#813,1.99999987554614);
#41=CIRCLE('',#815,1.99999987554614);
#42=CIRCLE('',#817,17.0000001797788);
#43=CIRCLE('',#819,17.0000001832525);
#44=CIRCLE('',#821,3.19999993060904);
#45=CIRCLE('',#822,3.19999993060904);
#46=CIRCLE('',#824,6.00000008466868);
#47=CIRCLE('',#825,6.00000008466868);
#48=CIRCLE('',#827,1.99999987554614);
#49=CIRCLE('',#829,3.19999993060905);
#50=B_SPLINE_CURVE_WITH_KNOTS('',3,(#1073,#1074,#1075,#1076,#1077,#1078,
#1079,#1080,#1081,#1082,#1083,#1084,#1085,#1086,#1087,#1088,#1089,#1090),
 .UNSPECIFIED.,.F.,.F.,(4,2,2,2,2,2,2,2,4),(-14.4647664917821,-13.862067604416,
-13.2593687170499,-12.6566698296839,-12.0539709423178,-11.4512722154193,
-10.8485734885207,-10.2458747616222,-9.64317603472359),.UNSPECIFIED.);
#51=B_SPLINE_CURVE_WITH_KNOTS('',3,(#1092,#1093,#1094,#1095,#1096,#1097,
#1098,#1099,#1100,#1101,#1102,#1103,#1104,#1105,#1106,#1107,#1108,#1109),
 .UNSPECIFIED.,.F.,.F.,(4,2,2,2,2,2,2,2,4),(1.6001753071917E-6,0.602700210714577,
1.20539882125384,1.80809743179311,2.41079604233237,3.01349482513578,3.61619360793919,
4.2188923907426,4.821591173546),.UNSPECIFIED.);
#52=B_SPLINE_CURVE_WITH_KNOTS('',3,(#1110,#1111,#1112,#1113,#1114,#1115,
#1116,#1117,#1118,#1119,#1120,#1121,#1122,#1123,#1124,#1125,#1126,#1127,
#1128,#1129,#1130,#1131,#1132,#1133,#1134,#1135,#1136,#1137,#1138,#1139,
#1140,#1141,#1142,#1143),.UNSPECIFIED.,.F.,.F.,(4,2,2,2,2,2,2,2,2,2,2,2,
2,2,2,2,4),(-9.64317603472359,-9.04047743930125,-8.43777884387891,-7.83508024845656,
-7.23238165303422,-6.62968322987626,-6.0269848067183,-5.42428638356034,
-4.82158796040238,-4.21888954558594,-3.61619113076949,-3.01349271595305,
-2.4107943011366,-1.80809572585245,-1.2053971505683,-0.602698575284151,
0.),.UNSPECIFIED.);
#53=B_SPLINE_CURVE_WITH_KNOTS('',3,(#1274,#1275,#1276,#1277,#1278,#1279,
#1280,#1281,#1282,#1283,#1284,#1285,#1286,#1287,#1288,#1289,#1290,#1291,
#1292,#1293,#1294,#1295,#1296,#1297,#1298,#1299,#1300,#1301,#1302,#1303,
#1304,#1305,#1306,#1307),.UNSPECIFIED.,.F.,.F.,(4,2,2,2,2,2,2,2,2,2,2,2,
2,2,2,2,4),(108.48576835245,111.875947577804,115.266126803157,118.656306028511,
122.046485253864,125.436664907507,128.826844561151,132.217024214794,135.607203868437,
138.99738430616,142.387564743882,145.777745181605,149.167925619328,152.558106737616,
155.948287855904,159.338468974193,162.728650092481),.UNSPECIFIED.);
#54=B_SPLINE_CURVE_WITH_KNOTS('',3,(#1309,#1310,#1311,#1312,#1313,#1314,
#1315,#1316,#1317,#1318,#1319,#1320,#1321,#1322,#1323,#1324,#1325,#1326),
 .UNSPECIFIED.,.F.,.F.,(4,2,2,2,2,2,2,2,4),(81.3643304002683,84.7545103329181,
88.1446902655679,91.5348701982177,94.9250501308675,98.3152293829512,101.705408635035,
105.095587887119,108.485767139202),.UNSPECIFIED.);
#55=B_SPLINE_CURVE_WITH_KNOTS('',3,(#1327,#1328,#1329,#1330,#1331,#1332,
#1333,#1334,#1335,#1336,#1337,#1338,#1339,#1340,#1341,#1342,#1343,#1344),
 .UNSPECIFIED.,.F.,.F.,(4,2,2,2,2,2,2,2,4),(162.728650092481,166.118830822715,
169.509011552948,172.899192283182,176.289373013416,179.67955331536,183.069733617304,
186.459913919248,189.850094221193),.UNSPECIFIED.);
#56=B_SPLINE_CURVE_WITH_KNOTS('',3,(#1351,#1352,#1353,#1354,#1355,#1356,
#1357,#1358,#1359,#1360,#1361,#1362,#1363,#1364,#1365,#1366,#1367,#1368,
#1369,#1370,#1371,#1372,#1373,#1374,#1375,#1376,#1377,#1378,#1379,#1380,
#1381,#1382,#1383,#1384,#1385,#1386,#1387,#1388,#1389,#1390,#1391,#1392,
#1393,#1394,#1395,#1396,#1397,#1398,#1399,#1400,#1401),.UNSPECIFIED.,.F.,
 .F.,(4,2,2,2,2,2,2,2,3,2,2,2,2,2,2,2,2,2,2,2,2,2,2,2,4),(81.3643262643375,
84.754506474998,88.1446866856584,91.5348668963189,94.9250471069794,98.3152273176399,
101.7054075283,105.095587738961,108.485767949621,111.875948160282,115.266128370942,
118.656308581603,122.046488792263,125.436669002924,128.826849213584,132.217029424245,
135.607209634905,138.997389845565,142.387570056226,145.777750266886,149.167930477547,
152.558110688207,155.948290898868,159.338471109528,162.728651320189),
 .UNSPECIFIED.);
#57=B_SPLINE_CURVE_WITH_KNOTS('',3,(#1402,#1403,#1404,#1405,#1406,#1407,
#1408,#1409,#1410,#1411,#1412,#1413,#1414,#1415,#1416,#1417,#1418,#1419),
 .UNSPECIFIED.,.F.,.F.,(4,2,2,2,2,2,2,2,4),(162.728652528675,166.118832689541,
169.509012850407,172.899193011273,176.289373172139,179.679553333005,183.069733493871,
186.459913654737,189.850093815602),.UNSPECIFIED.);
#58=CONICAL_SURFACE('',#775,3.20012932410065,0.785397954690875);
#59=CONICAL_SURFACE('',#816,18.0000387883907,0.785398025103254);
#60=CONICAL_SURFACE('',#818,18.0000356290197,0.78539802078859);
#61=FACE_OUTER_BOUND('',#104,.T.);
#62=FACE_OUTER_BOUND('',#105,.T.);
#63=FACE_OUTER_BOUND('',#106,.T.);
#64=FACE_OUTER_BOUND('',#107,.T.);
#65=FACE_OUTER_BOUND('',#108,.T.);
#66=FACE_OUTER_BOUND('',#109,.T.);
#67=FACE_OUTER_BOUND('',#110,.T.);
#68=FACE_OUTER_BOUND('',#111,.T.);
#69=FACE_OUTER_BOUND('',#112,.T.);
#70=FACE_OUTER_BOUND('',#113,.T.);
#71=FACE_OUTER_BOUND('',#114,.T.);
#72=FACE_OUTER_BOUND('',#115,.T.);
#73=FACE_OUTER_BOUND('',#116,.T.);
#74=FACE_OUTER_BOUND('',#117,.T.);
#75=FACE_OUTER_BOUND('',#118,.T.);
#76=FACE_OUTER_BOUND('',#119,.T.);
#77=FACE_OUTER_BOUND('',#120,.T.);
#78=FACE_OUTER_BOUND('',#121,.T.);
#79=FACE_OUTER_BOUND('',#122,.T.);
#80=FACE_OUTER_BOUND('',#123,.T.);
#81=FACE_OUTER_BOUND('',#124,.T.);
#82=FACE_OUTER_BOUND('',#125,.T.);
#83=FACE_OUTER_BOUND('',#126,.T.);
#84=FACE_OUTER_BOUND('',#127,.T.);
#85=FACE_OUTER_BOUND('',#128,.T.);
#86=FACE_OUTER_BOUND('',#129,.T.);
#87=FACE_OUTER_BOUND('',#130,.T.);
#88=FACE_OUTER_BOUND('',#131,.T.);
#89=FACE_OUTER_BOUND('',#132,.T.);
#90=FACE_OUTER_BOUND('',#133,.T.);
#91=FACE_OUTER_BOUND('',#134,.T.);
#92=FACE_OUTER_BOUND('',#135,.T.);
#93=FACE_OUTER_BOUND('',#136,.T.);
#94=FACE_OUTER_BOUND('',#138,.T.);
#95=FACE_OUTER_BOUND('',#140,.T.);
#96=FACE_OUTER_BOUND('',#141,.T.);
#97=FACE_OUTER_BOUND('',#142,.T.);
#98=FACE_OUTER_BOUND('',#143,.T.);
#99=FACE_OUTER_BOUND('',#144,.T.);
#100=FACE_OUTER_BOUND('',#145,.T.);
#101=FACE_OUTER_BOUND('',#146,.T.);
#102=FACE_OUTER_BOUND('',#148,.T.);
#103=FACE_OUTER_BOUND('',#150,.T.);
#104=EDGE_LOOP('',(#468,#469,#470,#471,#472,#473,#474,#475,#476));
#105=EDGE_LOOP('',(#477,#478,#479,#480,#481,#482,#483,#484,#485,#486,#487,
#488,#489,#490,#491,#492,#493,#494,#495,#496,#497,#498));
#106=EDGE_LOOP('',(#499,#500,#501,#502,#503,#504,#505,#506,#507));
#107=EDGE_LOOP('',(#508,#509,#510,#511,#512,#513,#514,#515,#516));
#108=EDGE_LOOP('',(#517,#518,#519,#520));
#109=EDGE_LOOP('',(#521,#522,#523,#524));
#110=EDGE_LOOP('',(#525,#526,#527,#528,#529,#530,#531,#532,#533));
#111=EDGE_LOOP('',(#534,#535,#536,#537));
#112=EDGE_LOOP('',(#538,#539,#540,#541,#542));
#113=EDGE_LOOP('',(#543,#544,#545,#546,#547));
#114=EDGE_LOOP('',(#548,#549));
#115=EDGE_LOOP('',(#550,#551));
#116=EDGE_LOOP('',(#552,#553));
#117=EDGE_LOOP('',(#554,#555));
#118=EDGE_LOOP('',(#556,#557,#558));
#119=EDGE_LOOP('',(#559,#560,#561));
#120=EDGE_LOOP('',(#562,#563,#564,#565,#566));
#121=EDGE_LOOP('',(#567,#568,#569));
#122=EDGE_LOOP('',(#570,#571,#572));
#123=EDGE_LOOP('',(#573,#574,#575));
#124=EDGE_LOOP('',(#576,#577,#578,#579,#580));
#125=EDGE_LOOP('',(#581,#582,#583));
#126=EDGE_LOOP('',(#584,#585,#586,#587,#588));
#127=EDGE_LOOP('',(#589,#590,#591));
#128=EDGE_LOOP('',(#592,#593,#594));
#129=EDGE_LOOP('',(#595,#596,#597,#598,#599,#600));
#130=EDGE_LOOP('',(#601,#602,#603,#604,#605));
#131=EDGE_LOOP('',(#606,#607,#608,#609));
#132=EDGE_LOOP('',(#610,#611,#612,#613));
#133=EDGE_LOOP('',(#614,#615,#616,#617,#618,#619,#620,#621,#622,#623,#624));
#134=EDGE_LOOP('',(#625,#626,#627,#628,#629,#630));
#135=EDGE_LOOP('',(#631,#632,#633,#634,#635,#636,#637));
#136=EDGE_LOOP('',(#638));
#137=EDGE_LOOP('',(#639,#640,#641,#642,#643,#644));
#138=EDGE_LOOP('',(#645,#646,#647,#648,#649,#650));
#139=EDGE_LOOP('',(#651));
#140=EDGE_LOOP('',(#652,#653,#654,#655));
#141=EDGE_LOOP('',(#656,#657,#658,#659));
#142=EDGE_LOOP('',(#660,#661,#662,#663));
#143=EDGE_LOOP('',(#664,#665,#666,#667));
#144=EDGE_LOOP('',(#668,#669,#670,#671));
#145=EDGE_LOOP('',(#672,#673,#674,#675));
#146=EDGE_LOOP('',(#676));
#147=EDGE_LOOP('',(#677));
#148=EDGE_LOOP('',(#678));
#149=EDGE_LOOP('',(#679));
#150=EDGE_LOOP('',(#680));
#151=EDGE_LOOP('',(#681));
#152=(
BOUNDED_CURVE()
B_SPLINE_CURVE(2,(#1052,#1053,#1054),.UNSPECIFIED.,.F.,.F.)
B_SPLINE_CURVE_WITH_KNOTS((3,3),(0.,0.0375998992117804),.UNSPECIFIED.)
CURVE()
GEOMETRIC_REPRESENTATION_ITEM()
RATIONAL_B_SPLINE_CURVE((1.,1.00215463641536,1.00065566238605))
REPRESENTATION_ITEM('')
);
#153=(
BOUNDED_CURVE()
B_SPLINE_CURVE(2,(#1058,#1059,#1060),.UNSPECIFIED.,.F.,.F.)
B_SPLINE_CURVE_WITH_KNOTS((3,3),(0.0067477505966988,0.0443474274461075),
 .UNSPECIFIED.)
CURVE()
GEOMETRIC_REPRESENTATION_ITEM()
RATIONAL_B_SPLINE_CURVE((1.00065568009095,1.0021546235923,1.))
REPRESENTATION_ITEM('')
);
#154=(
BOUNDED_CURVE()
B_SPLINE_CURVE(2,(#1149,#1150,#1151),.UNSPECIFIED.,.F.,.F.)
B_SPLINE_CURVE_WITH_KNOTS((3,3),(0.00674752096829841,0.0443474359061435),
 .UNSPECIFIED.)
CURVE()
GEOMETRIC_REPRESENTATION_ITEM()
RATIONAL_B_SPLINE_CURVE((1.00065566197906,1.00215463780914,1.))
REPRESENTATION_ITEM('')
);
#155=(
BOUNDED_CURVE()
B_SPLINE_CURVE(2,(#1155,#1156,#1157),.UNSPECIFIED.,.F.,.F.)
B_SPLINE_CURVE_WITH_KNOTS((3,3),(0.,0.0375996774892592),.UNSPECIFIED.)
CURVE()
GEOMETRIC_REPRESENTATION_ITEM()
RATIONAL_B_SPLINE_CURVE((1.,1.00215462418908,1.00065568090736))
REPRESENTATION_ITEM('')
);
#156=(
BOUNDED_CURVE()
B_SPLINE_CURVE(2,(#1163,#1164,#1165),.UNSPECIFIED.,.F.,.F.)
B_SPLINE_CURVE_WITH_KNOTS((3,3),(0.00630920635612147,0.0415605273307992),
 .UNSPECIFIED.)
CURVE()
GEOMETRIC_REPRESENTATION_ITEM()
RATIONAL_B_SPLINE_CURVE((1.0014793813715,1.00528460669556,1.00542864399553))
REPRESENTATION_ITEM('')
);
#157=(
BOUNDED_CURVE()
B_SPLINE_CURVE(2,(#1169,#1170,#1171),.UNSPECIFIED.,.F.,.F.)
B_SPLINE_CURVE_WITH_KNOTS((3,3),(0.0443344429303691,0.0795857630290412),
 .UNSPECIFIED.)
CURVE()
GEOMETRIC_REPRESENTATION_ITEM()
RATIONAL_B_SPLINE_CURVE((1.00542864216437,1.00528458170919,1.0014793334178))
REPRESENTATION_ITEM('')
);
#158=(
BOUNDED_CURVE()
B_SPLINE_CURVE(2,(#1175,#1176,#1177),.UNSPECIFIED.,.F.,.F.)
B_SPLINE_CURVE_WITH_KNOTS((3,3),(0.00674751420574822,0.0443474943518414),
 .UNSPECIFIED.)
CURVE()
GEOMETRIC_REPRESENTATION_ITEM()
RATIONAL_B_SPLINE_CURVE((1.00065566178472,1.00215464216953,1.))
REPRESENTATION_ITEM('')
);
#159=(
BOUNDED_CURVE()
B_SPLINE_CURVE(2,(#1181,#1182,#1183),.UNSPECIFIED.,.F.,.F.)
B_SPLINE_CURVE_WITH_KNOTS((3,3),(0.,0.0375997577839819),.UNSPECIFIED.)
CURVE()
GEOMETRIC_REPRESENTATION_ITEM()
RATIONAL_B_SPLINE_CURVE((1.,1.00215462940964,1.00065567950885))
REPRESENTATION_ITEM('')
);
#160=LINE('',#1050,#226);
#161=LINE('',#1056,#227);
#162=LINE('',#1062,#228);
#163=LINE('',#1064,#229);
#164=LINE('',#1066,#230);
#165=LINE('',#1068,#231);
#166=LINE('',#1069,#232);
#167=LINE('',#1145,#233);
#168=LINE('',#1187,#234);
#169=LINE('',#1188,#235);
#170=LINE('',#1190,#236);
#171=LINE('',#1192,#237);
#172=LINE('',#1194,#238);
#173=LINE('',#1196,#239);
#174=LINE('',#1197,#240);
#175=LINE('',#1200,#241);
#176=LINE('',#1201,#242);
#177=LINE('',#1203,#243);
#178=LINE('',#1205,#244);
#179=LINE('',#1207,#245);
#180=LINE('',#1209,#246);
#181=LINE('',#1210,#247);
#182=LINE('',#1213,#248);
#183=LINE('',#1214,#249);
#184=LINE('',#1217,#250);
#185=LINE('',#1218,#251);
#186=LINE('',#1221,#252);
#187=LINE('',#1223,#253);
#188=LINE('',#1225,#254);
#189=LINE('',#1226,#255);
#190=LINE('',#1227,#256);
#191=LINE('',#1229,#257);
#192=LINE('',#1231,#258);
#193=LINE('',#1234,#259);
#194=LINE('',#1235,#260);
#195=LINE('',#1242,#261);
#196=LINE('',#1247,#262);
#197=LINE('',#1254,#263);
#198=LINE('',#1257,#264);
#199=LINE('',#1262,#265);
#200=LINE('',#1263,#266);
#201=LINE('',#1272,#267);
#202=LINE('',#1349,#268);
#203=LINE('',#1424,#269);
#204=LINE('',#1430,#270);
#205=LINE('',#1434,#271);
#206=LINE('',#1438,#272);
#207=LINE('',#1441,#273);
#208=LINE('',#1445,#274);
#209=LINE('',#1447,#275);
#210=LINE('',#1449,#276);
#211=LINE('',#1451,#277);
#212=LINE('',#1453,#278);
#213=LINE('',#1454,#279);
#214=LINE('',#1458,#280);
#215=LINE('',#1460,#281);
#216=LINE('',#1462,#282);
#217=LINE('',#1464,#283);
#218=LINE('',#1466,#284);
#219=LINE('',#1467,#285);
#220=LINE('',#1469,#286);
#221=LINE('',#1470,#287);
#222=LINE('',#1472,#288);
#223=LINE('',#1474,#289);
#224=LINE('',#1476,#290);
#225=LINE('',#1478,#291);
#226=VECTOR('',#846,10.);
#227=VECTOR('',#847,10.);
#228=VECTOR('',#848,10.);
#229=VECTOR('',#849,10.);
#230=VECTOR('',#850,10.);
#231=VECTOR('',#851,10.);
#232=VECTOR('',#852,10.);
#233=VECTOR('',#855,1.);
#234=VECTOR('',#876,10.);
#235=VECTOR('',#877,10.);
#236=VECTOR('',#878,10.);
#237=VECTOR('',#879,10.);
#238=VECTOR('',#880,10.);
#239=VECTOR('',#881,10.);
#240=VECTOR('',#882,10.);
#241=VECTOR('',#885,10.);
#242=VECTOR('',#886,10.);
#243=VECTOR('',#887,10.);
#244=VECTOR('',#888,10.);
#245=VECTOR('',#889,10.);
#246=VECTOR('',#890,10.);
#247=VECTOR('',#891,10.);
#248=VECTOR('',#894,10.);
#249=VECTOR('',#895,10.);
#250=VECTOR('',#898,10.);
#251=VECTOR('',#899,10.);
#252=VECTOR('',#902,10.);
#253=VECTOR('',#903,10.);
#254=VECTOR('',#904,10.);
#255=VECTOR('',#905,10.);
#256=VECTOR('',#906,10.);
#257=VECTOR('',#909,10.);
#258=VECTOR('',#912,10.);
#259=VECTOR('',#915,10.);
#260=VECTOR('',#916,10.);
#261=VECTOR('',#927,10.);
#262=VECTOR('',#936,10.);
#263=VECTOR('',#947,10.);
#264=VECTOR('',#952,10.);
#265=VECTOR('',#959,10.);
#266=VECTOR('',#960,10.);
#267=VECTOR('',#973,1.);
#268=VECTOR('',#978,1.);
#269=VECTOR('',#983,1.);
#270=VECTOR('',#990,1.);
#271=VECTOR('',#995,1.);
#272=VECTOR('',#1000,1.);
#273=VECTOR('',#1005,1.);
#274=VECTOR('',#1008,1.);
#275=VECTOR('',#1009,1.);
#276=VECTOR('',#1010,1.);
#277=VECTOR('',#1011,1.);
#278=VECTOR('',#1012,1.);
#279=VECTOR('',#1013,1.);
#280=VECTOR('',#1016,1.);
#281=VECTOR('',#1017,1.);
#282=VECTOR('',#1018,1.);
#283=VECTOR('',#1019,1.);
#284=VECTOR('',#1020,1.);
#285=VECTOR('',#1021,1.);
#286=VECTOR('',#1024,1.);
#287=VECTOR('',#1025,1.);
#288=VECTOR('',#1028,1.);
#289=VECTOR('',#1031,1.);
#290=VECTOR('',#1034,1.);
#291=VECTOR('',#1037,1.);
#292=VERTEX_POINT('',#1048);
#293=VERTEX_POINT('',#1049);
#294=VERTEX_POINT('',#1051);
#295=VERTEX_POINT('',#1055);
#296=VERTEX_POINT('',#1057);
#297=VERTEX_POINT('',#1061);
#298=VERTEX_POINT('',#1063);
#299=VERTEX_POINT('',#1065);
#300=VERTEX_POINT('',#1067);
#301=VERTEX_POINT('',#1071);
#302=VERTEX_POINT('',#1072);
#303=VERTEX_POINT('',#1091);
#304=VERTEX_POINT('',#1144);
#305=VERTEX_POINT('',#1146);
#306=VERTEX_POINT('',#1148);
#307=VERTEX_POINT('',#1152);
#308=VERTEX_POINT('',#1154);
#309=VERTEX_POINT('',#1160);
#310=VERTEX_POINT('',#1162);
#311=VERTEX_POINT('',#1166);
#312=VERTEX_POINT('',#1168);
#313=VERTEX_POINT('',#1172);
#314=VERTEX_POINT('',#1174);
#315=VERTEX_POINT('',#1178);
#316=VERTEX_POINT('',#1180);
#317=VERTEX_POINT('',#1186);
#318=VERTEX_POINT('',#1189);
#319=VERTEX_POINT('',#1191);
#320=VERTEX_POINT('',#1193);
#321=VERTEX_POINT('',#1195);
#322=VERTEX_POINT('',#1199);
#323=VERTEX_POINT('',#1202);
#324=VERTEX_POINT('',#1204);
#325=VERTEX_POINT('',#1206);
#326=VERTEX_POINT('',#1208);
#327=VERTEX_POINT('',#1212);
#328=VERTEX_POINT('',#1216);
#329=VERTEX_POINT('',#1220);
#330=VERTEX_POINT('',#1222);
#331=VERTEX_POINT('',#1224);
#332=VERTEX_POINT('',#1233);
#333=VERTEX_POINT('',#1241);
#334=VERTEX_POINT('',#1253);
#335=VERTEX_POINT('',#1261);
#336=VERTEX_POINT('',#1269);
#337=VERTEX_POINT('',#1271);
#338=VERTEX_POINT('',#1273);
#339=VERTEX_POINT('',#1308);
#340=VERTEX_POINT('',#1346);
#341=VERTEX_POINT('',#1348);
#342=VERTEX_POINT('',#1350);
#343=VERTEX_POINT('',#1421);
#344=VERTEX_POINT('',#1423);
#345=VERTEX_POINT('',#1427);
#346=VERTEX_POINT('',#1429);
#347=VERTEX_POINT('',#1433);
#348=VERTEX_POINT('',#1437);
#349=VERTEX_POINT('',#1443);
#350=VERTEX_POINT('',#1444);
#351=VERTEX_POINT('',#1446);
#352=VERTEX_POINT('',#1448);
#353=VERTEX_POINT('',#1450);
#354=VERTEX_POINT('',#1452);
#355=VERTEX_POINT('',#1456);
#356=VERTEX_POINT('',#1457);
#357=VERTEX_POINT('',#1459);
#358=VERTEX_POINT('',#1461);
#359=VERTEX_POINT('',#1463);
#360=VERTEX_POINT('',#1465);
#361=EDGE_CURVE('',#292,#293,#160,.T.);
#362=EDGE_CURVE('',#293,#294,#152,.T.);
#363=EDGE_CURVE('',#295,#294,#161,.T.);
#364=EDGE_CURVE('',#295,#296,#153,.T.);
#365=EDGE_CURVE('',#296,#297,#162,.T.);
#366=EDGE_CURVE('',#297,#298,#163,.T.);
#367=EDGE_CURVE('',#298,#299,#164,.T.);
#368=EDGE_CURVE('',#299,#300,#165,.T.);
#369=EDGE_CURVE('',#292,#300,#166,.T.);
#370=EDGE_CURVE('',#301,#302,#50,.T.);
#371=EDGE_CURVE('',#303,#301,#51,.T.);
#372=EDGE_CURVE('',#302,#303,#52,.T.);
#373=EDGE_CURVE('',#302,#304,#167,.T.);
#374=EDGE_CURVE('',#305,#304,#25,.T.);
#375=EDGE_CURVE('',#306,#305,#154,.T.);
#376=EDGE_CURVE('',#307,#306,#26,.T.);
#377=EDGE_CURVE('',#308,#307,#155,.T.);
#378=EDGE_CURVE('',#296,#308,#27,.T.);
#379=EDGE_CURVE('',#294,#295,#28,.T.);
#380=EDGE_CURVE('',#309,#293,#29,.T.);
#381=EDGE_CURVE('',#310,#309,#156,.T.);
#382=EDGE_CURVE('',#311,#310,#30,.T.);
#383=EDGE_CURVE('',#312,#311,#157,.T.);
#384=EDGE_CURVE('',#313,#312,#31,.T.);
#385=EDGE_CURVE('',#314,#313,#158,.T.);
#386=EDGE_CURVE('',#315,#314,#32,.T.);
#387=EDGE_CURVE('',#316,#315,#159,.T.);
#388=EDGE_CURVE('',#304,#316,#33,.T.);
#389=EDGE_CURVE('',#317,#308,#168,.T.);
#390=EDGE_CURVE('',#306,#307,#169,.T.);
#391=EDGE_CURVE('',#305,#318,#170,.T.);
#392=EDGE_CURVE('',#318,#319,#171,.T.);
#393=EDGE_CURVE('',#319,#320,#172,.T.);
#394=EDGE_CURVE('',#320,#321,#173,.T.);
#395=EDGE_CURVE('',#317,#321,#174,.T.);
#396=EDGE_CURVE('',#322,#316,#175,.T.);
#397=EDGE_CURVE('',#314,#315,#176,.T.);
#398=EDGE_CURVE('',#313,#323,#177,.T.);
#399=EDGE_CURVE('',#323,#324,#178,.T.);
#400=EDGE_CURVE('',#324,#325,#179,.T.);
#401=EDGE_CURVE('',#325,#326,#180,.T.);
#402=EDGE_CURVE('',#322,#326,#181,.T.);
#403=EDGE_CURVE('',#327,#312,#182,.T.);
#404=EDGE_CURVE('',#323,#327,#183,.T.);
#405=EDGE_CURVE('',#328,#292,#184,.T.);
#406=EDGE_CURVE('',#309,#328,#185,.T.);
#407=EDGE_CURVE('',#328,#329,#186,.T.);
#408=EDGE_CURVE('',#329,#330,#187,.T.);
#409=EDGE_CURVE('',#330,#331,#188,.T.);
#410=EDGE_CURVE('',#327,#331,#189,.T.);
#411=EDGE_CURVE('',#310,#311,#190,.T.);
#412=EDGE_CURVE('',#297,#317,#191,.T.);
#413=EDGE_CURVE('',#318,#322,#192,.T.);
#414=EDGE_CURVE('',#331,#332,#193,.T.);
#415=EDGE_CURVE('',#332,#324,#194,.T.);
#416=EDGE_CURVE('',#333,#319,#195,.T.);
#417=EDGE_CURVE('',#320,#333,#34,.T.);
#418=EDGE_CURVE('',#325,#332,#35,.T.);
#419=EDGE_CURVE('',#326,#333,#196,.T.);
#420=EDGE_CURVE('',#333,#325,#36,.T.);
#421=EDGE_CURVE('',#332,#330,#37,.T.);
#422=EDGE_CURVE('',#334,#298,#197,.T.);
#423=EDGE_CURVE('',#299,#334,#38,.T.);
#424=EDGE_CURVE('',#321,#334,#198,.T.);
#425=EDGE_CURVE('',#334,#320,#39,.T.);
#426=EDGE_CURVE('',#300,#335,#199,.T.);
#427=EDGE_CURVE('',#335,#329,#200,.T.);
#428=EDGE_CURVE('',#335,#299,#40,.T.);
#429=EDGE_CURVE('',#330,#335,#41,.T.);
#430=EDGE_CURVE('',#336,#336,#42,.T.);
#431=EDGE_CURVE('',#336,#337,#201,.T.);
#432=EDGE_CURVE('',#338,#337,#53,.T.);
#433=EDGE_CURVE('',#339,#338,#54,.T.);
#434=EDGE_CURVE('',#337,#339,#55,.T.);
#435=EDGE_CURVE('',#340,#340,#43,.T.);
#436=EDGE_CURVE('',#340,#341,#202,.T.);
#437=EDGE_CURVE('',#342,#341,#56,.T.);
#438=EDGE_CURVE('',#341,#342,#57,.T.);
#439=EDGE_CURVE('',#343,#343,#44,.T.);
#440=EDGE_CURVE('',#343,#344,#203,.T.);
#441=EDGE_CURVE('',#344,#344,#45,.T.);
#442=EDGE_CURVE('',#345,#345,#46,.T.);
#443=EDGE_CURVE('',#345,#346,#204,.T.);
#444=EDGE_CURVE('',#346,#346,#47,.T.);
#445=EDGE_CURVE('',#333,#347,#205,.T.);
#446=EDGE_CURVE('',#347,#347,#48,.T.);
#447=EDGE_CURVE('',#303,#348,#206,.T.);
#448=EDGE_CURVE('',#348,#348,#49,.T.);
#449=EDGE_CURVE('',#341,#338,#207,.T.);
#450=EDGE_CURVE('',#349,#350,#208,.T.);
#451=EDGE_CURVE('',#351,#349,#209,.T.);
#452=EDGE_CURVE('',#352,#351,#210,.T.);
#453=EDGE_CURVE('',#353,#352,#211,.T.);
#454=EDGE_CURVE('',#354,#353,#212,.T.);
#455=EDGE_CURVE('',#350,#354,#213,.T.);
#456=EDGE_CURVE('',#355,#356,#214,.T.);
#457=EDGE_CURVE('',#357,#355,#215,.T.);
#458=EDGE_CURVE('',#358,#357,#216,.T.);
#459=EDGE_CURVE('',#359,#358,#217,.T.);
#460=EDGE_CURVE('',#360,#359,#218,.T.);
#461=EDGE_CURVE('',#356,#360,#219,.T.);
#462=EDGE_CURVE('',#354,#355,#220,.T.);
#463=EDGE_CURVE('',#357,#353,#221,.T.);
#464=EDGE_CURVE('',#350,#356,#222,.T.);
#465=EDGE_CURVE('',#349,#360,#223,.T.);
#466=EDGE_CURVE('',#351,#359,#224,.T.);
#467=EDGE_CURVE('',#352,#358,#225,.T.);
#468=ORIENTED_EDGE('',*,*,#361,.T.);
#469=ORIENTED_EDGE('',*,*,#362,.T.);
#470=ORIENTED_EDGE('',*,*,#363,.F.);
#471=ORIENTED_EDGE('',*,*,#364,.T.);
#472=ORIENTED_EDGE('',*,*,#365,.T.);
#473=ORIENTED_EDGE('',*,*,#366,.T.);
#474=ORIENTED_EDGE('',*,*,#367,.T.);
#475=ORIENTED_EDGE('',*,*,#368,.T.);
#476=ORIENTED_EDGE('',*,*,#369,.F.);
#477=ORIENTED_EDGE('',*,*,#370,.F.);
#478=ORIENTED_EDGE('',*,*,#371,.F.);
#479=ORIENTED_EDGE('',*,*,#372,.F.);
#480=ORIENTED_EDGE('',*,*,#373,.T.);
#481=ORIENTED_EDGE('',*,*,#374,.F.);
#482=ORIENTED_EDGE('',*,*,#375,.F.);
#483=ORIENTED_EDGE('',*,*,#376,.F.);
#484=ORIENTED_EDGE('',*,*,#377,.F.);
#485=ORIENTED_EDGE('',*,*,#378,.F.);
#486=ORIENTED_EDGE('',*,*,#364,.F.);
#487=ORIENTED_EDGE('',*,*,#379,.F.);
#488=ORIENTED_EDGE('',*,*,#362,.F.);
#489=ORIENTED_EDGE('',*,*,#380,.F.);
#490=ORIENTED_EDGE('',*,*,#381,.F.);
#491=ORIENTED_EDGE('',*,*,#382,.F.);
#492=ORIENTED_EDGE('',*,*,#383,.F.);
#493=ORIENTED_EDGE('',*,*,#384,.F.);
#494=ORIENTED_EDGE('',*,*,#385,.F.);
#495=ORIENTED_EDGE('',*,*,#386,.F.);
#496=ORIENTED_EDGE('',*,*,#387,.F.);
#497=ORIENTED_EDGE('',*,*,#388,.F.);
#498=ORIENTED_EDGE('',*,*,#373,.F.);
#499=ORIENTED_EDGE('',*,*,#389,.T.);
#500=ORIENTED_EDGE('',*,*,#377,.T.);
#501=ORIENTED_EDGE('',*,*,#390,.F.);
#502=ORIENTED_EDGE('',*,*,#375,.T.);
#503=ORIENTED_EDGE('',*,*,#391,.T.);
#504=ORIENTED_EDGE('',*,*,#392,.T.);
#505=ORIENTED_EDGE('',*,*,#393,.T.);
#506=ORIENTED_EDGE('',*,*,#394,.T.);
#507=ORIENTED_EDGE('',*,*,#395,.F.);
#508=ORIENTED_EDGE('',*,*,#396,.T.);
#509=ORIENTED_EDGE('',*,*,#387,.T.);
#510=ORIENTED_EDGE('',*,*,#397,.F.);
#511=ORIENTED_EDGE('',*,*,#385,.T.);
#512=ORIENTED_EDGE('',*,*,#398,.T.);
#513=ORIENTED_EDGE('',*,*,#399,.T.);
#514=ORIENTED_EDGE('',*,*,#400,.T.);
#515=ORIENTED_EDGE('',*,*,#401,.T.);
#516=ORIENTED_EDGE('',*,*,#402,.F.);
#517=ORIENTED_EDGE('',*,*,#384,.T.);
#518=ORIENTED_EDGE('',*,*,#403,.F.);
#519=ORIENTED_EDGE('',*,*,#404,.F.);
#520=ORIENTED_EDGE('',*,*,#398,.F.);
#521=ORIENTED_EDGE('',*,*,#380,.T.);
#522=ORIENTED_EDGE('',*,*,#361,.F.);
#523=ORIENTED_EDGE('',*,*,#405,.F.);
#524=ORIENTED_EDGE('',*,*,#406,.F.);
#525=ORIENTED_EDGE('',*,*,#407,.T.);
#526=ORIENTED_EDGE('',*,*,#408,.T.);
#527=ORIENTED_EDGE('',*,*,#409,.T.);
#528=ORIENTED_EDGE('',*,*,#410,.F.);
#529=ORIENTED_EDGE('',*,*,#403,.T.);
#530=ORIENTED_EDGE('',*,*,#383,.T.);
#531=ORIENTED_EDGE('',*,*,#411,.F.);
#532=ORIENTED_EDGE('',*,*,#381,.T.);
#533=ORIENTED_EDGE('',*,*,#406,.T.);
#534=ORIENTED_EDGE('',*,*,#378,.T.);
#535=ORIENTED_EDGE('',*,*,#389,.F.);
#536=ORIENTED_EDGE('',*,*,#412,.F.);
#537=ORIENTED_EDGE('',*,*,#365,.F.);
#538=ORIENTED_EDGE('',*,*,#374,.T.);
#539=ORIENTED_EDGE('',*,*,#388,.T.);
#540=ORIENTED_EDGE('',*,*,#396,.F.);
#541=ORIENTED_EDGE('',*,*,#413,.F.);
#542=ORIENTED_EDGE('',*,*,#391,.F.);
#543=ORIENTED_EDGE('',*,*,#404,.T.);
#544=ORIENTED_EDGE('',*,*,#410,.T.);
#545=ORIENTED_EDGE('',*,*,#414,.T.);
#546=ORIENTED_EDGE('',*,*,#415,.T.);
#547=ORIENTED_EDGE('',*,*,#399,.F.);
#548=ORIENTED_EDGE('',*,*,#363,.T.);
#549=ORIENTED_EDGE('',*,*,#379,.T.);
#550=ORIENTED_EDGE('',*,*,#390,.T.);
#551=ORIENTED_EDGE('',*,*,#376,.T.);
#552=ORIENTED_EDGE('',*,*,#411,.T.);
#553=ORIENTED_EDGE('',*,*,#382,.T.);
#554=ORIENTED_EDGE('',*,*,#397,.T.);
#555=ORIENTED_EDGE('',*,*,#386,.T.);
#556=ORIENTED_EDGE('',*,*,#393,.F.);
#557=ORIENTED_EDGE('',*,*,#416,.F.);
#558=ORIENTED_EDGE('',*,*,#417,.F.);
#559=ORIENTED_EDGE('',*,*,#400,.F.);
#560=ORIENTED_EDGE('',*,*,#415,.F.);
#561=ORIENTED_EDGE('',*,*,#418,.F.);
#562=ORIENTED_EDGE('',*,*,#413,.T.);
#563=ORIENTED_EDGE('',*,*,#402,.T.);
#564=ORIENTED_EDGE('',*,*,#419,.T.);
#565=ORIENTED_EDGE('',*,*,#416,.T.);
#566=ORIENTED_EDGE('',*,*,#392,.F.);
#567=ORIENTED_EDGE('',*,*,#401,.F.);
#568=ORIENTED_EDGE('',*,*,#420,.F.);
#569=ORIENTED_EDGE('',*,*,#419,.F.);
#570=ORIENTED_EDGE('',*,*,#409,.F.);
#571=ORIENTED_EDGE('',*,*,#421,.F.);
#572=ORIENTED_EDGE('',*,*,#414,.F.);
#573=ORIENTED_EDGE('',*,*,#367,.F.);
#574=ORIENTED_EDGE('',*,*,#422,.F.);
#575=ORIENTED_EDGE('',*,*,#423,.F.);
#576=ORIENTED_EDGE('',*,*,#412,.T.);
#577=ORIENTED_EDGE('',*,*,#395,.T.);
#578=ORIENTED_EDGE('',*,*,#424,.T.);
#579=ORIENTED_EDGE('',*,*,#422,.T.);
#580=ORIENTED_EDGE('',*,*,#366,.F.);
#581=ORIENTED_EDGE('',*,*,#394,.F.);
#582=ORIENTED_EDGE('',*,*,#425,.F.);
#583=ORIENTED_EDGE('',*,*,#424,.F.);
#584=ORIENTED_EDGE('',*,*,#405,.T.);
#585=ORIENTED_EDGE('',*,*,#369,.T.);
#586=ORIENTED_EDGE('',*,*,#426,.T.);
#587=ORIENTED_EDGE('',*,*,#427,.T.);
#588=ORIENTED_EDGE('',*,*,#407,.F.);
#589=ORIENTED_EDGE('',*,*,#426,.F.);
#590=ORIENTED_EDGE('',*,*,#368,.F.);
#591=ORIENTED_EDGE('',*,*,#428,.F.);
#592=ORIENTED_EDGE('',*,*,#408,.F.);
#593=ORIENTED_EDGE('',*,*,#427,.F.);
#594=ORIENTED_EDGE('',*,*,#429,.F.);
#595=ORIENTED_EDGE('',*,*,#430,.F.);
#596=ORIENTED_EDGE('',*,*,#431,.T.);
#597=ORIENTED_EDGE('',*,*,#432,.F.);
#598=ORIENTED_EDGE('',*,*,#433,.F.);
#599=ORIENTED_EDGE('',*,*,#434,.F.);
#600=ORIENTED_EDGE('',*,*,#431,.F.);
#601=ORIENTED_EDGE('',*,*,#435,.F.);
#602=ORIENTED_EDGE('',*,*,#436,.T.);
#603=ORIENTED_EDGE('',*,*,#437,.F.);
#604=ORIENTED_EDGE('',*,*,#438,.F.);
#605=ORIENTED_EDGE('',*,*,#436,.F.);
#606=ORIENTED_EDGE('',*,*,#439,.F.);
#607=ORIENTED_EDGE('',*,*,#440,.T.);
#608=ORIENTED_EDGE('',*,*,#441,.F.);
#609=ORIENTED_EDGE('',*,*,#440,.F.);
#610=ORIENTED_EDGE('',*,*,#442,.F.);
#611=ORIENTED_EDGE('',*,*,#443,.T.);
#612=ORIENTED_EDGE('',*,*,#444,.F.);
#613=ORIENTED_EDGE('',*,*,#443,.F.);
#614=ORIENTED_EDGE('',*,*,#425,.T.);
#615=ORIENTED_EDGE('',*,*,#417,.T.);
#616=ORIENTED_EDGE('',*,*,#445,.T.);
#617=ORIENTED_EDGE('',*,*,#446,.F.);
#618=ORIENTED_EDGE('',*,*,#445,.F.);
#619=ORIENTED_EDGE('',*,*,#420,.T.);
#620=ORIENTED_EDGE('',*,*,#418,.T.);
#621=ORIENTED_EDGE('',*,*,#421,.T.);
#622=ORIENTED_EDGE('',*,*,#429,.T.);
#623=ORIENTED_EDGE('',*,*,#428,.T.);
#624=ORIENTED_EDGE('',*,*,#423,.T.);
#625=ORIENTED_EDGE('',*,*,#370,.T.);
#626=ORIENTED_EDGE('',*,*,#372,.T.);
#627=ORIENTED_EDGE('',*,*,#447,.T.);
#628=ORIENTED_EDGE('',*,*,#448,.F.);
#629=ORIENTED_EDGE('',*,*,#447,.F.);
#630=ORIENTED_EDGE('',*,*,#371,.T.);
#631=ORIENTED_EDGE('',*,*,#437,.T.);
#632=ORIENTED_EDGE('',*,*,#449,.T.);
#633=ORIENTED_EDGE('',*,*,#432,.T.);
#634=ORIENTED_EDGE('',*,*,#434,.T.);
#635=ORIENTED_EDGE('',*,*,#433,.T.);
#636=ORIENTED_EDGE('',*,*,#449,.F.);
#637=ORIENTED_EDGE('',*,*,#438,.T.);
#638=ORIENTED_EDGE('',*,*,#444,.T.);
#639=ORIENTED_EDGE('',*,*,#450,.F.);
#640=ORIENTED_EDGE('',*,*,#451,.F.);
#641=ORIENTED_EDGE('',*,*,#452,.F.);
#642=ORIENTED_EDGE('',*,*,#453,.F.);
#643=ORIENTED_EDGE('',*,*,#454,.F.);
#644=ORIENTED_EDGE('',*,*,#455,.F.);
#645=ORIENTED_EDGE('',*,*,#456,.F.);
#646=ORIENTED_EDGE('',*,*,#457,.F.);
#647=ORIENTED_EDGE('',*,*,#458,.F.);
#648=ORIENTED_EDGE('',*,*,#459,.F.);
#649=ORIENTED_EDGE('',*,*,#460,.F.);
#650=ORIENTED_EDGE('',*,*,#461,.F.);
#651=ORIENTED_EDGE('',*,*,#439,.T.);
#652=ORIENTED_EDGE('',*,*,#462,.F.);
#653=ORIENTED_EDGE('',*,*,#454,.T.);
#654=ORIENTED_EDGE('',*,*,#463,.F.);
#655=ORIENTED_EDGE('',*,*,#457,.T.);
#656=ORIENTED_EDGE('',*,*,#464,.F.);
#657=ORIENTED_EDGE('',*,*,#455,.T.);
#658=ORIENTED_EDGE('',*,*,#462,.T.);
#659=ORIENTED_EDGE('',*,*,#456,.T.);
#660=ORIENTED_EDGE('',*,*,#461,.T.);
#661=ORIENTED_EDGE('',*,*,#465,.F.);
#662=ORIENTED_EDGE('',*,*,#450,.T.);
#663=ORIENTED_EDGE('',*,*,#464,.T.);
#664=ORIENTED_EDGE('',*,*,#460,.T.);
#665=ORIENTED_EDGE('',*,*,#466,.F.);
#666=ORIENTED_EDGE('',*,*,#451,.T.);
#667=ORIENTED_EDGE('',*,*,#465,.T.);
#668=ORIENTED_EDGE('',*,*,#459,.T.);
#669=ORIENTED_EDGE('',*,*,#467,.F.);
#670=ORIENTED_EDGE('',*,*,#452,.T.);
#671=ORIENTED_EDGE('',*,*,#466,.T.);
#672=ORIENTED_EDGE('',*,*,#463,.T.);
#673=ORIENTED_EDGE('',*,*,#453,.T.);
#674=ORIENTED_EDGE('',*,*,#467,.T.);
#675=ORIENTED_EDGE('',*,*,#458,.T.);
#676=ORIENTED_EDGE('',*,*,#441,.T.);
#677=ORIENTED_EDGE('',*,*,#446,.T.);
#678=ORIENTED_EDGE('',*,*,#430,.T.);
#679=ORIENTED_EDGE('',*,*,#448,.T.);
#680=ORIENTED_EDGE('',*,*,#435,.T.);
#681=ORIENTED_EDGE('',*,*,#442,.T.);
#682=PLANE('',#774);
#683=PLANE('',#785);
#684=PLANE('',#786);
#685=PLANE('',#787);
#686=PLANE('',#788);
#687=PLANE('',#789);
#688=PLANE('',#790);
#689=PLANE('',#791);
#690=PLANE('',#792);
#691=PLANE('',#793);
#692=PLANE('',#794);
#693=PLANE('',#795);
#694=PLANE('',#796);
#695=PLANE('',#797);
#696=PLANE('',#799);
#697=PLANE('',#801);
#698=PLANE('',#802);
#699=PLANE('',#804);
#700=PLANE('',#806);
#701=PLANE('',#808);
#702=PLANE('',#809);
#703=PLANE('',#811);
#704=PLANE('',#812);
#705=PLANE('',#814);
#706=PLANE('',#831);
#707=PLANE('',#832);
#708=PLANE('',#833);
#709=PLANE('',#834);
#710=PLANE('',#835);
#711=PLANE('',#836);
#712=PLANE('',#837);
#713=PLANE('',#838);
#714=PLANE('',#839);
#715=PLANE('',#840);
#716=PLANE('',#841);
#717=ADVANCED_FACE('',(#61),#682,.F.);
#718=ADVANCED_FACE('',(#62),#58,.F.);
#719=ADVANCED_FACE('',(#63),#683,.F.);
#720=ADVANCED_FACE('',(#64),#684,.F.);
#721=ADVANCED_FACE('',(#65),#685,.T.);
#722=ADVANCED_FACE('',(#66),#686,.T.);
#723=ADVANCED_FACE('',(#67),#687,.F.);
#724=ADVANCED_FACE('',(#68),#688,.T.);
#725=ADVANCED_FACE('',(#69),#689,.T.);
#726=ADVANCED_FACE('',(#70),#690,.F.);
#727=ADVANCED_FACE('',(#71),#691,.F.);
#728=ADVANCED_FACE('',(#72),#692,.F.);
#729=ADVANCED_FACE('',(#73),#693,.F.);
#730=ADVANCED_FACE('',(#74),#694,.F.);
#731=ADVANCED_FACE('',(#75),#695,.T.);
#732=ADVANCED_FACE('',(#76),#696,.T.);
#733=ADVANCED_FACE('',(#77),#697,.F.);
#734=ADVANCED_FACE('',(#78),#698,.T.);
#735=ADVANCED_FACE('',(#79),#699,.T.);
#736=ADVANCED_FACE('',(#80),#700,.T.);
#737=ADVANCED_FACE('',(#81),#701,.F.);
#738=ADVANCED_FACE('',(#82),#702,.T.);
#739=ADVANCED_FACE('',(#83),#703,.F.);
#740=ADVANCED_FACE('',(#84),#704,.T.);
#741=ADVANCED_FACE('',(#85),#705,.T.);
#742=ADVANCED_FACE('',(#86),#59,.T.);
#743=ADVANCED_FACE('',(#87),#60,.T.);
#744=ADVANCED_FACE('',(#88),#20,.T.);
#745=ADVANCED_FACE('',(#89),#21,.T.);
#746=ADVANCED_FACE('',(#90),#22,.F.);
#747=ADVANCED_FACE('',(#91),#23,.F.);
#748=ADVANCED_FACE('',(#92),#24,.T.);
#749=ADVANCED_FACE('',(#93,#15),#706,.T.);
#750=ADVANCED_FACE('',(#94,#16),#707,.T.);
#751=ADVANCED_FACE('',(#95),#708,.T.);
#752=ADVANCED_FACE('',(#96),#709,.F.);
#753=ADVANCED_FACE('',(#97),#710,.T.);
#754=ADVANCED_FACE('',(#98),#711,.F.);
#755=ADVANCED_FACE('',(#99),#712,.T.);
#756=ADVANCED_FACE('',(#100),#713,.F.);
#757=ADVANCED_FACE('',(#101,#17),#714,.T.);
#758=ADVANCED_FACE('',(#102,#18),#715,.F.);
#759=ADVANCED_FACE('',(#103,#19),#716,.T.);
#760=CLOSED_SHELL('',(#717,#718,#719,#720,#721,#722,#723,#724,#725,#726,
#727,#728,#729,#730,#731,#732,#733,#734,#735,#736,#737,#738,#739,#740,#741,
#742,#743,#744,#745,#746,#747,#748,#749,#750,#751,#752,#753,#754,#755,#756,
#757,#758,#759));
#761=DERIVED_UNIT_ELEMENT(#763,1.);
#762=DERIVED_UNIT_ELEMENT(#1488,-3.);
#763=(
MASS_UNIT()
NAMED_UNIT(*)
SI_UNIT(.KILO.,.GRAM.)
);
#764=DERIVED_UNIT((#761,#762));
#765=MEASURE_REPRESENTATION_ITEM('density measure',
POSITIVE_RATIO_MEASURE(7850.),#764);
#766=PROPERTY_DEFINITION_REPRESENTATION(#771,#768);
#767=PROPERTY_DEFINITION_REPRESENTATION(#772,#769);
#768=REPRESENTATION('material name',(#770),#1485);
#769=REPRESENTATION('density',(#765),#1485);
#770=DESCRIPTIVE_REPRESENTATION_ITEM('Steel','Steel');
#771=PROPERTY_DEFINITION('material property','material name',#1495);
#772=PROPERTY_DEFINITION('material property','density of part',#1495);
#773=AXIS2_PLACEMENT_3D('',#1046,#842,#843);
#774=AXIS2_PLACEMENT_3D('',#1047,#844,#845);
#775=AXIS2_PLACEMENT_3D('',#1070,#853,#854);
#776=AXIS2_PLACEMENT_3D('',#1147,#856,#857);
#777=AXIS2_PLACEMENT_3D('',#1153,#858,#859);
#778=AXIS2_PLACEMENT_3D('',#1158,#860,#861);
#779=AXIS2_PLACEMENT_3D('',#1159,#862,#863);
#780=AXIS2_PLACEMENT_3D('',#1161,#864,#865);
#781=AXIS2_PLACEMENT_3D('',#1167,#866,#867);
#782=AXIS2_PLACEMENT_3D('',#1173,#868,#869);
#783=AXIS2_PLACEMENT_3D('',#1179,#870,#871);
#784=AXIS2_PLACEMENT_3D('',#1184,#872,#873);
#785=AXIS2_PLACEMENT_3D('',#1185,#874,#875);
#786=AXIS2_PLACEMENT_3D('',#1198,#883,#884);
#787=AXIS2_PLACEMENT_3D('',#1211,#892,#893);
#788=AXIS2_PLACEMENT_3D('',#1215,#896,#897);
#789=AXIS2_PLACEMENT_3D('',#1219,#900,#901);
#790=AXIS2_PLACEMENT_3D('',#1228,#907,#908);
#791=AXIS2_PLACEMENT_3D('',#1230,#910,#911);
#792=AXIS2_PLACEMENT_3D('',#1232,#913,#914);
#793=AXIS2_PLACEMENT_3D('',#1236,#917,#918);
#794=AXIS2_PLACEMENT_3D('',#1237,#919,#920);
#795=AXIS2_PLACEMENT_3D('',#1238,#921,#922);
#796=AXIS2_PLACEMENT_3D('',#1239,#923,#924);
#797=AXIS2_PLACEMENT_3D('',#1240,#925,#926);
#798=AXIS2_PLACEMENT_3D('',#1243,#928,#929);
#799=AXIS2_PLACEMENT_3D('',#1244,#930,#931);
#800=AXIS2_PLACEMENT_3D('',#1245,#932,#933);
#801=AXIS2_PLACEMENT_3D('',#1246,#934,#935);
#802=AXIS2_PLACEMENT_3D('',#1248,#937,#938);
#803=AXIS2_PLACEMENT_3D('',#1249,#939,#940);
#804=AXIS2_PLACEMENT_3D('',#1250,#941,#942);
#805=AXIS2_PLACEMENT_3D('',#1251,#943,#944);
#806=AXIS2_PLACEMENT_3D('',#1252,#945,#946);
#807=AXIS2_PLACEMENT_3D('',#1255,#948,#949);
#808=AXIS2_PLACEMENT_3D('',#1256,#950,#951);
#809=AXIS2_PLACEMENT_3D('',#1258,#953,#954);
#810=AXIS2_PLACEMENT_3D('',#1259,#955,#956);
#811=AXIS2_PLACEMENT_3D('',#1260,#957,#958);
#812=AXIS2_PLACEMENT_3D('',#1264,#961,#962);
#813=AXIS2_PLACEMENT_3D('',#1265,#963,#964);
#814=AXIS2_PLACEMENT_3D('',#1266,#965,#966);
#815=AXIS2_PLACEMENT_3D('',#1267,#967,#968);
#816=AXIS2_PLACEMENT_3D('',#1268,#969,#970);
#817=AXIS2_PLACEMENT_3D('',#1270,#971,#972);
#818=AXIS2_PLACEMENT_3D('',#1345,#974,#975);
#819=AXIS2_PLACEMENT_3D('',#1347,#976,#977);
#820=AXIS2_PLACEMENT_3D('',#1420,#979,#980);
#821=AXIS2_PLACEMENT_3D('',#1422,#981,#982);
#822=AXIS2_PLACEMENT_3D('',#1425,#984,#985);
#823=AXIS2_PLACEMENT_3D('',#1426,#986,#987);
#824=AXIS2_PLACEMENT_3D('',#1428,#988,#989);
#825=AXIS2_PLACEMENT_3D('',#1431,#991,#992);
#826=AXIS2_PLACEMENT_3D('',#1432,#993,#994);
#827=AXIS2_PLACEMENT_3D('',#1435,#996,#997);
#828=AXIS2_PLACEMENT_3D('',#1436,#998,#999);
#829=AXIS2_PLACEMENT_3D('',#1439,#1001,#1002);
#830=AXIS2_PLACEMENT_3D('',#1440,#1003,#1004);
#831=AXIS2_PLACEMENT_3D('',#1442,#1006,#1007);
#832=AXIS2_PLACEMENT_3D('',#1455,#1014,#1015);
#833=AXIS2_PLACEMENT_3D('',#1468,#1022,#1023);
#834=AXIS2_PLACEMENT_3D('',#1471,#1026,#1027);
#835=AXIS2_PLACEMENT_3D('',#1473,#1029,#1030);
#836=AXIS2_PLACEMENT_3D('',#1475,#1032,#1033);
#837=AXIS2_PLACEMENT_3D('',#1477,#1035,#1036);
#838=AXIS2_PLACEMENT_3D('',#1479,#1038,#1039);
#839=AXIS2_PLACEMENT_3D('',#1480,#1040,#1041);
#840=AXIS2_PLACEMENT_3D('',#1481,#1042,#1043);
#841=AXIS2_PLACEMENT_3D('',#1482,#1044,#1045);
#842=DIRECTION('axis',(0.,0.,1.));
#843=DIRECTION('refdir',(1.,0.,0.));
#844=DIRECTION('center_axis',(0.707106781186563,0.,-0.707106781186532));
#845=DIRECTION('ref_axis',(-0.707106781186532,0.,-0.707106781186563));
#846=DIRECTION('',(-0.707106781186532,0.,-0.707106781186563));
#847=DIRECTION('',(-0.707106781186532,0.,-0.707106781186563));
#848=DIRECTION('',(-0.707106781186532,0.,-0.707106781186563));
#849=DIRECTION('',(0.,1.,0.));
#850=DIRECTION('',(-0.707106781186532,0.,-0.707106781186563));
#851=DIRECTION('',(-0.707106781186532,0.,-0.707106781186563));
#852=DIRECTION('',(0.,1.,0.));
#853=DIRECTION('center_axis',(-5.22672397504984E-7,-0.999999999999863,1.71490382906335E-8));
#854=DIRECTION('ref_axis',(0.,-1.71490382906359E-8,-1.));
#855=DIRECTION('',(3.69585273663062E-7,0.70710691663807,-0.707106645734902));
#856=DIRECTION('center_axis',(0.,-1.,0.));
#857=DIRECTION('ref_axis',(5.22672200068342E-7,0.,-0.999999999999863));
#858=DIRECTION('center_axis',(0.,-1.,0.));
#859=DIRECTION('ref_axis',(5.22672187026719E-7,0.,-0.999999999999863));
#860=DIRECTION('center_axis',(0.,-1.,0.));
#861=DIRECTION('ref_axis',(5.22672200068342E-7,0.,-0.999999999999863));
#862=DIRECTION('center_axis',(0.,-1.,0.));
#863=DIRECTION('ref_axis',(5.22672187026719E-7,0.,-0.999999999999863));
#864=DIRECTION('center_axis',(0.,-1.,0.));
#865=DIRECTION('ref_axis',(5.22672200068342E-7,0.,-0.999999999999863));
#866=DIRECTION('center_axis',(0.,-1.,0.));
#867=DIRECTION('ref_axis',(5.22672187026719E-7,0.,-0.999999999999863));
#868=DIRECTION('center_axis',(0.,-1.,0.));
#869=DIRECTION('ref_axis',(5.22672200068342E-7,0.,-0.999999999999863));
#870=DIRECTION('center_axis',(0.,-1.,0.));
#871=DIRECTION('ref_axis',(5.22672187026719E-7,0.,-0.999999999999863));
#872=DIRECTION('center_axis',(0.,-1.,0.));
#873=DIRECTION('ref_axis',(5.22672200068342E-7,0.,-0.999999999999863));
#874=DIRECTION('center_axis',(0.707106781186552,0.,0.707106781186543));
#875=DIRECTION('ref_axis',(0.707106781186543,0.,-0.707106781186552));
#876=DIRECTION('',(0.707106781186543,0.,-0.707106781186552));
#877=DIRECTION('',(0.707106781186543,0.,-0.707106781186552));
#878=DIRECTION('',(0.707106781186543,0.,-0.707106781186552));
#879=DIRECTION('',(0.,1.,0.));
#880=DIRECTION('',(0.707106781186543,0.,-0.707106781186552));
#881=DIRECTION('',(0.707106781186543,0.,-0.707106781186552));
#882=DIRECTION('',(0.,1.,0.));
#883=DIRECTION('center_axis',(-0.707106781186556,0.,0.707106781186539));
#884=DIRECTION('ref_axis',(0.707106781186539,0.,0.707106781186556));
#885=DIRECTION('',(0.707106781186539,0.,0.707106781186556));
#886=DIRECTION('',(0.707106781186539,0.,0.707106781186556));
#887=DIRECTION('',(0.707106781186539,0.,0.707106781186556));
#888=DIRECTION('',(0.,1.,0.));
#889=DIRECTION('',(0.707106781186539,0.,0.707106781186556));
#890=DIRECTION('',(0.707106781186539,0.,0.707106781186556));
#891=DIRECTION('',(0.,1.,0.));
#892=DIRECTION('center_axis',(0.,-1.,0.));
#893=DIRECTION('ref_axis',(1.,0.,0.));
#894=DIRECTION('',(-0.707106781186557,0.,0.707106781186538));
#895=DIRECTION('',(-1.20614204254359E-14,0.,-1.));
#896=DIRECTION('center_axis',(0.,-1.,0.));
#897=DIRECTION('ref_axis',(1.,0.,0.));
#898=DIRECTION('',(1.,0.,0.));
#899=DIRECTION('',(-0.707106781186557,0.,0.707106781186538));
#900=DIRECTION('center_axis',(-0.707106781186538,0.,-0.707106781186557));
#901=DIRECTION('ref_axis',(-0.707106781186557,0.,0.707106781186538));
#902=DIRECTION('',(0.,1.,0.));
#903=DIRECTION('',(-0.707106781186557,0.,0.707106781186538));
#904=DIRECTION('',(-0.707106781186557,0.,0.707106781186538));
#905=DIRECTION('',(0.,1.,0.));
#906=DIRECTION('',(-0.707106781186557,0.,0.707106781186538));
#907=DIRECTION('center_axis',(0.,-1.,0.));
#908=DIRECTION('ref_axis',(1.,0.,0.));
#909=DIRECTION('',(8.04094695029042E-15,0.,1.));
#910=DIRECTION('center_axis',(0.,-1.,0.));
#911=DIRECTION('ref_axis',(1.,0.,0.));
#912=DIRECTION('',(-1.,0.,0.));
#913=DIRECTION('center_axis',(-1.,0.,1.20614204254359E-14));
#914=DIRECTION('ref_axis',(1.20614204254359E-14,0.,1.));
#915=DIRECTION('',(1.20614204254359E-14,0.,1.));
#916=DIRECTION('',(1.20614204254359E-14,0.,1.));
#917=DIRECTION('center_axis',(0.,1.,0.));
#918=DIRECTION('ref_axis',(0.,0.,1.));
#919=DIRECTION('center_axis',(0.,1.,0.));
#920=DIRECTION('ref_axis',(0.,0.,1.));
#921=DIRECTION('center_axis',(0.,1.,0.));
#922=DIRECTION('ref_axis',(0.,0.,1.));
#923=DIRECTION('center_axis',(0.,1.,0.));
#924=DIRECTION('ref_axis',(0.,0.,1.));
#925=DIRECTION('center_axis',(0.,-1.,0.));
#926=DIRECTION('ref_axis',(1.,0.,0.));
#927=DIRECTION('',(1.,0.,0.));
#928=DIRECTION('center_axis',(0.,-1.,0.));
#929=DIRECTION('ref_axis',(0.,1.8555387635504E-15,-1.));
#930=DIRECTION('center_axis',(0.,-1.,0.));
#931=DIRECTION('ref_axis',(1.,0.,0.));
#932=DIRECTION('center_axis',(0.,-1.,0.));
#933=DIRECTION('ref_axis',(0.,1.8555387635504E-15,-1.));
#934=DIRECTION('center_axis',(0.,0.,1.));
#935=DIRECTION('ref_axis',(1.,0.,0.));
#936=DIRECTION('',(1.,0.,0.));
#937=DIRECTION('center_axis',(0.,-1.,0.));
#938=DIRECTION('ref_axis',(1.,0.,0.));
#939=DIRECTION('center_axis',(0.,-1.,0.));
#940=DIRECTION('ref_axis',(0.,1.8555387635504E-15,-1.));
#941=DIRECTION('center_axis',(0.,-1.,0.));
#942=DIRECTION('ref_axis',(1.,0.,0.));
#943=DIRECTION('center_axis',(0.,-1.,0.));
#944=DIRECTION('ref_axis',(0.,1.8555387635504E-15,-1.));
#945=DIRECTION('center_axis',(0.,-1.,0.));
#946=DIRECTION('ref_axis',(1.,0.,0.));
#947=DIRECTION('',(-8.04094695029042E-15,0.,-1.));
#948=DIRECTION('center_axis',(0.,-1.,0.));
#949=DIRECTION('ref_axis',(0.,1.8555387635504E-15,-1.));
#950=DIRECTION('center_axis',(1.,0.,-8.04094695029042E-15));
#951=DIRECTION('ref_axis',(-8.04094695029042E-15,0.,-1.));
#952=DIRECTION('',(-8.04094695029042E-15,0.,-1.));
#953=DIRECTION('center_axis',(0.,-1.,0.));
#954=DIRECTION('ref_axis',(1.,0.,0.));
#955=DIRECTION('center_axis',(0.,-1.,0.));
#956=DIRECTION('ref_axis',(0.,1.8555387635504E-15,-1.));
#957=DIRECTION('center_axis',(0.,0.,-1.));
#958=DIRECTION('ref_axis',(-1.,0.,0.));
#959=DIRECTION('',(-1.,0.,0.));
#960=DIRECTION('',(-1.,0.,0.));
#961=DIRECTION('center_axis',(0.,-1.,0.));
#962=DIRECTION('ref_axis',(1.,0.,0.));
#963=DIRECTION('center_axis',(0.,-1.,0.));
#964=DIRECTION('ref_axis',(0.,1.8555387635504E-15,-1.));
#965=DIRECTION('center_axis',(0.,-1.,0.));
#966=DIRECTION('ref_axis',(1.,0.,0.));
#967=DIRECTION('center_axis',(0.,-1.,0.));
#968=DIRECTION('ref_axis',(0.,1.8555387635504E-15,-1.));
#969=DIRECTION('center_axis',(-6.7054921065207E-8,0.999999999999952,-3.02180301291883E-7));
#970=DIRECTION('ref_axis',(0.,3.02180301291884E-7,0.999999999999954));
#971=DIRECTION('center_axis',(0.,-1.,0.));
#972=DIRECTION('ref_axis',(6.70549235184637E-8,0.,0.999999999999998));
#973=DIRECTION('',(-4.74149958677582E-8,0.707106665301559,-0.707106897071516));
#974=DIRECTION('center_axis',(-6.68024689231809E-8,-0.999999999999996,-6.79551257367342E-8));
#975=DIRECTION('ref_axis',(0.,6.79551257367343E-8,-0.999999999999998));
#976=DIRECTION('center_axis',(0.,1.,0.));
#977=DIRECTION('ref_axis',(6.68024448943037E-8,0.,-0.999999999999998));
#978=DIRECTION('',(-4.72364854253291E-8,-0.707106930077751,0.707106632295311));
#979=DIRECTION('center_axis',(-1.63926290936221E-15,-1.,-3.82851464727796E-16));
#980=DIRECTION('ref_axis',(0.,-3.82851464727796E-16,1.));
#981=DIRECTION('center_axis',(0.,-1.,0.));
#982=DIRECTION('ref_axis',(0.,-3.82851464727796E-16,1.));
#983=DIRECTION('',(1.63926290936221E-15,1.,3.82851464727796E-16));
#984=DIRECTION('center_axis',(0.,1.,0.));
#985=DIRECTION('ref_axis',(0.,-3.82851464727796E-16,1.));
#986=DIRECTION('center_axis',(-1.65297188272517E-7,-0.999999999999977,-1.39633213783889E-7));
#987=DIRECTION('ref_axis',(0.,-1.39633213783891E-7,0.99999999999999));
#988=DIRECTION('center_axis',(0.,-1.,0.));
#989=DIRECTION('ref_axis',(-1.,0.,0.));
#990=DIRECTION('',(1.65297188272517E-7,0.999999999999977,1.3963321378389E-7));
#991=DIRECTION('center_axis',(0.,1.,0.));
#992=DIRECTION('ref_axis',(-1.,0.,0.));
#993=DIRECTION('center_axis',(-3.97121431491298E-16,1.,1.8555387635504E-15));
#994=DIRECTION('ref_axis',(0.,1.8555387635504E-15,-1.));
#995=DIRECTION('',(-3.97121431491298E-16,1.,1.8555387635504E-15));
#996=DIRECTION('center_axis',(0.,-1.,0.));
#997=DIRECTION('ref_axis',(0.,1.8555387635504E-15,-1.));
#998=DIRECTION('center_axis',(0.,-1.,0.));
#999=DIRECTION('ref_axis',(0.,0.,1.));
#1000=DIRECTION('',(0.,-1.,0.));
#1001=DIRECTION('center_axis',(0.,1.,0.));
#1002=DIRECTION('ref_axis',(0.,0.,1.));
#1003=DIRECTION('center_axis',(2.54377208300873E-17,1.,-2.09998389940419E-16));
#1004=DIRECTION('ref_axis',(0.,-2.09998389940419E-16,-1.));
#1005=DIRECTION('',(-2.54377208300873E-17,-1.,2.09998389940419E-16));
#1006=DIRECTION('center_axis',(0.,1.,0.));
#1007=DIRECTION('ref_axis',(0.,0.,1.));
#1008=DIRECTION('',(-0.794622887664926,0.,0.607103340790557));
#1009=DIRECTION('',(-0.923078233295385,0.,-0.384612240075989));
#1010=DIRECTION('',(-0.128455341418002,0.,-0.99171529445763));
#1011=DIRECTION('',(0.794622887664926,0.,-0.607103340790557));
#1012=DIRECTION('',(0.923078233295385,0.,0.384612240075989));
#1013=DIRECTION('',(0.128455341418002,0.,0.99171529445763));
#1014=DIRECTION('center_axis',(0.,1.,0.));
#1015=DIRECTION('ref_axis',(0.,0.,1.));
#1016=DIRECTION('',(-0.128455341418002,0.,-0.99171529445763));
#1017=DIRECTION('',(-0.923078233295385,0.,-0.384612240075989));
#1018=DIRECTION('',(-0.794622887664926,0.,0.607103340790557));
#1019=DIRECTION('',(0.128455341418002,0.,0.99171529445763));
#1020=DIRECTION('',(0.923078233295385,0.,0.384612240075989));
#1021=DIRECTION('',(0.794622887664926,0.,-0.607103340790557));
#1022=DIRECTION('center_axis',(0.384612240075989,0.,-0.923078233295385));
#1023=DIRECTION('ref_axis',(-0.923078233295385,0.,-0.384612240075989));
#1024=DIRECTION('',(0.,-1.,0.));
#1025=DIRECTION('',(0.,1.,0.));
#1026=DIRECTION('center_axis',(-0.99171529445763,0.,0.128455341418002));
#1027=DIRECTION('ref_axis',(0.128455341418002,0.,0.99171529445763));
#1028=DIRECTION('',(0.,-1.,0.));
#1029=DIRECTION('center_axis',(0.607103340790557,0.,0.794622887664925));
#1030=DIRECTION('ref_axis',(0.794622887664926,0.,-0.607103340790557));
#1031=DIRECTION('',(0.,-1.,0.));
#1032=DIRECTION('center_axis',(0.384612240075989,0.,-0.923078233295385));
#1033=DIRECTION('ref_axis',(-0.923078233295385,0.,-0.384612240075989));
#1034=DIRECTION('',(0.,-1.,0.));
#1035=DIRECTION('center_axis',(-0.99171529445763,0.,0.128455341418002));
#1036=DIRECTION('ref_axis',(0.128455341418002,0.,0.99171529445763));
#1037=DIRECTION('',(0.,-1.,0.));
#1038=DIRECTION('center_axis',(0.607103340790557,0.,0.794622887664925));
#1039=DIRECTION('ref_axis',(0.794622887664926,0.,-0.607103340790557));
#1040=DIRECTION('center_axis',(0.,1.,0.));
#1041=DIRECTION('ref_axis',(0.,0.,1.));
#1042=DIRECTION('center_axis',(0.,1.,0.));
#1043=DIRECTION('ref_axis',(0.,0.,1.));
#1044=DIRECTION('center_axis',(0.,1.,0.));
#1045=DIRECTION('ref_axis',(0.,0.,1.));
#1046=CARTESIAN_POINT('',(0.,0.,0.));
#1047=CARTESIAN_POINT('Origin',(14.2145560671919,-739.999999876551,261.005125673854));
#1048=CARTESIAN_POINT('',(13.0429832648415,-739.799999876551,259.833552871503));
#1049=CARTESIAN_POINT('',(12.5681087386041,-739.799999876551,259.358678345266));
#1050=CARTESIAN_POINT('',(14.9113460256484,-739.799999876551,261.70191563231));
#1051=CARTESIAN_POINT('',(12.346193644025,-739.999999876551,259.136763250687));
#1052=CARTESIAN_POINT('Ctrl Pts',(12.5681087386033,-739.799999876552,259.358678345265));
#1053=CARTESIAN_POINT('Ctrl Pts',(12.4614184946719,-739.890529655533,259.251988101334));
#1054=CARTESIAN_POINT('Ctrl Pts',(12.346193644025,-739.999999876551,259.136763250687));
#1055=CARTESIAN_POINT('',(14.9113460256484,-739.999999876551,261.70191563231));
#1056=CARTESIAN_POINT('',(14.2700579041384,-739.999999876551,261.0606275108));
#1057=CARTESIAN_POINT('',(14.6894311332794,-739.799999876551,261.480000739941));
#1058=CARTESIAN_POINT('Ctrl Pts',(14.9113460256486,-739.99999987655,261.701915632311));
#1059=CARTESIAN_POINT('Ctrl Pts',(14.7961212121307,-739.890529622557,261.586690818793));
#1060=CARTESIAN_POINT('Ctrl Pts',(14.6894311332795,-739.799999876551,261.480000739941));
#1061=CARTESIAN_POINT('',(14.2145560671919,-739.799999876551,261.005125673854));
#1062=CARTESIAN_POINT('',(14.9113460256484,-739.799999876551,261.70191563231));
#1063=CARTESIAN_POINT('',(14.2145560671919,-739.599999876551,261.005125673854));
#1064=CARTESIAN_POINT('',(14.2145560671919,-739.999999876551,261.005125673854));
#1065=CARTESIAN_POINT('',(13.6287696660167,-739.599999876551,260.419339272679));
#1066=CARTESIAN_POINT('',(14.9113460256484,-739.599999876551,261.70191563231));
#1067=CARTESIAN_POINT('',(13.0429832648415,-739.599999876551,259.833552871503));
#1068=CARTESIAN_POINT('',(14.9113460256484,-739.599999876551,261.70191563231));
#1069=CARTESIAN_POINT('',(13.0429832648415,-739.999999876551,259.833552871503));
#1070=CARTESIAN_POINT('Origin',(12.2145579046158,-740.500129290534,261.833552483805));
#1071=CARTESIAN_POINT('',(9.0145563738992,-740.499999824611,261.833553314209));
#1072=CARTESIAN_POINT('',(12.2145579046834,-740.499999898844,265.033552471144));
#1073=CARTESIAN_POINT('Ctrl Pts',(9.0145563738992,-740.499999824611,261.833553314209));
#1074=CARTESIAN_POINT('Ctrl Pts',(9.01455642247132,-740.499999824728,262.034452977931));
#1075=CARTESIAN_POINT('Ctrl Pts',(9.03378013650491,-740.499999825283,262.242214032752));
#1076=CARTESIAN_POINT('Ctrl Pts',(9.11476014285776,-740.499999827354,262.655504487048));
#1077=CARTESIAN_POINT('Ctrl Pts',(9.17649907096284,-740.49999982887,262.861036448052));
#1078=CARTESIAN_POINT('Ctrl Pts',(9.33978505414094,-740.499999832792,263.255243502934));
#1079=CARTESIAN_POINT('Ctrl Pts',(9.44146214389665,-740.499999835201,263.444232528162));
#1080=CARTESIAN_POINT('Ctrl Pts',(9.67644122809965,-740.499999840719,263.793734446652));
#1081=CARTESIAN_POINT('Ctrl Pts',(9.80975786249367,-740.499999843827,263.95423749688));
#1082=CARTESIAN_POINT('Ctrl Pts',(10.0938729506824,-740.499999850418,264.238352391271));
#1083=CARTESIAN_POINT('Ctrl Pts',(10.2543760467426,-740.499999854125,264.371668885541));
#1084=CARTESIAN_POINT('Ctrl Pts',(10.6038780253005,-740.499999862167,264.606647689391));
#1085=CARTESIAN_POINT('Ctrl Pts',(10.7928670647865,-740.4999998665,264.708324638905));
#1086=CARTESIAN_POINT('Ctrl Pts',(11.1870741168745,-740.499999875511,264.871610352033));
#1087=CARTESIAN_POINT('Ctrl Pts',(11.3926060606861,-740.499999880195,264.933349150056));
#1088=CARTESIAN_POINT('Ctrl Pts',(11.805896453513,-740.49999988959,265.014328915872));
#1089=CARTESIAN_POINT('Ctrl Pts',(12.0136582944503,-740.4999998943,265.033552571605));
#1090=CARTESIAN_POINT('Ctrl Pts',(12.2145579046834,-740.499999898844,265.033552471144));
#1091=CARTESIAN_POINT('',(12.2145563045082,-740.499999824495,258.633552609926));
#1092=CARTESIAN_POINT('Ctrl Pts',(12.214556304508,-740.499999895132,258.633552609926));
#1093=CARTESIAN_POINT('Ctrl Pts',(12.0136567009876,-740.499999890588,258.633552609926));
#1094=CARTESIAN_POINT('Ctrl Pts',(11.8058964669477,-740.499999885901,258.652776163915));
#1095=CARTESIAN_POINT('Ctrl Pts',(11.3926060867366,-740.4999998766,258.733755924561));
#1096=CARTESIAN_POINT('Ctrl Pts',(11.1870741488197,-740.499999871987,258.795494718701));
#1097=CARTESIAN_POINT('Ctrl Pts',(10.7928671069661,-740.499999863166,258.958780421799));
#1098=CARTESIAN_POINT('Ctrl Pts',(10.6038780718453,-740.49999985895,259.060457365153));
#1099=CARTESIAN_POINT('Ctrl Pts',(10.2543760999725,-740.499999851182,259.295436154976));
#1100=CARTESIAN_POINT('Ctrl Pts',(10.0938730062302,-740.499999847629,259.428752641376));
#1101=CARTESIAN_POINT('Ctrl Pts',(9.8097579176307,-740.499999841368,259.71286752193));
#1102=CARTESIAN_POINT('Ctrl Pts',(9.67644128080536,-740.499999838445,259.873370566471));
#1103=CARTESIAN_POINT('Ctrl Pts',(9.44146219002032,-740.499999833333,260.22287247386));
#1104=CARTESIAN_POINT('Ctrl Pts',(9.33978509611513,-740.499999831143,260.411861493675));
#1105=CARTESIAN_POINT('Ctrl Pts',(9.17649910311342,-740.499999827678,260.806068538528));
#1106=CARTESIAN_POINT('Ctrl Pts',(9.11476016932938,-740.499999826401,261.011600494901));
#1107=CARTESIAN_POINT('Ctrl Pts',(9.03378015046361,-740.499999824809,261.4248909411));
#1108=CARTESIAN_POINT('Ctrl Pts',(9.01455637746085,-740.499999824495,261.632652822861));
#1109=CARTESIAN_POINT('Ctrl Pts',(9.01455637389911,-740.499999824611,261.833552483803));
#1110=CARTESIAN_POINT('Ctrl Pts',(12.2145579046834,-740.499999898844,265.033552471144));
#1111=CARTESIAN_POINT('Ctrl Pts',(12.4154574364908,-740.499999903387,265.033552370683));
#1112=CARTESIAN_POINT('Ctrl Pts',(12.6232191796702,-740.499999908076,265.014328522159));
#1113=CARTESIAN_POINT('Ctrl Pts',(13.0365093441151,-740.499999917376,264.93334840341));
#1114=CARTESIAN_POINT('Ctrl Pts',(13.2420411573123,-740.499999921989,264.871609445208));
#1115=CARTESIAN_POINT('Ctrl Pts',(13.6362479265273,-740.49999993081,264.708323455));
#1116=CARTESIAN_POINT('Ctrl Pts',(13.8252368133257,-740.499999935025,264.606646388447));
#1117=CARTESIAN_POINT('Ctrl Pts',(14.1747384787769,-740.499999942794,264.371667398947));
#1118=CARTESIAN_POINT('Ctrl Pts',(14.3352414144252,-740.499999946347,264.238350836101));
#1119=CARTESIAN_POINT('Ctrl Pts',(14.6193561123561,-740.499999952608,263.954235930125));
#1120=CARTESIAN_POINT('Ctrl Pts',(14.7526725247776,-740.49999995553,263.793732945275));
#1121=CARTESIAN_POINT('Ctrl Pts',(14.9876512133149,-740.499999960642,263.44423121534));
#1122=CARTESIAN_POINT('Ctrl Pts',(15.0893281293161,-740.499999962832,263.255242313236));
#1123=CARTESIAN_POINT('Ctrl Pts',(15.2526138296213,-740.499999966296,262.86103554702));
#1124=CARTESIAN_POINT('Ctrl Pts',(15.3143526481788,-740.499999967573,262.65550375228));
#1125=CARTESIAN_POINT('Ctrl Pts',(15.3953325087087,-740.499999969165,262.242213653822));
#1126=CARTESIAN_POINT('Ctrl Pts',(15.4145562386789,-740.499999969479,262.034451958189));
#1127=CARTESIAN_POINT('Ctrl Pts',(15.4145562315555,-740.499999969246,261.632653012197));
#1128=CARTESIAN_POINT('Ctrl Pts',(15.39533249475,-740.499999968691,261.424891320029));
#1129=CARTESIAN_POINT('Ctrl Pts',(15.3143526217072,-740.49999996662,261.011601229669));
#1130=CARTESIAN_POINT('Ctrl Pts',(15.2526137974708,-740.499999965104,260.80606943956));
#1131=CARTESIAN_POINT('Ctrl Pts',(15.089328087342,-740.499999961183,260.411862683373));
#1132=CARTESIAN_POINT('Ctrl Pts',(14.9876511671913,-740.499999958773,260.222873786682));
#1133=CARTESIAN_POINT('Ctrl Pts',(14.752672472072,-740.499999953256,259.873372067848));
#1134=CARTESIAN_POINT('Ctrl Pts',(14.6193560572192,-740.499999950148,259.712869088685));
#1135=CARTESIAN_POINT('Ctrl Pts',(14.3352413588775,-740.499999943557,259.428754196546));
#1136=CARTESIAN_POINT('Ctrl Pts',(14.1747384255471,-740.49999993985,259.295437641569));
#1137=CARTESIAN_POINT('Ctrl Pts',(13.8252367667809,-740.499999931809,259.060458666097));
#1138=CARTESIAN_POINT('Ctrl Pts',(13.6362478843479,-740.499999927476,258.958781605705));
#1139=CARTESIAN_POINT('Ctrl Pts',(13.2420411253672,-740.499999918465,258.795495625525));
#1140=CARTESIAN_POINT('Ctrl Pts',(13.0365093180647,-740.499999913781,258.733756671208));
#1141=CARTESIAN_POINT('Ctrl Pts',(12.6232191662356,-740.499999904386,258.652776557628));
#1142=CARTESIAN_POINT('Ctrl Pts',(12.4154574297782,-740.499999899676,258.633552710387));
#1143=CARTESIAN_POINT('Ctrl Pts',(12.2145579046835,-740.499999895132,258.633552609927));
#1144=CARTESIAN_POINT('',(12.2145582705548,-739.799998525983,264.333551366465));
#1145=CARTESIAN_POINT('',(12.2145579046158,-740.500129235655,265.033681807906));
#1146=CARTESIAN_POINT('',(12.5681092808202,-739.799999876551,264.308426606617));
#1147=CARTESIAN_POINT('Origin',(12.2145569638735,-739.799999876551,261.833552514671));
#1148=CARTESIAN_POINT('',(12.3461941182089,-739.999999876551,264.530341769228));
#1149=CARTESIAN_POINT('Ctrl Pts',(12.3461941182089,-739.999999876551,264.530341769228));
#1150=CARTESIAN_POINT('Ctrl Pts',(12.4614184942193,-739.890530112844,264.415117393218));
#1151=CARTESIAN_POINT('Ctrl Pts',(12.5681092808195,-739.799999876551,264.308426606618));
#1152=CARTESIAN_POINT('',(14.9113460025023,-739.999999876551,261.965189884935));
#1153=CARTESIAN_POINT('Origin',(12.2145567548047,-739.999999876551,261.833552521531));
#1154=CARTESIAN_POINT('',(14.6894310558202,-739.799999876551,262.187104831617));
#1155=CARTESIAN_POINT('Ctrl Pts',(14.6894310558204,-739.799999876551,262.187104831617));
#1156=CARTESIAN_POINT('Ctrl Pts',(14.7961210153288,-739.890529486205,262.080414872108));
#1157=CARTESIAN_POINT('Ctrl Pts',(14.9113460025026,-739.99999987655,261.965189884935));
#1158=CARTESIAN_POINT('Origin',(12.2145569638735,-739.799999876551,261.833552514671));
#1159=CARTESIAN_POINT('Origin',(12.2145567548047,-739.999999876551,261.833552521531));
#1160=CARTESIAN_POINT('',(11.8610033872789,-739.799999876551,259.358678602675));
#1161=CARTESIAN_POINT('Origin',(12.2145569638735,-739.799999876551,261.833552514671));
#1162=CARTESIAN_POINT('',(12.0829186814666,-739.999999876551,259.136763308487));
#1163=CARTESIAN_POINT('Ctrl Pts',(12.0829186814666,-739.99999987655,259.136763308487));
#1164=CARTESIAN_POINT('Ctrl Pts',(11.9676934399884,-739.890529408061,259.251988549965));
#1165=CARTESIAN_POINT('Ctrl Pts',(11.8610033872791,-739.799999876551,259.358678602674));
#1166=CARTESIAN_POINT('',(9.51776754176093,-739.999999876551,261.701914448192));
#1167=CARTESIAN_POINT('Origin',(12.2145567548047,-739.999999876551,261.833552521531));
#1168=CARTESIAN_POINT('',(9.73968305187633,-739.799999876551,261.479998938077));
#1169=CARTESIAN_POINT('Ctrl Pts',(9.73968305187624,-739.799999876551,261.479998938077));
#1170=CARTESIAN_POINT('Ctrl Pts',(9.6329929014269,-739.890529408061,261.586689088526));
#1171=CARTESIAN_POINT('Ctrl Pts',(9.51776754176068,-739.99999987655,261.701914448193));
#1172=CARTESIAN_POINT('',(9.73968312933593,-739.799999876551,262.187106633481));
#1173=CARTESIAN_POINT('Origin',(12.2145569638735,-739.799999876551,261.833552514671));
#1174=CARTESIAN_POINT('',(9.51776756490726,-739.999999876551,261.965191069053));
#1175=CARTESIAN_POINT('Ctrl Pts',(9.51776756490703,-739.99999987655,261.965191069053));
#1176=CARTESIAN_POINT('Ctrl Pts',(9.63299209744982,-739.89053012866,262.080415601595));
#1177=CARTESIAN_POINT('Ctrl Pts',(9.73968312933498,-739.799999876551,262.187106633481));
#1178=CARTESIAN_POINT('',(12.0829182072824,-739.999999876551,264.530341711428));
#1179=CARTESIAN_POINT('Origin',(12.2145567548047,-739.999999876551,261.833552521531));
#1180=CARTESIAN_POINT('',(11.8610028450623,-739.799999876551,264.308426349208));
#1181=CARTESIAN_POINT('Ctrl Pts',(11.8610028450624,-739.799999876551,264.308426349208));
#1182=CARTESIAN_POINT('Ctrl Pts',(11.9676930412781,-739.890529486286,264.415116545424));
#1183=CARTESIAN_POINT('Ctrl Pts',(12.0829182072825,-739.999999876551,264.530341711428));
#1184=CARTESIAN_POINT('Origin',(12.2145569638735,-739.799999876551,261.833552514671));
#1185=CARTESIAN_POINT('Origin',(13.6287696660167,-739.999999876551,263.24776622142));
#1186=CARTESIAN_POINT('',(14.2145560671919,-739.799999876551,262.661979820245));
#1187=CARTESIAN_POINT('',(12.3461941182089,-739.799999876551,264.530341769228));
#1188=CARTESIAN_POINT('',(13.9216629635177,-739.999999876551,262.954872923919));
#1189=CARTESIAN_POINT('',(13.0429832648415,-739.799999876551,263.833552622596));
#1190=CARTESIAN_POINT('',(12.3461941182089,-739.799999876551,264.530341769228));
#1191=CARTESIAN_POINT('',(13.0429832648415,-739.599999876551,263.833552622596));
#1192=CARTESIAN_POINT('',(13.0429832648415,-739.999999876551,263.833552622596));
#1193=CARTESIAN_POINT('',(13.6287696660167,-739.599999876551,263.24776622142));
#1194=CARTESIAN_POINT('',(12.3461941182089,-739.599999876551,264.530341769228));
#1195=CARTESIAN_POINT('',(14.2145560671919,-739.599999876551,262.661979820245));
#1196=CARTESIAN_POINT('',(12.3461941182089,-739.599999876551,264.530341769228));
#1197=CARTESIAN_POINT('',(14.2145560671919,-739.999999876551,262.661979820245));
#1198=CARTESIAN_POINT('Origin',(10.8003426493857,-739.999999876551,263.247766153531));
#1199=CARTESIAN_POINT('',(11.38612911845,-739.799999876551,263.833552622596));
#1200=CARTESIAN_POINT('',(12.0829182072824,-739.799999876551,264.530341711428));
#1201=CARTESIAN_POINT('',(10.1590551993969,-739.999999876551,262.606478703543));
#1202=CARTESIAN_POINT('',(10.2145563160996,-739.799999876551,262.661979820245));
#1203=CARTESIAN_POINT('',(12.0829182072824,-739.799999876551,264.530341711428));
#1204=CARTESIAN_POINT('',(10.2145563160996,-739.599999876551,262.661979820245));
#1205=CARTESIAN_POINT('',(10.2145563160996,-739.999999876551,262.661979820245));
#1206=CARTESIAN_POINT('',(10.8003426493857,-739.599999876551,263.247766153531));
#1207=CARTESIAN_POINT('',(12.0829182072824,-739.599999876551,264.530341711428));
#1208=CARTESIAN_POINT('',(11.38612911845,-739.599999876551,263.833552622596));
#1209=CARTESIAN_POINT('',(12.0829182072824,-739.599999876551,264.530341711428));
#1210=CARTESIAN_POINT('',(11.38612911845,-739.999999876551,263.833552622596));
#1211=CARTESIAN_POINT('Origin',(9.86455647601314,-739.799999876551,261.83355274705));
#1212=CARTESIAN_POINT('',(10.2145563160996,-739.799999876551,261.005125673854));
#1213=CARTESIAN_POINT('',(9.51776754176093,-739.799999876551,261.701914448192));
#1214=CARTESIAN_POINT('',(10.2145563160996,-739.799999876551,261.419339210452));
#1215=CARTESIAN_POINT('Origin',(9.86455647601314,-739.799999876551,261.83355274705));
#1216=CARTESIAN_POINT('',(11.3861291184501,-739.799999876551,259.833552871503));
#1217=CARTESIAN_POINT('',(12.6287697282437,-739.799999876551,259.833552871503));
#1218=CARTESIAN_POINT('',(9.51776754176093,-739.799999876551,261.701914448192));
#1219=CARTESIAN_POINT('Origin',(11.3861291184501,-739.999999876551,259.833552871503));
#1220=CARTESIAN_POINT('',(11.3861291184501,-739.599999876551,259.833552871503));
#1221=CARTESIAN_POINT('',(11.3861291184501,-739.999999876551,259.833552871503));
#1222=CARTESIAN_POINT('',(10.8003427172748,-739.599999876551,260.419339272679));
#1223=CARTESIAN_POINT('',(9.51776754176093,-739.599999876551,261.701914448192));
#1224=CARTESIAN_POINT('',(10.2145563160996,-739.599999876551,261.005125673854));
#1225=CARTESIAN_POINT('',(9.51776754176093,-739.599999876551,261.701914448192));
#1226=CARTESIAN_POINT('',(10.2145563160996,-739.999999876551,261.005125673854));
#1227=CARTESIAN_POINT('',(10.5074496136006,-739.999999876551,260.712232376353));
#1228=CARTESIAN_POINT('Origin',(9.86455647601314,-739.799999876551,261.83355274705));
#1229=CARTESIAN_POINT('',(14.2145560671919,-739.799999876551,262.247766283647));
#1230=CARTESIAN_POINT('Origin',(9.86455647601314,-739.799999876551,261.83355274705));
#1231=CARTESIAN_POINT('',(11.8003426550479,-739.799999876551,263.833552622596));
#1232=CARTESIAN_POINT('Origin',(10.2145563160996,-739.999999876551,261.005125673854));
#1233=CARTESIAN_POINT('',(10.2145563160996,-739.599999876551,261.83355274705));
#1234=CARTESIAN_POINT('',(10.2145563160996,-739.599999876551,261.005125673854));
#1235=CARTESIAN_POINT('',(10.2145563160996,-739.599999876551,261.005125673854));
#1236=CARTESIAN_POINT('Origin',(12.2145565020842,-739.999999876551,261.833552669834));
#1237=CARTESIAN_POINT('Origin',(12.2145565020842,-739.999999876551,261.833552669834));
#1238=CARTESIAN_POINT('Origin',(12.2145565020842,-739.999999876551,261.833552669834));
#1239=CARTESIAN_POINT('Origin',(12.2145565020842,-739.999999876551,261.833552669834));
#1240=CARTESIAN_POINT('Origin',(12.9216629288312,-739.599999876551,263.540659422008));
#1241=CARTESIAN_POINT('',(12.2145561916457,-739.599999876551,263.833552622596));
#1242=CARTESIAN_POINT('',(11.38612911845,-739.599999876551,263.833552622596));
#1243=CARTESIAN_POINT('Origin',(12.2145561916457,-739.599999876551,261.83355274705));
#1244=CARTESIAN_POINT('Origin',(10.5074494827427,-739.599999876551,262.54065945029));
#1245=CARTESIAN_POINT('Origin',(12.2145561916457,-739.599999876551,261.83355274705));
#1246=CARTESIAN_POINT('Origin',(11.38612911845,-739.999999876551,263.833552622596));
#1247=CARTESIAN_POINT('',(11.38612911845,-739.599999876551,263.833552622596));
#1248=CARTESIAN_POINT('Origin',(11.5074494205157,-739.599999876551,263.540659388063));
#1249=CARTESIAN_POINT('Origin',(12.2145561916457,-739.599999876551,261.83355274705));
#1250=CARTESIAN_POINT('Origin',(10.5074495166872,-739.599999876551,261.126446009864));
#1251=CARTESIAN_POINT('Origin',(12.2145561916457,-739.599999876551,261.83355274705));
#1252=CARTESIAN_POINT('Origin',(13.9216628666043,-739.599999876551,261.126446009864));
#1253=CARTESIAN_POINT('',(14.2145560671919,-739.599999876551,261.83355274705));
#1254=CARTESIAN_POINT('',(14.2145560671919,-739.599999876551,262.661979820245));
#1255=CARTESIAN_POINT('Origin',(12.2145561916457,-739.599999876551,261.83355274705));
#1256=CARTESIAN_POINT('Origin',(14.2145560671919,-739.999999876551,262.661979820245));
#1257=CARTESIAN_POINT('',(14.2145560671919,-739.599999876551,262.661979820245));
#1258=CARTESIAN_POINT('Origin',(13.9216628666043,-739.599999876551,262.540659484235));
#1259=CARTESIAN_POINT('Origin',(12.2145561916457,-739.599999876551,261.83355274705));
#1260=CARTESIAN_POINT('Origin',(13.0429832648415,-739.999999876551,259.833552871503));
#1261=CARTESIAN_POINT('',(12.2145561916457,-739.599999876551,259.833552871503));
#1262=CARTESIAN_POINT('',(11.3861291184501,-739.599999876551,259.833552871503));
#1263=CARTESIAN_POINT('',(11.3861291184501,-739.599999876551,259.833552871503));
#1264=CARTESIAN_POINT('Origin',(12.9216629288312,-739.599999876551,260.126446072091));
#1265=CARTESIAN_POINT('Origin',(12.2145561916457,-739.599999876551,261.83355274705));
#1266=CARTESIAN_POINT('Origin',(11.5074494544603,-739.599999876551,260.126446072091));
#1267=CARTESIAN_POINT('Origin',(12.2145561916457,-739.599999876551,261.83355274705));
#1268=CARTESIAN_POINT('Origin',(12.2145575072759,-739.999960991337,261.833557845724));
#1269=CARTESIAN_POINT('',(12.2145575743331,-740.999999876551,244.833552831073));
#1270=CARTESIAN_POINT('Origin',(12.2145564344,-740.999999876551,261.833553010852));
#1271=CARTESIAN_POINT('',(12.2145575072781,-739.999999830979,243.83355245773));
#1272=CARTESIAN_POINT('',(12.2145575072759,-739.999966430594,243.833519057334));
#1273=CARTESIAN_POINT('',(12.2145575072789,-739.999999762562,279.83355242367));
#1274=CARTESIAN_POINT('Ctrl Pts',(12.2145575072789,-739.999999762562,279.83355242367));
#1275=CARTESIAN_POINT('Ctrl Pts',(13.3446172490633,-739.999999762955,279.833552347501));
#1276=CARTESIAN_POINT('Ctrl Pts',(14.5132769770496,-739.999999764001,279.72541873081));
#1277=CARTESIAN_POINT('Ctrl Pts',(16.8380341182564,-739.999999767506,279.26990667158));
#1278=CARTESIAN_POINT('Ctrl Pts',(17.9941506110363,-739.999999769963,278.922625609127));
#1279=CARTESIAN_POINT('Ctrl Pts',(20.2115639035059,-739.99999977617,278.004143072652));
#1280=CARTESIAN_POINT('Ctrl Pts',(21.2746265636348,-739.999999779925,277.432210155383));
#1281=CARTESIAN_POINT('Ctrl Pts',(23.2405738935949,-739.999999788431,276.110454467853));
#1282=CARTESIAN_POINT('Ctrl Pts',(24.1434031966001,-739.999999793183,275.360549348181));
#1283=CARTESIAN_POINT('Ctrl Pts',(25.7415493692969,-739.999999803197,273.762403692733));
#1284=CARTESIAN_POINT('Ctrl Pts',(26.4914548629616,-739.999999808801,272.859574512053));
#1285=CARTESIAN_POINT('Ctrl Pts',(27.8132112987565,-739.999999820896,270.893627342415));
#1286=CARTESIAN_POINT('Ctrl Pts',(28.3851445903309,-739.999999827387,269.830564720341));
#1287=CARTESIAN_POINT('Ctrl Pts',(29.3036278475734,-739.99999984083,267.613151420415));
#1288=CARTESIAN_POINT('Ctrl Pts',(29.6509092572146,-739.999999847793,266.457034881747));
#1289=CARTESIAN_POINT('Ctrl Pts',(30.10642195844,-739.99999986171,264.132277576479));
#1290=CARTESIAN_POINT('Ctrl Pts',(30.2145558698831,-739.999999868664,262.963617730283));
#1291=CARTESIAN_POINT('Ctrl Pts',(30.2145565394702,-739.999999882041,260.703497699828));
#1292=CARTESIAN_POINT('Ctrl Pts',(30.1064232705188,-739.99999988892,259.534837527846));
#1293=CARTESIAN_POINT('Ctrl Pts',(29.6509117454731,-739.99999990252,257.210079461477));
#1294=CARTESIAN_POINT('Ctrl Pts',(29.3036308696387,-739.999999909242,256.053962487526));
#1295=CARTESIAN_POINT('Ctrl Pts',(28.3851485357882,-739.999999922046,253.836548244904));
#1296=CARTESIAN_POINT('Ctrl Pts',(27.8132156342529,-739.999999928139,252.773485113985));
#1297=CARTESIAN_POINT('Ctrl Pts',(26.4914598171513,-739.999999939315,250.807536900894));
#1298=CARTESIAN_POINT('Ctrl Pts',(25.7415545520235,-739.999999944398,249.904707185629));
#1299=CARTESIAN_POINT('Ctrl Pts',(24.1434084179355,-739.999999953301,248.306560229616));
#1300=CARTESIAN_POINT('Ctrl Pts',(23.2405788970506,-739.999999957425,247.556654370203));
#1301=CARTESIAN_POINT('Ctrl Pts',(21.2746309387162,-739.999999964565,246.234897364085));
#1302=CARTESIAN_POINT('Ctrl Pts',(20.2115678682674,-739.99999996758,245.662963867766));
#1303=CARTESIAN_POINT('Ctrl Pts',(17.9941536137968,-739.999999972245,244.744480388594));
#1304=CARTESIAN_POINT('Ctrl Pts',(16.8380365669293,-739.999999973899,244.397198961065));
#1305=CARTESIAN_POINT('Ctrl Pts',(14.5132782398618,-739.999999975786,243.941686415868));
#1306=CARTESIAN_POINT('Ctrl Pts',(13.3446178800409,-739.99999997602,243.833552678547));
#1307=CARTESIAN_POINT('Ctrl Pts',(12.2145575072781,-739.999999975627,243.833552602378));
#1308=CARTESIAN_POINT('',(-5.78544361661539,-739.999999862834,261.833553314209));
#1309=CARTESIAN_POINT('Ctrl Pts',(-5.78544361661461,-739.999999862834,261.833557845735));
#1310=CARTESIAN_POINT('Ctrl Pts',(-5.78544328182106,-739.999999856145,262.963617873837));
#1311=CARTESIAN_POINT('Ctrl Pts',(-5.67730934293325,-739.999999849266,264.132277863782));
#1312=CARTESIAN_POINT('Ctrl Pts',(-5.22179653114533,-739.999999835666,266.457035438846));
#1313=CARTESIAN_POINT('Ctrl Pts',(-4.87451503844539,-739.999999828944,267.613152103574));
#1314=CARTESIAN_POINT('Ctrl Pts',(-3.95603156672955,-739.99999981614,269.830565622365));
#1315=CARTESIAN_POINT('Ctrl Pts',(-3.38409814341503,-739.999999810047,270.893628337792));
#1316=CARTESIAN_POINT('Ctrl Pts',(-2.06234140762761,-739.999999798871,272.859575650392));
#1317=CARTESIAN_POINT('Ctrl Pts',(-1.31243574566411,-739.999999793789,273.762404880641));
#1318=CARTESIAN_POINT('Ctrl Pts',(0.285710722924939,-739.999999784886,275.360550527305));
#1319=CARTESIAN_POINT('Ctrl Pts',(1.18854014755394,-739.999999780762,276.110455594983));
#1320=CARTESIAN_POINT('Ctrl Pts',(3.15448771491047,-739.999999773623,277.432211141754));
#1321=CARTESIAN_POINT('Ctrl Pts',(4.21755049080669,-739.999999770608,278.004143970285));
#1322=CARTESIAN_POINT('Ctrl Pts',(6.43496399774962,-739.999999765943,278.922626296679));
#1323=CARTESIAN_POINT('Ctrl Pts',(7.59108058956091,-739.99999976429,279.269907237685));
#1324=CARTESIAN_POINT('Ctrl Pts',(9.91583790392618,-739.999999762403,279.725419029322));
#1325=CARTESIAN_POINT('Ctrl Pts',(11.0844964927844,-739.999999762169,279.83355242367));
#1326=CARTESIAN_POINT('Ctrl Pts',(12.214556294031,-739.999999762562,279.83355242367));
#1327=CARTESIAN_POINT('Ctrl Pts',(12.2145575072781,-739.999999975627,243.833552602378));
#1328=CARTESIAN_POINT('Ctrl Pts',(11.0844970750533,-739.999999975234,243.833552526209));
#1329=CARTESIAN_POINT('Ctrl Pts',(9.91583664111271,-739.999999974188,243.941686117357));
#1330=CARTESIAN_POINT('Ctrl Pts',(7.59107814088684,-739.999999970684,244.39719839496));
#1331=CARTESIAN_POINT('Ctrl Pts',(6.43496099498793,-739.999999968226,244.744479701042));
#1332=CARTESIAN_POINT('Ctrl Pts',(4.21754652604405,-739.999999962019,245.662962970133));
#1333=CARTESIAN_POINT('Ctrl Pts',(3.15448333982793,-739.999999958264,246.234896377714));
#1334=CARTESIAN_POINT('Ctrl Pts',(1.18853514409713,-739.999999949758,247.556653243073));
#1335=CARTESIAN_POINT('Ctrl Pts',(0.285705501588515,-739.999999945005,248.306559050492));
#1336=CARTESIAN_POINT('Ctrl Pts',(-1.31244092839163,-739.999999934991,249.904705997721));
#1337=CARTESIAN_POINT('Ctrl Pts',(-2.06234636181821,-739.999999929387,250.807535762555));
#1338=CARTESIAN_POINT('Ctrl Pts',(-3.38410247891217,-739.999999917291,252.773484118608));
#1339=CARTESIAN_POINT('Ctrl Pts',(-3.95603551218749,-739.999999910801,253.836547342879));
#1340=CARTESIAN_POINT('Ctrl Pts',(-4.87451806051114,-739.999999897357,256.053961804367));
#1341=CARTESIAN_POINT('Ctrl Pts',(-5.22179901940418,-739.999999890394,257.210078904378));
#1342=CARTESIAN_POINT('Ctrl Pts',(-5.67731065501229,-739.999999876477,259.534837240543));
#1343=CARTESIAN_POINT('Ctrl Pts',(-5.78544366691469,-739.999999869522,260.703493024747));
#1344=CARTESIAN_POINT('Ctrl Pts',(-5.78544361661539,-739.999999862834,261.833553314209));
#1345=CARTESIAN_POINT('Origin',(12.2145575025152,-722.000035607546,261.833553852963));
#1346=CARTESIAN_POINT('',(12.2145575693202,-720.99999928193,278.833552354315));
#1347=CARTESIAN_POINT('Origin',(12.2145564336784,-720.999999876551,261.833552765683));
#1348=CARTESIAN_POINT('',(12.214556294031,-721.999999772413,279.83355242367));
#1349=CARTESIAN_POINT('',(12.2145575025152,-722.00003683074,279.833589481982));
#1350=CARTESIAN_POINT('',(-5.78544361661539,-721.999999895205,261.833553314209));
#1351=CARTESIAN_POINT('Ctrl Pts',(-5.7854436166154,-721.999999895205,261.833552513024));
#1352=CARTESIAN_POINT('Ctrl Pts',(-5.7854436166154,-721.999999902534,260.703492426019));
#1353=CARTESIAN_POINT('Ctrl Pts',(-5.67731001269582,-721.999999910078,259.534832345056));
#1354=CARTESIAN_POINT('Ctrl Pts',(-5.22179784427896,-721.999999925004,257.210074524339));
#1355=CARTESIAN_POINT('Ctrl Pts',(-4.87451666001177,-721.999999932386,256.053957705));
#1356=CARTESIAN_POINT('Ctrl Pts',(-3.95603375722864,-721.99999994646,253.836543824293));
#1357=CARTESIAN_POINT('Ctrl Pts',(-3.38410059480373,-721.999999953163,252.773480901121));
#1358=CARTESIAN_POINT('Ctrl Pts',(-2.06234431835924,-721.99999996547,250.807533138275));
#1359=CARTESIAN_POINT('Ctrl Pts',(-1.3124388548136,-721.999999971074,249.904703665518));
#1360=CARTESIAN_POINT('Ctrl Pts',(0.285707446524945,-721.999999980903,248.306557364179));
#1361=CARTESIAN_POINT('Ctrl Pts',(1.18853691928195,-721.999999985464,247.556651900634));
#1362=CARTESIAN_POINT('Ctrl Pts',(3.15448468212752,-721.999999993377,246.234895624189));
#1363=CARTESIAN_POINT('Ctrl Pts',(4.21754760530009,-721.99999999673,245.662962461764));
#1364=CARTESIAN_POINT('Ctrl Pts',(6.43496148600693,-722.000000001943,244.744479558981));
#1365=CARTESIAN_POINT('Ctrl Pts',(7.59107830534637,-722.000000003808,244.397198374714));
#1366=CARTESIAN_POINT('Ctrl Pts',(9.91583612606279,-722.000000005982,243.941686206297));
#1367=CARTESIAN_POINT('Ctrl Pts',(11.0844962070263,-722.000000006291,243.833552602378));
#1368=CARTESIAN_POINT('Ctrl Pts',(12.214556294031,-722.000000005911,243.833552602378));
#1369=CARTESIAN_POINT('Ctrl Pts',(13.3446163810357,-722.000000005532,243.833552602378));
#1370=CARTESIAN_POINT('Ctrl Pts',(14.5132764619992,-722.000000004438,243.941686206297));
#1371=CARTESIAN_POINT('Ctrl Pts',(16.8380342827156,-722.000000000703,244.397198374714));
#1372=CARTESIAN_POINT('Ctrl Pts',(17.994151102055,-721.999999998063,244.744479558981));
#1373=CARTESIAN_POINT('Ctrl Pts',(20.2115649827619,-721.999999991361,245.662962461764));
#1374=CARTESIAN_POINT('Ctrl Pts',(21.2746279059344,-721.999999987295,246.234895624189));
#1375=CARTESIAN_POINT('Ctrl Pts',(23.24057566878,-721.999999978062,247.556651900634));
#1376=CARTESIAN_POINT('Ctrl Pts',(24.143405141537,-721.999999972895,248.306557364179));
#1377=CARTESIAN_POINT('Ctrl Pts',(25.7415514428756,-721.999999961993,249.904703665518));
#1378=CARTESIAN_POINT('Ctrl Pts',(26.4914569064212,-721.999999955885,250.807533138275));
#1379=CARTESIAN_POINT('Ctrl Pts',(27.8132131828657,-721.99999994269,252.773480901121));
#1380=CARTESIAN_POINT('Ctrl Pts',(28.3851463452906,-721.999999935603,253.836543824293));
#1381=CARTESIAN_POINT('Ctrl Pts',(29.3036292480737,-721.999999920912,256.053957705));
#1382=CARTESIAN_POINT('Ctrl Pts',(29.6509104323409,-721.999999913297,257.210074524339));
#1383=CARTESIAN_POINT('Ctrl Pts',(30.1064226007578,-721.999999898066,259.534832345056));
#1384=CARTESIAN_POINT('Ctrl Pts',(30.2145562046774,-721.999999890449,260.703492426019));
#1385=CARTESIAN_POINT('Ctrl Pts',(30.2145562046774,-721.99999987579,262.963612600029));
#1386=CARTESIAN_POINT('Ctrl Pts',(30.1064226007578,-721.999999868246,264.132272680992));
#1387=CARTESIAN_POINT('Ctrl Pts',(29.6509104323409,-721.999999853321,266.457030501709));
#1388=CARTESIAN_POINT('Ctrl Pts',(29.3036292480737,-721.999999845938,267.613147321048));
#1389=CARTESIAN_POINT('Ctrl Pts',(28.3851463452906,-721.999999831864,269.830561201755));
#1390=CARTESIAN_POINT('Ctrl Pts',(27.8132131828657,-721.999999825161,270.893624124927));
#1391=CARTESIAN_POINT('Ctrl Pts',(26.4914569064212,-721.999999812854,272.859571887773));
#1392=CARTESIAN_POINT('Ctrl Pts',(25.7415514428756,-721.99999980725,273.76240136053));
#1393=CARTESIAN_POINT('Ctrl Pts',(24.143405141537,-721.999999797421,275.360547661869));
#1394=CARTESIAN_POINT('Ctrl Pts',(23.24057566878,-721.99999979286,276.110453125414));
#1395=CARTESIAN_POINT('Ctrl Pts',(21.2746279059344,-721.999999784947,277.432209401859));
#1396=CARTESIAN_POINT('Ctrl Pts',(20.2115649827619,-721.999999781594,278.004142564284));
#1397=CARTESIAN_POINT('Ctrl Pts',(17.994151102055,-721.999999776381,278.922625467067));
#1398=CARTESIAN_POINT('Ctrl Pts',(16.8380342827156,-721.999999774516,279.269906651334));
#1399=CARTESIAN_POINT('Ctrl Pts',(14.5132764619992,-721.999999772342,279.725418819751));
#1400=CARTESIAN_POINT('Ctrl Pts',(13.3446175895219,-721.999999772033,279.8335523478));
#1401=CARTESIAN_POINT('Ctrl Pts',(12.2145575025173,-721.999999772413,279.83355242367));
#1402=CARTESIAN_POINT('Ctrl Pts',(12.214556294031,-721.999999772413,279.83355242367));
#1403=CARTESIAN_POINT('Ctrl Pts',(11.0844962070263,-721.999999772792,279.83355242367));
#1404=CARTESIAN_POINT('Ctrl Pts',(9.91583612606279,-721.999999773886,279.725418819751));
#1405=CARTESIAN_POINT('Ctrl Pts',(7.59107830534637,-721.999999777621,279.269906651334));
#1406=CARTESIAN_POINT('Ctrl Pts',(6.43496148600694,-721.999999780261,278.922625467067));
#1407=CARTESIAN_POINT('Ctrl Pts',(4.21754760530009,-721.999999786963,278.004142564284));
#1408=CARTESIAN_POINT('Ctrl Pts',(3.15448468212752,-721.999999791029,277.432209401859));
#1409=CARTESIAN_POINT('Ctrl Pts',(1.18853691928194,-721.999999800262,276.110453125414));
#1410=CARTESIAN_POINT('Ctrl Pts',(0.28570744652495,-721.99999980543,275.360547661869));
#1411=CARTESIAN_POINT('Ctrl Pts',(-1.3124388548136,-721.999999816332,273.76240136053));
#1412=CARTESIAN_POINT('Ctrl Pts',(-2.06234431835924,-721.999999822439,272.859571887773));
#1413=CARTESIAN_POINT('Ctrl Pts',(-3.38410059480373,-721.999999835634,270.893624124927));
#1414=CARTESIAN_POINT('Ctrl Pts',(-3.95603375722864,-721.999999842721,269.830561201755));
#1415=CARTESIAN_POINT('Ctrl Pts',(-4.87451666001177,-721.999999857412,267.613147321048));
#1416=CARTESIAN_POINT('Ctrl Pts',(-5.22179784427896,-721.999999865027,266.457030501709));
#1417=CARTESIAN_POINT('Ctrl Pts',(-5.67731001269582,-721.999999880259,264.132272680992));
#1418=CARTESIAN_POINT('Ctrl Pts',(-5.78544356631609,-721.999999887875,262.963613401214));
#1419=CARTESIAN_POINT('Ctrl Pts',(-5.78544361661538,-721.999999895204,261.833553314209));
#1420=CARTESIAN_POINT('Origin',(12.2145563045082,-737.949996824793,261.833552540535));
#1421=CARTESIAN_POINT('',(12.2145563045082,-737.999999876551,258.633552609926));
#1422=CARTESIAN_POINT('Origin',(12.2145563045082,-737.999999876551,261.833552540535));
#1423=CARTESIAN_POINT('',(12.2145563045082,-737.949996824793,258.633552609926));
#1424=CARTESIAN_POINT('',(12.2145563045082,-737.949996824793,258.633552609926));
#1425=CARTESIAN_POINT('Origin',(12.2145563045082,-737.949996824793,261.833552540535));
#1426=CARTESIAN_POINT('Origin',(12.214556457251,-719.999999026787,261.833552671629));
#1427=CARTESIAN_POINT('',(12.2145562919532,-721.000001787521,255.833552447327));
#1428=CARTESIAN_POINT('Origin',(12.2145562919537,-720.999999876551,261.833552531996));
#1429=CARTESIAN_POINT('',(12.2145564572511,-719.999997594241,255.833552586961));
#1430=CARTESIAN_POINT('',(12.214556457251,-719.999998188987,255.833552586961));
#1431=CARTESIAN_POINT('Origin',(12.2145564572509,-719.999999876551,261.833552671629));
#1432=CARTESIAN_POINT('Origin',(12.2145561916457,-737.949996824793,261.83355274705));
#1433=CARTESIAN_POINT('',(12.2145561916457,-737.949996824793,263.833552622596));
#1434=CARTESIAN_POINT('',(12.2145561916457,-737.949996824793,263.833552622596));
#1435=CARTESIAN_POINT('Origin',(12.2145561916457,-737.949996824793,261.83355274705));
#1436=CARTESIAN_POINT('Origin',(12.2145563045082,-740.999999876551,261.833552540535));
#1437=CARTESIAN_POINT('',(12.2145563045082,-740.999999876551,258.633552609926));
#1438=CARTESIAN_POINT('',(12.2145563045082,-740.999999876551,258.633552609926));
#1439=CARTESIAN_POINT('Origin',(12.2145563045082,-740.999999876551,261.833552540535));
#1440=CARTESIAN_POINT('Origin',(12.214556294031,-739.999999876551,261.833552513024));
#1441=CARTESIAN_POINT('',(12.214556294031,-739.999999876551,279.83355242367));
#1442=CARTESIAN_POINT('Origin',(12.214556451129,-719.999999876551,261.833552639301));
#1443=CARTESIAN_POINT('',(11.6557754581809,-719.999999876551,257.519590377808));
#1444=CARTESIAN_POINT('',(8.19916573222877,-719.999999876551,260.160490036011));
#1445=CARTESIAN_POINT('',(9.92747034440951,-719.999999876551,258.840040398521));
#1446=CARTESIAN_POINT('',(15.6711658542991,-719.999999876551,259.192653656006));
#1447=CARTESIAN_POINT('',(13.6634712178119,-719.999999876551,258.356122250893));
#1448=CARTESIAN_POINT('',(16.2299465244651,-719.999999876551,263.506614685059));
#1449=CARTESIAN_POINT('',(15.9505562038226,-719.999999876551,261.349634282018));
#1450=CARTESIAN_POINT('',(12.773336798513,-719.999999876551,266.147514343262));
#1451=CARTESIAN_POINT('',(14.5016419816152,-719.999999876551,264.827064269579));
#1452=CARTESIAN_POINT('',(8.75794640239478,-719.999999876551,264.474451065064));
#1453=CARTESIAN_POINT('',(10.7656414128856,-719.999999876551,265.31098262601));
#1454=CARTESIAN_POINT('',(8.47855609370975,-719.999999876551,262.317470754338));
#1455=CARTESIAN_POINT('Origin',(12.2145563035116,-737.999999876551,261.833552574625));
#1456=CARTESIAN_POINT('',(8.75794640239478,-737.999999876551,264.474451065064));
#1457=CARTESIAN_POINT('',(8.19916573222877,-737.999999876551,260.160490036011));
#1458=CARTESIAN_POINT('',(8.47855608837226,-737.999999876551,262.317470713131));
#1459=CARTESIAN_POINT('',(12.773336798513,-737.999999876551,266.147514343262));
#1460=CARTESIAN_POINT('',(10.7656413385143,-737.999999876551,265.310982595022));
#1461=CARTESIAN_POINT('',(16.2299465244651,-737.999999876551,263.506614685059));
#1462=CARTESIAN_POINT('',(14.501641950611,-737.999999876551,264.827064293267));
#1463=CARTESIAN_POINT('',(15.6711658542991,-737.999999876551,259.192653656006));
#1464=CARTESIAN_POINT('',(15.9505561984851,-737.999999876551,261.349634240811));
#1465=CARTESIAN_POINT('',(11.6557754581809,-737.999999876551,257.519590377808));
#1466=CARTESIAN_POINT('',(13.6634711434406,-737.999999876551,258.356122219905));
#1467=CARTESIAN_POINT('',(9.9274703134053,-737.999999876551,258.840040422208));
#1468=CARTESIAN_POINT('Origin',(10.7656416004539,-728.999999876551,265.310982704163));
#1469=CARTESIAN_POINT('',(8.75794640239478,-728.999999876551,264.474451065064));
#1470=CARTESIAN_POINT('',(12.7733367985129,-728.999999876551,266.147514343262));
#1471=CARTESIAN_POINT('Origin',(8.47855606731178,-728.999999876551,262.317470550537));
#1472=CARTESIAN_POINT('',(8.19916573222877,-728.999999876551,260.160490036011));
#1473=CARTESIAN_POINT('Origin',(9.92747059520484,-728.999999876551,258.840040206909));
#1474=CARTESIAN_POINT('',(11.6557754581809,-728.999999876551,257.519590377808));
#1475=CARTESIAN_POINT('Origin',(13.66347065624,-728.999999876551,258.356122016907));
#1476=CARTESIAN_POINT('',(15.6711658542991,-728.999999876551,259.192653656006));
#1477=CARTESIAN_POINT('Origin',(15.9505561893821,-728.999999876551,261.349634170532));
#1478=CARTESIAN_POINT('',(16.2299465244651,-728.999999876551,263.506614685059));
#1479=CARTESIAN_POINT('Origin',(14.501641661489,-728.999999876551,264.82706451416));
#1480=CARTESIAN_POINT('Origin',(12.2145563884399,-737.949996824793,261.833552670169));
#1481=CARTESIAN_POINT('Origin',(12.2145564866044,-740.999999876551,261.833552776928));
#1482=CARTESIAN_POINT('Origin',(12.2145564986125,-720.999999876551,261.833552734761));
#1483=UNCERTAINTY_MEASURE_WITH_UNIT(LENGTH_MEASURE(0.01),#1487,
'DISTANCE_ACCURACY_VALUE',
'Maximum model space distance between geometric entities at asserted c
onnectivities');
#1484=UNCERTAINTY_MEASURE_WITH_UNIT(LENGTH_MEASURE(0.01),#1487,
'DISTANCE_ACCURACY_VALUE',
'Maximum model space distance between geometric entities at asserted c
onnectivities');
#1485=(
GEOMETRIC_REPRESENTATION_CONTEXT(3)
GLOBAL_UNCERTAINTY_ASSIGNED_CONTEXT((#1483))
GLOBAL_UNIT_ASSIGNED_CONTEXT((#1487,#1489,#1490))
REPRESENTATION_CONTEXT('','3D')
);
#1486=(
GEOMETRIC_REPRESENTATION_CONTEXT(3)
GLOBAL_UNCERTAINTY_ASSIGNED_CONTEXT((#1484))
GLOBAL_UNIT_ASSIGNED_CONTEXT((#1487,#1489,#1490))
REPRESENTATION_CONTEXT('','3D')
);
#1487=(
LENGTH_UNIT()
NAMED_UNIT(*)
SI_UNIT(.MILLI.,.METRE.)
);
#1488=(
LENGTH_UNIT()
NAMED_UNIT(*)
SI_UNIT($,.METRE.)
);
#1489=(
NAMED_UNIT(*)
PLANE_ANGLE_UNIT()
SI_UNIT($,.RADIAN.)
);
#1490=(
NAMED_UNIT(*)
SI_UNIT($,.STERADIAN.)
SOLID_ANGLE_UNIT()
);
#1491=SHAPE_DEFINITION_REPRESENTATION(#1492,#1493);
#1492=PRODUCT_DEFINITION_SHAPE('',$,#1495);
#1493=SHAPE_REPRESENTATION('',(#773),#1485);
#1494=PRODUCT_DEFINITION_CONTEXT('part definition',#1499,'design');
#1495=PRODUCT_DEFINITION('4_Roller_Drum','4_Roller_Drum v3',#1496,#1494);
#1496=PRODUCT_DEFINITION_FORMATION('',$,#1501);
#1497=PRODUCT_RELATED_PRODUCT_CATEGORY('4_Roller_Drum v3',
'4_Roller_Drum v3',(#1501));
#1498=APPLICATION_PROTOCOL_DEFINITION('international standard',
'automotive_design',2009,#1499);
#1499=APPLICATION_CONTEXT(
'Core Data for Automotive Mechanical Design Process');
#1500=PRODUCT_CONTEXT('part definition',#1499,'mechanical');
#1501=PRODUCT('4_Roller_Drum','4_Roller_Drum v3',$,(#1500));
#1502=PRESENTATION_STYLE_ASSIGNMENT((#1503));
#1503=SURFACE_STYLE_USAGE(.BOTH.,#1504);
#1504=SURFACE_SIDE_STYLE('',(#1505));
#1505=SURFACE_STYLE_FILL_AREA(#1506);
#1506=FILL_AREA_STYLE('Steel - Satin',(#1507));
#1507=FILL_AREA_STYLE_COLOUR('Steel - Satin',#1508);
#1508=COLOUR_RGB('Steel - Satin',0.627450980392157,0.627450980392157,0.627450980392157);
ENDSEC;
END-ISO-10303-21;
