ISO-10303-21;
HEADER;
/* Generated by software containing ST-Developer
 * from STEP Tools, Inc. (www.steptools.com) 
 */

FILE_DESCRIPTION(
/* description */ (''),
/* implementation_level */ '2;1');

FILE_NAME(
/* name */ '6_Front_Roller.step',
/* time_stamp */ '2025-10-20T20:41:54-07:00',
/* author */ (''),
/* organization */ (''),
/* preprocessor_version */ 'ST-DEVELOPER v20.1',
/* originating_system */ 'Autodesk Translation Framework v14.17.0.0',
/* authorisation */ '');

FILE_SCHEMA (('AUTOMOTIVE_DESIGN { 1 0 10303 214 3 1 1 }'));
ENDSEC;

DATA;
#10=MECHANICAL_DESIGN_GEOMETRIC_PRESENTATION_REPRESENTATION('',(#13),#684);
#11=SHAPE_REPRESENTATION_RELATIONSHIP('SRR','None',#691,#12);
#12=ADVANCED_BREP_SHAPE_REPRESENTATION('',(#14),#683);
#13=STYLED_ITEM('',(#700),#14);
#14=MANIFOLD_SOLID_BREP('Front Roller Body',#320);
#15=B_SPLINE_CURVE_WITH_KNOTS('',3,(#502,#503,#504,#505,#506,#507,#508,
#509,#510,#511,#512,#513,#514,#515,#516,#517,#518,#519,#520,#521,#522,#523,
#524,#525,#526,#527,#528,#529,#530,#531,#532,#533,#534,#535),
 .UNSPECIFIED.,.F.,.F.,(4,2,2,2,2,2,2,2,2,2,2,2,2,2,2,2,4),(39.1754203642258,
40.3996520769075,41.6238837895893,42.848115502271,44.0723472149528,45.2965790895438,
46.5208109641348,47.7450428387259,48.9692747133169,50.193506718902,51.4177387244872,
52.6419707300723,53.8662027356574,55.0904347645869,56.3146667935165,57.538898822446,
57.8259926534669),.UNSPECIFIED.);
#16=B_SPLINE_CURVE_WITH_KNOTS('',3,(#536,#537,#538,#539,#540,#541,#542,
#543,#544,#545,#546,#547,#548,#549,#550,#551,#552,#553,#554,#555,#556,#557,
#558,#559,#560,#561,#562,#563,#564,#565,#566,#567,#568,#569),
 .UNSPECIFIED.,.F.,.F.,(4,2,2,2,2,2,2,2,2,2,2,2,2,2,2,2,4),(20.6135006415053,
20.8119431617119,22.0361751364031,23.2604071110944,24.4846390857857,25.7088708985677,
26.9331027113497,28.1573345241317,29.3815663369137,30.6057980187015,31.8300297004894,
33.0542613822772,34.278493064065,35.5027247225085,36.726956380952,37.9511880393954,
39.1754196978389),.UNSPECIFIED.);
#17=B_SPLINE_CURVE_WITH_KNOTS('',3,(#587,#588,#589,#590,#591,#592,#593,
#594,#595,#596,#597,#598,#599,#600,#601,#602,#603,#604,#605,#606,#607,#608,
#609,#610,#611,#612,#613,#614,#615,#616,#617,#618,#619,#620),
 .UNSPECIFIED.,.F.,.F.,(4,2,2,2,2,2,2,2,2,2,2,2,2,2,2,2,4),(19.5877098489194,
20.8119417144769,22.0361735800344,23.2604054455918,24.4846373111493,25.7088691767067,
26.9331010422642,28.1573329078217,29.3815647733791,30.6057966389366,31.8300285044941,
33.0542603700515,34.278492235609,35.5027241011665,36.7269559667239,37.9511878322814,
38.1496296081942),.UNSPECIFIED.);
#18=B_SPLINE_CURVE_WITH_KNOTS('',3,(#621,#622,#623,#624,#625,#626,#627,
#628,#629,#630,#631,#632,#633,#634,#635,#636,#637,#638,#639,#640,#641,#642,
#643,#644,#645,#646,#647,#648,#649,#650,#651,#652,#653,#654),
 .UNSPECIFIED.,.F.,.F.,(4,2,2,2,2,2,2,2,2,2,2,2,2,2,2,2,4),(0.937137584605043,
1.22423186555746,2.44846373111493,3.67269559667239,4.89692746222986,6.12115932778732,
7.34539119334478,8.56962305890225,9.79385492445971,11.0180867900172,12.2423186555746,
13.4665505211321,14.6907823866896,15.915014252247,17.1392461178045,18.363477983362,
19.5877098489194),.UNSPECIFIED.);
#19=(
BOUNDED_CURVE()
B_SPLINE_CURVE(2,(#487,#488,#489),.UNSPECIFIED.,.F.,.F.)
B_SPLINE_CURVE_WITH_KNOTS((3,3),(2.12489681502067,2.73309883512264),
 .UNSPECIFIED.)
CURVE()
GEOMETRIC_REPRESENTATION_ITEM()
RATIONAL_B_SPLINE_CURVE((2.32527224996437,2.50557284251446,2.68051326829126))
REPRESENTATION_ITEM('')
);
#20=(
BOUNDED_CURVE()
B_SPLINE_CURVE(2,(#497,#498,#499,#500),.UNSPECIFIED.,.F.,.F.)
B_SPLINE_CURVE_WITH_KNOTS((3,1,3),(-43.3500160491244,-42.8223549371652,
-42.7905099007342),.UNSPECIFIED.)
CURVE()
GEOMETRIC_REPRESENTATION_ITEM()
RATIONAL_B_SPLINE_CURVE((2.3414927962292,2.51490022001708,2.69408601781223,
2.70426851607048))
REPRESENTATION_ITEM('')
);
#21=(
BOUNDED_CURVE()
B_SPLINE_CURVE(2,(#577,#578,#579,#580),.UNSPECIFIED.,.F.,.F.)
B_SPLINE_CURVE_WITH_KNOTS((3,1,3),(42.4330337489355,42.4744894587335,43.0412351993133),
 .UNSPECIFIED.)
CURVE()
GEOMETRIC_REPRESENTATION_ITEM()
RATIONAL_B_SPLINE_CURVE((2.68051369412915,2.66858955081805,2.49328372843132,
2.32527259702026))
REPRESENTATION_ITEM('')
);
#22=(
BOUNDED_CURVE()
B_SPLINE_CURVE(2,(#583,#584,#585),.UNSPECIFIED.,.F.,.F.)
B_SPLINE_CURVE_WITH_KNOTS((3,3),(-2.50874739279468,-1.94924073816523),
 .UNSPECIFIED.)
CURVE()
GEOMETRIC_REPRESENTATION_ITEM()
RATIONAL_B_SPLINE_CURVE((2.70426830053797,2.52536543585468,2.34149271184025))
REPRESENTATION_ITEM('')
);
#23=FACE_BOUND('',#62,.T.);
#24=FACE_BOUND('',#76,.T.);
#25=PLANE('',#339);
#26=PLANE('',#346);
#27=PLANE('',#347);
#28=PLANE('',#348);
#29=PLANE('',#351);
#30=PLANE('',#356);
#31=PLANE('',#357);
#32=PLANE('',#358);
#33=PLANE('',#359);
#34=PLANE('',#360);
#35=PLANE('',#361);
#36=PLANE('',#362);
#37=CYLINDRICAL_SURFACE('',#337,1.89999951017926);
#38=CYLINDRICAL_SURFACE('',#344,1.84999951017926);
#39=CYLINDRICAL_SURFACE('',#353,6.50000052329177);
#40=FACE_OUTER_BOUND('',#59,.T.);
#41=FACE_OUTER_BOUND('',#60,.T.);
#42=FACE_OUTER_BOUND('',#61,.T.);
#43=FACE_OUTER_BOUND('',#63,.T.);
#44=FACE_OUTER_BOUND('',#64,.T.);
#45=FACE_OUTER_BOUND('',#65,.T.);
#46=FACE_OUTER_BOUND('',#66,.T.);
#47=FACE_OUTER_BOUND('',#67,.T.);
#48=FACE_OUTER_BOUND('',#68,.T.);
#49=FACE_OUTER_BOUND('',#69,.T.);
#50=FACE_OUTER_BOUND('',#70,.T.);
#51=FACE_OUTER_BOUND('',#71,.T.);
#52=FACE_OUTER_BOUND('',#72,.T.);
#53=FACE_OUTER_BOUND('',#73,.T.);
#54=FACE_OUTER_BOUND('',#74,.T.);
#55=FACE_OUTER_BOUND('',#75,.T.);
#56=FACE_OUTER_BOUND('',#77,.T.);
#57=FACE_OUTER_BOUND('',#78,.T.);
#58=FACE_OUTER_BOUND('',#79,.T.);
#59=EDGE_LOOP('',(#211,#212,#213,#214));
#60=EDGE_LOOP('',(#215,#216,#217,#218));
#61=EDGE_LOOP('',(#219,#220,#221,#222));
#62=EDGE_LOOP('',(#223));
#63=EDGE_LOOP('',(#224,#225,#226,#227));
#64=EDGE_LOOP('',(#228,#229,#230,#231));
#65=EDGE_LOOP('',(#232));
#66=EDGE_LOOP('',(#233));
#67=EDGE_LOOP('',(#234,#235,#236,#237,#238));
#68=EDGE_LOOP('',(#239,#240,#241,#242,#243));
#69=EDGE_LOOP('',(#244,#245,#246,#247,#248));
#70=EDGE_LOOP('',(#249,#250,#251,#252,#253));
#71=EDGE_LOOP('',(#254,#255,#256,#257,#258,#259,#260,#261,#262,#263,#264,
#265));
#72=EDGE_LOOP('',(#266,#267,#268,#269));
#73=EDGE_LOOP('',(#270,#271,#272,#273));
#74=EDGE_LOOP('',(#274,#275,#276,#277));
#75=EDGE_LOOP('',(#278,#279,#280,#281));
#76=EDGE_LOOP('',(#282));
#77=EDGE_LOOP('',(#283,#284,#285,#286,#287));
#78=EDGE_LOOP('',(#288,#289,#290,#291));
#79=EDGE_LOOP('',(#292,#293,#294,#295,#296));
#80=LINE('',#453,#105);
#81=LINE('',#457,#106);
#82=LINE('',#462,#107);
#83=LINE('',#464,#108);
#84=LINE('',#466,#109);
#85=LINE('',#472,#110);
#86=LINE('',#477,#111);
#87=LINE('',#483,#112);
#88=LINE('',#485,#113);
#89=LINE('',#491,#114);
#90=LINE('',#492,#115);
#91=LINE('',#572,#116);
#92=LINE('',#574,#117);
#93=LINE('',#576,#118);
#94=LINE('',#658,#119);
#95=LINE('',#659,#120);
#96=LINE('',#661,#121);
#97=LINE('',#665,#122);
#98=LINE('',#666,#123);
#99=LINE('',#669,#124);
#100=LINE('',#670,#125);
#101=LINE('',#673,#126);
#102=LINE('',#674,#127);
#103=LINE('',#676,#128);
#104=LINE('',#679,#129);
#105=VECTOR('',#369,1.99999951017928);
#106=VECTOR('',#374,1.84999951017926);
#107=VECTOR('',#379,1.);
#108=VECTOR('',#380,1.);
#109=VECTOR('',#381,1.);
#110=VECTOR('',#388,1.64999951017927);
#111=VECTOR('',#395,1.);
#112=VECTOR('',#402,1.);
#113=VECTOR('',#403,1.);
#114=VECTOR('',#404,1.);
#115=VECTOR('',#405,1.);
#116=VECTOR('',#412,1.);
#117=VECTOR('',#413,1.);
#118=VECTOR('',#414,1.);
#119=VECTOR('',#421,1.);
#120=VECTOR('',#422,1.);
#121=VECTOR('',#423,1.);
#122=VECTOR('',#428,1.);
#123=VECTOR('',#429,1.);
#124=VECTOR('',#432,1.);
#125=VECTOR('',#433,1.);
#126=VECTOR('',#436,1.);
#127=VECTOR('',#437,1.);
#128=VECTOR('',#440,1.);
#129=VECTOR('',#445,1.);
#130=CIRCLE('',#335,2.0999995101793);
#131=CIRCLE('',#336,1.89999951017926);
#132=CIRCLE('',#338,1.89999951017926);
#133=CIRCLE('',#340,5.50000071027787);
#134=CIRCLE('',#342,1.84999951017926);
#135=CIRCLE('',#343,1.44999951017927);
#136=CIRCLE('',#345,1.84999951017926);
#137=CIRCLE('',#350,5.50000066741803);
#138=CIRCLE('',#354,6.50000052329177);
#139=CIRCLE('',#355,6.50000052329177);
#140=VERTEX_POINT('',#450);
#141=VERTEX_POINT('',#452);
#142=VERTEX_POINT('',#456);
#143=VERTEX_POINT('',#460);
#144=VERTEX_POINT('',#461);
#145=VERTEX_POINT('',#463);
#146=VERTEX_POINT('',#465);
#147=VERTEX_POINT('',#469);
#148=VERTEX_POINT('',#471);
#149=VERTEX_POINT('',#475);
#150=VERTEX_POINT('',#481);
#151=VERTEX_POINT('',#482);
#152=VERTEX_POINT('',#484);
#153=VERTEX_POINT('',#486);
#154=VERTEX_POINT('',#490);
#155=VERTEX_POINT('',#494);
#156=VERTEX_POINT('',#496);
#157=VERTEX_POINT('',#501);
#158=VERTEX_POINT('',#571);
#159=VERTEX_POINT('',#573);
#160=VERTEX_POINT('',#575);
#161=VERTEX_POINT('',#582);
#162=VERTEX_POINT('',#586);
#163=VERTEX_POINT('',#656);
#164=VERTEX_POINT('',#660);
#165=VERTEX_POINT('',#664);
#166=VERTEX_POINT('',#668);
#167=VERTEX_POINT('',#672);
#168=EDGE_CURVE('',#140,#140,#130,.T.);
#169=EDGE_CURVE('',#140,#141,#80,.T.);
#170=EDGE_CURVE('',#141,#141,#131,.T.);
#171=EDGE_CURVE('',#141,#142,#81,.T.);
#172=EDGE_CURVE('',#142,#142,#132,.F.);
#173=EDGE_CURVE('',#143,#144,#82,.T.);
#174=EDGE_CURVE('',#143,#145,#83,.T.);
#175=EDGE_CURVE('',#145,#146,#84,.T.);
#176=EDGE_CURVE('',#146,#144,#133,.T.);
#177=EDGE_CURVE('',#147,#147,#134,.T.);
#178=EDGE_CURVE('',#147,#148,#85,.T.);
#179=EDGE_CURVE('',#148,#148,#135,.T.);
#180=EDGE_CURVE('',#149,#149,#136,.T.);
#181=EDGE_CURVE('',#149,#147,#86,.T.);
#182=EDGE_CURVE('',#150,#151,#87,.T.);
#183=EDGE_CURVE('',#152,#150,#88,.T.);
#184=EDGE_CURVE('',#153,#152,#19,.T.);
#185=EDGE_CURVE('',#154,#153,#89,.T.);
#186=EDGE_CURVE('',#151,#154,#90,.T.);
#187=EDGE_CURVE('',#155,#152,#137,.T.);
#188=EDGE_CURVE('',#156,#155,#20,.T.);
#189=EDGE_CURVE('',#157,#156,#15,.T.);
#190=EDGE_CURVE('',#153,#157,#16,.T.);
#191=EDGE_CURVE('',#158,#145,#91,.T.);
#192=EDGE_CURVE('',#159,#158,#92,.T.);
#193=EDGE_CURVE('',#160,#159,#93,.T.);
#194=EDGE_CURVE('',#146,#160,#21,.T.);
#195=EDGE_CURVE('',#144,#161,#22,.T.);
#196=EDGE_CURVE('',#162,#160,#17,.T.);
#197=EDGE_CURVE('',#161,#162,#18,.T.);
#198=EDGE_CURVE('',#163,#159,#138,.T.);
#199=EDGE_CURVE('',#161,#163,#94,.T.);
#200=EDGE_CURVE('',#162,#157,#95,.T.);
#201=EDGE_CURVE('',#164,#156,#96,.T.);
#202=EDGE_CURVE('',#154,#164,#139,.T.);
#203=EDGE_CURVE('',#165,#143,#97,.T.);
#204=EDGE_CURVE('',#158,#165,#98,.T.);
#205=EDGE_CURVE('',#166,#164,#99,.T.);
#206=EDGE_CURVE('',#151,#166,#100,.T.);
#207=EDGE_CURVE('',#167,#166,#101,.T.);
#208=EDGE_CURVE('',#150,#167,#102,.T.);
#209=EDGE_CURVE('',#155,#167,#103,.T.);
#210=EDGE_CURVE('',#163,#165,#104,.T.);
#211=ORIENTED_EDGE('',*,*,#168,.T.);
#212=ORIENTED_EDGE('',*,*,#169,.T.);
#213=ORIENTED_EDGE('',*,*,#170,.T.);
#214=ORIENTED_EDGE('',*,*,#169,.F.);
#215=ORIENTED_EDGE('',*,*,#170,.F.);
#216=ORIENTED_EDGE('',*,*,#171,.T.);
#217=ORIENTED_EDGE('',*,*,#172,.T.);
#218=ORIENTED_EDGE('',*,*,#171,.F.);
#219=ORIENTED_EDGE('',*,*,#173,.F.);
#220=ORIENTED_EDGE('',*,*,#174,.T.);
#221=ORIENTED_EDGE('',*,*,#175,.T.);
#222=ORIENTED_EDGE('',*,*,#176,.T.);
#223=ORIENTED_EDGE('',*,*,#168,.F.);
#224=ORIENTED_EDGE('',*,*,#177,.T.);
#225=ORIENTED_EDGE('',*,*,#178,.T.);
#226=ORIENTED_EDGE('',*,*,#179,.T.);
#227=ORIENTED_EDGE('',*,*,#178,.F.);
#228=ORIENTED_EDGE('',*,*,#180,.F.);
#229=ORIENTED_EDGE('',*,*,#181,.T.);
#230=ORIENTED_EDGE('',*,*,#177,.F.);
#231=ORIENTED_EDGE('',*,*,#181,.F.);
#232=ORIENTED_EDGE('',*,*,#179,.F.);
#233=ORIENTED_EDGE('',*,*,#172,.F.);
#234=ORIENTED_EDGE('',*,*,#182,.F.);
#235=ORIENTED_EDGE('',*,*,#183,.F.);
#236=ORIENTED_EDGE('',*,*,#184,.F.);
#237=ORIENTED_EDGE('',*,*,#185,.F.);
#238=ORIENTED_EDGE('',*,*,#186,.F.);
#239=ORIENTED_EDGE('',*,*,#184,.T.);
#240=ORIENTED_EDGE('',*,*,#187,.F.);
#241=ORIENTED_EDGE('',*,*,#188,.F.);
#242=ORIENTED_EDGE('',*,*,#189,.F.);
#243=ORIENTED_EDGE('',*,*,#190,.F.);
#244=ORIENTED_EDGE('',*,*,#191,.F.);
#245=ORIENTED_EDGE('',*,*,#192,.F.);
#246=ORIENTED_EDGE('',*,*,#193,.F.);
#247=ORIENTED_EDGE('',*,*,#194,.F.);
#248=ORIENTED_EDGE('',*,*,#175,.F.);
#249=ORIENTED_EDGE('',*,*,#195,.F.);
#250=ORIENTED_EDGE('',*,*,#176,.F.);
#251=ORIENTED_EDGE('',*,*,#194,.T.);
#252=ORIENTED_EDGE('',*,*,#196,.F.);
#253=ORIENTED_EDGE('',*,*,#197,.F.);
#254=ORIENTED_EDGE('',*,*,#193,.T.);
#255=ORIENTED_EDGE('',*,*,#198,.F.);
#256=ORIENTED_EDGE('',*,*,#199,.F.);
#257=ORIENTED_EDGE('',*,*,#197,.T.);
#258=ORIENTED_EDGE('',*,*,#200,.T.);
#259=ORIENTED_EDGE('',*,*,#189,.T.);
#260=ORIENTED_EDGE('',*,*,#201,.F.);
#261=ORIENTED_EDGE('',*,*,#202,.F.);
#262=ORIENTED_EDGE('',*,*,#185,.T.);
#263=ORIENTED_EDGE('',*,*,#190,.T.);
#264=ORIENTED_EDGE('',*,*,#200,.F.);
#265=ORIENTED_EDGE('',*,*,#196,.T.);
#266=ORIENTED_EDGE('',*,*,#174,.F.);
#267=ORIENTED_EDGE('',*,*,#203,.F.);
#268=ORIENTED_EDGE('',*,*,#204,.F.);
#269=ORIENTED_EDGE('',*,*,#191,.T.);
#270=ORIENTED_EDGE('',*,*,#186,.T.);
#271=ORIENTED_EDGE('',*,*,#202,.T.);
#272=ORIENTED_EDGE('',*,*,#205,.F.);
#273=ORIENTED_EDGE('',*,*,#206,.F.);
#274=ORIENTED_EDGE('',*,*,#206,.T.);
#275=ORIENTED_EDGE('',*,*,#207,.F.);
#276=ORIENTED_EDGE('',*,*,#208,.F.);
#277=ORIENTED_EDGE('',*,*,#182,.T.);
#278=ORIENTED_EDGE('',*,*,#183,.T.);
#279=ORIENTED_EDGE('',*,*,#208,.T.);
#280=ORIENTED_EDGE('',*,*,#209,.F.);
#281=ORIENTED_EDGE('',*,*,#187,.T.);
#282=ORIENTED_EDGE('',*,*,#180,.T.);
#283=ORIENTED_EDGE('',*,*,#205,.T.);
#284=ORIENTED_EDGE('',*,*,#201,.T.);
#285=ORIENTED_EDGE('',*,*,#188,.T.);
#286=ORIENTED_EDGE('',*,*,#209,.T.);
#287=ORIENTED_EDGE('',*,*,#207,.T.);
#288=ORIENTED_EDGE('',*,*,#204,.T.);
#289=ORIENTED_EDGE('',*,*,#210,.F.);
#290=ORIENTED_EDGE('',*,*,#198,.T.);
#291=ORIENTED_EDGE('',*,*,#192,.T.);
#292=ORIENTED_EDGE('',*,*,#173,.T.);
#293=ORIENTED_EDGE('',*,*,#195,.T.);
#294=ORIENTED_EDGE('',*,*,#199,.T.);
#295=ORIENTED_EDGE('',*,*,#210,.T.);
#296=ORIENTED_EDGE('',*,*,#203,.T.);
#297=CONICAL_SURFACE('',#334,1.99999951017928,0.785398163397537);
#298=CONICAL_SURFACE('',#341,1.64999951017927,0.785398163397448);
#299=CONICAL_SURFACE('',#349,6.50620531308039,0.785398118675049);
#300=CONICAL_SURFACE('',#352,6.50512677740382,0.785398114627493);
#301=ADVANCED_FACE('',(#40),#297,.F.);
#302=ADVANCED_FACE('',(#41),#37,.F.);
#303=ADVANCED_FACE('',(#42,#23),#25,.T.);
#304=ADVANCED_FACE('',(#43),#298,.T.);
#305=ADVANCED_FACE('',(#44),#38,.T.);
#306=ADVANCED_FACE('',(#45),#26,.T.);
#307=ADVANCED_FACE('',(#46),#27,.F.);
#308=ADVANCED_FACE('',(#47),#28,.T.);
#309=ADVANCED_FACE('',(#48),#299,.T.);
#310=ADVANCED_FACE('',(#49),#29,.T.);
#311=ADVANCED_FACE('',(#50),#300,.T.);
#312=ADVANCED_FACE('',(#51),#39,.T.);
#313=ADVANCED_FACE('',(#52),#30,.T.);
#314=ADVANCED_FACE('',(#53),#31,.F.);
#315=ADVANCED_FACE('',(#54),#32,.T.);
#316=ADVANCED_FACE('',(#55,#24),#33,.F.);
#317=ADVANCED_FACE('',(#56),#34,.F.);
#318=ADVANCED_FACE('',(#57),#35,.T.);
#319=ADVANCED_FACE('',(#58),#36,.F.);
#320=CLOSED_SHELL('',(#301,#302,#303,#304,#305,#306,#307,#308,#309,#310,
#311,#312,#313,#314,#315,#316,#317,#318,#319));
#321=DERIVED_UNIT_ELEMENT(#323,1.);
#322=DERIVED_UNIT_ELEMENT(#686,-3.);
#323=(
MASS_UNIT()
NAMED_UNIT(*)
SI_UNIT(.KILO.,.GRAM.)
);
#324=DERIVED_UNIT((#321,#322));
#325=MEASURE_REPRESENTATION_ITEM('density measure',
POSITIVE_RATIO_MEASURE(7850.),#324);
#326=PROPERTY_DEFINITION_REPRESENTATION(#331,#328);
#327=PROPERTY_DEFINITION_REPRESENTATION(#332,#329);
#328=REPRESENTATION('material name',(#330),#683);
#329=REPRESENTATION('density',(#325),#683);
#330=DESCRIPTIVE_REPRESENTATION_ITEM('Steel','Steel');
#331=PROPERTY_DEFINITION('material property','material name',#693);
#332=PROPERTY_DEFINITION('material property','density of part',#693);
#333=AXIS2_PLACEMENT_3D('',#448,#363,#364);
#334=AXIS2_PLACEMENT_3D('',#449,#365,#366);
#335=AXIS2_PLACEMENT_3D('',#451,#367,#368);
#336=AXIS2_PLACEMENT_3D('',#454,#370,#371);
#337=AXIS2_PLACEMENT_3D('',#455,#372,#373);
#338=AXIS2_PLACEMENT_3D('',#458,#375,#376);
#339=AXIS2_PLACEMENT_3D('',#459,#377,#378);
#340=AXIS2_PLACEMENT_3D('',#467,#382,#383);
#341=AXIS2_PLACEMENT_3D('',#468,#384,#385);
#342=AXIS2_PLACEMENT_3D('',#470,#386,#387);
#343=AXIS2_PLACEMENT_3D('',#473,#389,#390);
#344=AXIS2_PLACEMENT_3D('',#474,#391,#392);
#345=AXIS2_PLACEMENT_3D('',#476,#393,#394);
#346=AXIS2_PLACEMENT_3D('',#478,#396,#397);
#347=AXIS2_PLACEMENT_3D('',#479,#398,#399);
#348=AXIS2_PLACEMENT_3D('',#480,#400,#401);
#349=AXIS2_PLACEMENT_3D('',#493,#406,#407);
#350=AXIS2_PLACEMENT_3D('',#495,#408,#409);
#351=AXIS2_PLACEMENT_3D('',#570,#410,#411);
#352=AXIS2_PLACEMENT_3D('',#581,#415,#416);
#353=AXIS2_PLACEMENT_3D('',#655,#417,#418);
#354=AXIS2_PLACEMENT_3D('',#657,#419,#420);
#355=AXIS2_PLACEMENT_3D('',#662,#424,#425);
#356=AXIS2_PLACEMENT_3D('',#663,#426,#427);
#357=AXIS2_PLACEMENT_3D('',#667,#430,#431);
#358=AXIS2_PLACEMENT_3D('',#671,#434,#435);
#359=AXIS2_PLACEMENT_3D('',#675,#438,#439);
#360=AXIS2_PLACEMENT_3D('',#677,#441,#442);
#361=AXIS2_PLACEMENT_3D('',#678,#443,#444);
#362=AXIS2_PLACEMENT_3D('',#680,#446,#447);
#363=DIRECTION('axis',(0.,0.,1.));
#364=DIRECTION('refdir',(1.,0.,0.));
#365=DIRECTION('center_axis',(0.,-1.,0.));
#366=DIRECTION('ref_axis',(0.,0.,1.));
#367=DIRECTION('center_axis',(0.,-1.,0.));
#368=DIRECTION('ref_axis',(0.,0.,1.));
#369=DIRECTION('',(-8.6595605623557E-17,0.707106781186485,0.70710678118661));
#370=DIRECTION('center_axis',(0.,1.,0.));
#371=DIRECTION('ref_axis',(0.,0.,1.));
#372=DIRECTION('center_axis',(0.,1.,0.));
#373=DIRECTION('ref_axis',(0.,0.,1.));
#374=DIRECTION('',(0.,1.,0.));
#375=DIRECTION('center_axis',(0.,-1.,0.));
#376=DIRECTION('ref_axis',(0.,0.,1.));
#377=DIRECTION('center_axis',(0.,-1.,0.));
#378=DIRECTION('ref_axis',(0.,0.,-1.));
#379=DIRECTION('',(0.,0.,1.));
#380=DIRECTION('',(-1.,0.,0.));
#381=DIRECTION('',(0.,0.,1.));
#382=DIRECTION('center_axis',(0.,-1.,0.));
#383=DIRECTION('ref_axis',(-1.73224340967852E-7,0.,0.999999999999985));
#384=DIRECTION('center_axis',(0.,-1.,0.));
#385=DIRECTION('ref_axis',(0.,0.,1.));
#386=DIRECTION('center_axis',(0.,1.,0.));
#387=DIRECTION('ref_axis',(0.,0.,1.));
#388=DIRECTION('',(-8.65956056235493E-17,0.707106781186547,0.707106781186547));
#389=DIRECTION('center_axis',(0.,-1.,0.));
#390=DIRECTION('ref_axis',(0.,0.,1.));
#391=DIRECTION('center_axis',(0.,-1.,0.));
#392=DIRECTION('ref_axis',(0.,0.,1.));
#393=DIRECTION('center_axis',(0.,-1.,0.));
#394=DIRECTION('ref_axis',(0.,0.,-1.));
#395=DIRECTION('',(0.,1.,0.));
#396=DIRECTION('center_axis',(0.,1.,0.));
#397=DIRECTION('ref_axis',(0.,0.,1.));
#398=DIRECTION('center_axis',(0.,1.,0.));
#399=DIRECTION('ref_axis',(0.,0.,1.));
#400=DIRECTION('center_axis',(1.,0.,0.));
#401=DIRECTION('ref_axis',(0.,0.,-1.));
#402=DIRECTION('',(0.,-1.,0.));
#403=DIRECTION('',(0.,0.,-1.));
#404=DIRECTION('',(7.00241516573295E-16,1.,1.15567992804118E-16));
#405=DIRECTION('',(0.,0.,1.));
#406=DIRECTION('center_axis',(8.70660407378789E-8,-0.999999999999991,1.00629463425343E-7));
#407=DIRECTION('ref_axis',(0.,-1.00629463425343E-7,-0.999999999999995));
#408=DIRECTION('center_axis',(0.,1.,0.));
#409=DIRECTION('ref_axis',(-8.70660412573735E-8,0.,-0.999999999999996));
#410=DIRECTION('center_axis',(1.,0.,0.));
#411=DIRECTION('ref_axis',(0.,0.,-1.));
#412=DIRECTION('',(0.,-1.,0.));
#413=DIRECTION('',(0.,0.,-1.));
#414=DIRECTION('',(7.00241516573295E-16,1.,1.15567992804118E-16));
#415=DIRECTION('center_axis',(1.73224376696975E-7,0.99999999999998,1.00365481189618E-7));
#416=DIRECTION('ref_axis',(0.00710285691010426,9.91325614484831E-8,-0.999974774393687));
#417=DIRECTION('center_axis',(-7.00241516573295E-16,-1.,-1.15567992804118E-16));
#418=DIRECTION('ref_axis',(0.,-1.15567992804118E-16,1.));
#419=DIRECTION('center_axis',(0.,-1.,0.));
#420=DIRECTION('ref_axis',(0.,-1.15567992804118E-16,1.));
#421=DIRECTION('',(7.00241516573295E-16,1.,1.15567992804118E-16));
#422=DIRECTION('',(7.00241516573295E-16,1.,1.15567992804118E-16));
#423=DIRECTION('',(7.00241516573295E-16,1.,1.15567992804118E-16));
#424=DIRECTION('center_axis',(0.,1.,0.));
#425=DIRECTION('ref_axis',(0.,-1.15567992804118E-16,1.));
#426=DIRECTION('center_axis',(0.,0.,1.));
#427=DIRECTION('ref_axis',(1.,0.,0.));
#428=DIRECTION('',(0.,-1.,0.));
#429=DIRECTION('',(1.,0.,0.));
#430=DIRECTION('center_axis',(0.,-1.,0.));
#431=DIRECTION('ref_axis',(0.,0.,-1.));
#432=DIRECTION('',(0.,0.,1.));
#433=DIRECTION('',(1.,0.,0.));
#434=DIRECTION('center_axis',(0.,0.,1.));
#435=DIRECTION('ref_axis',(1.,0.,0.));
#436=DIRECTION('',(0.,-1.,0.));
#437=DIRECTION('',(1.,0.,0.));
#438=DIRECTION('center_axis',(0.,-1.,0.));
#439=DIRECTION('ref_axis',(0.,0.,-1.));
#440=DIRECTION('',(0.,0.,-1.));
#441=DIRECTION('center_axis',(1.,0.,0.));
#442=DIRECTION('ref_axis',(0.,0.,-1.));
#443=DIRECTION('center_axis',(0.,-1.,0.));
#444=DIRECTION('ref_axis',(0.,0.,-1.));
#445=DIRECTION('',(0.,0.,-1.));
#446=DIRECTION('center_axis',(1.,0.,0.));
#447=DIRECTION('ref_axis',(0.,0.,-1.));
#448=CARTESIAN_POINT('',(0.,0.,0.));
#449=CARTESIAN_POINT('Origin',(473.829877520493,-199.9,634.503901891102));
#450=CARTESIAN_POINT('',(473.829877520493,-200.,632.403902380922));
#451=CARTESIAN_POINT('Origin',(473.829877520493,-200.,634.503901891102));
#452=CARTESIAN_POINT('',(473.829877520493,-199.8,632.603902380922));
#453=CARTESIAN_POINT('',(473.829877520493,-199.9,632.503902380922));
#454=CARTESIAN_POINT('Origin',(473.829877520493,-199.8,634.503901891102));
#455=CARTESIAN_POINT('Origin',(473.829877520493,-201.300003051758,634.503901891102));
#456=CARTESIAN_POINT('',(473.829877520493,-195.250003051758,632.603902380922));
#457=CARTESIAN_POINT('',(473.829877520493,-201.300003051758,632.603902380922));
#458=CARTESIAN_POINT('Origin',(473.829877520493,-195.250003051758,634.503901891102));
#459=CARTESIAN_POINT('Origin',(473.828346770487,-200.,634.808904294614));
#460=CARTESIAN_POINT('',(474.781829833984,-200.,640.00373840332));
#461=CARTESIAN_POINT('',(474.781829834004,-200.000000000037,640.420464083028));
#462=CARTESIAN_POINT('',(474.781829833984,-200.,637.754572691741));
#463=CARTESIAN_POINT('',(472.781829833984,-200.,640.00373840332));
#464=CARTESIAN_POINT('',(473.805088302236,-200.,640.00373840332));
#465=CARTESIAN_POINT('',(472.781829833984,-200.,640.403593309246));
#466=CARTESIAN_POINT('',(472.781829833984,-200.,637.74949978016));
#467=CARTESIAN_POINT('Origin',(473.827449491764,-200.,635.003900045336));
#468=CARTESIAN_POINT('Origin',(473.829877520493,-136.899999809265,634.503901891102));
#469=CARTESIAN_POINT('',(473.829877520493,-137.099999809265,632.653902380922));
#470=CARTESIAN_POINT('Origin',(473.829877520493,-137.099999809265,634.503901891102));
#471=CARTESIAN_POINT('',(473.829877520493,-136.699999809265,633.053902380922));
#472=CARTESIAN_POINT('',(473.829877520493,-136.899999809265,632.853902380922));
#473=CARTESIAN_POINT('Origin',(473.829877520493,-136.699999809265,634.503901891102));
#474=CARTESIAN_POINT('Origin',(473.829877520493,-200.,634.503901891102));
#475=CARTESIAN_POINT('',(473.829877520493,-138.,632.653902380922));
#476=CARTESIAN_POINT('Origin',(473.829877520493,-138.,634.503901891102));
#477=CARTESIAN_POINT('',(473.829877520493,-200.,632.653902380922));
#478=CARTESIAN_POINT('Origin',(473.829877535502,-136.699999809265,634.503901640574));
#479=CARTESIAN_POINT('Origin',(473.829877520493,-195.250003051758,634.503901891102));
#480=CARTESIAN_POINT('Origin',(472.781829833984,-138.913206100464,640.690095265706));
#481=CARTESIAN_POINT('',(472.781829833984,-138.,640.00373840332));
#482=CARTESIAN_POINT('',(472.781829833984,-140.,640.00373840332));
#483=CARTESIAN_POINT('',(472.781829833984,-138.956603050232,640.00373840332));
#484=CARTESIAN_POINT('',(472.781829833984,-138.,640.403593164787));
#485=CARTESIAN_POINT('',(472.781829833984,-138.,637.74949978016));
#486=CARTESIAN_POINT('',(472.781829833993,-139.000000163,641.419248058725));
#487=CARTESIAN_POINT('Ctrl Pts',(472.781829833984,-139.000000162973,641.419248058752));
#488=CARTESIAN_POINT('Ctrl Pts',(472.781829833984,-138.457018645765,640.869101658161));
#489=CARTESIAN_POINT('Ctrl Pts',(472.781829833984,-138.,640.403593164787));
#490=CARTESIAN_POINT('',(472.781829834018,-140.,641.419248058726));
#491=CARTESIAN_POINT('',(472.781829833984,-138.955334491333,641.419248058684));
#492=CARTESIAN_POINT('',(472.781829833984,-140.,640.832583109538));
#493=CARTESIAN_POINT('Origin',(473.827449214693,-139.006204735662,635.003899514436));
#494=CARTESIAN_POINT('',(474.781829834012,-137.99999999995,640.420463980902));
#495=CARTESIAN_POINT('Origin',(473.82744960595,-138.,635.003899966644));
#496=CARTESIAN_POINT('',(474.781829833974,-139.000000194451,641.433454487866));
#497=CARTESIAN_POINT('Ctrl Pts',(474.781829833984,-139.000000194417,641.433454487899));
#498=CARTESIAN_POINT('Ctrl Pts',(474.781829833984,-138.486005529286,640.913828086788));
#499=CARTESIAN_POINT('Ctrl Pts',(474.781829833984,-138.024394818024,640.445234579827));
#500=CARTESIAN_POINT('Ctrl Pts',(474.781829833984,-137.999999999912,640.42046398094));
#501=CARTESIAN_POINT('',(473.827449880539,-138.999999687926,628.503899881442));
#502=CARTESIAN_POINT('Ctrl Pts',(473.82744988054,-138.999999708488,628.503899881442));
#503=CARTESIAN_POINT('Ctrl Pts',(474.235527132681,-138.999999714794,628.503899881442));
#504=CARTESIAN_POINT('Ctrl Pts',(474.657542610288,-138.999999722739,628.542948038583));
#505=CARTESIAN_POINT('Ctrl Pts',(475.497038510238,-138.999999741707,628.70743844382));
#506=CARTESIAN_POINT('Ctrl Pts',(475.914525156039,-138.999999752729,628.832845485008));
#507=CARTESIAN_POINT('Ctrl Pts',(476.715257993274,-138.999999777189,629.164519758476));
#508=CARTESIAN_POINT('Ctrl Pts',(477.09914185697,-138.999999790647,629.371051123152));
#509=CARTESIAN_POINT('Ctrl Pts',(477.809067511381,-138.999999819009,629.848351892749));
#510=CARTESIAN_POINT('Ctrl Pts',(478.135089308499,-138.999999833915,630.119151034992));
#511=CARTESIAN_POINT('Ctrl Pts',(478.712197828905,-138.999999863861,630.696259359858));
#512=CARTESIAN_POINT('Ctrl Pts',(478.98299711253,-138.999999879925,631.022281110732));
#513=CARTESIAN_POINT('Ctrl Pts',(479.460298164998,-138.999999913168,631.732206704535));
#514=CARTESIAN_POINT('Ctrl Pts',(479.666829671176,-138.999999930347,632.116090553846));
#515=CARTESIAN_POINT('Ctrl Pts',(479.99850421712,-138.999999964648,632.9168233939));
#516=CARTESIAN_POINT('Ctrl Pts',(480.123911389559,-138.999999981798,633.334310057048));
#517=CARTESIAN_POINT('Ctrl Pts',(480.288402037494,-139.000000014928,634.173806019019));
#518=CARTESIAN_POINT('Ctrl Pts',(480.327450347898,-139.000000030907,634.595822207701));
#519=CARTESIAN_POINT('Ctrl Pts',(480.327450459764,-139.000000060644,635.411976863587));
#520=CARTESIAN_POINT('Ctrl Pts',(480.2884022567,-139.000000075417,635.833993106697));
#521=CARTESIAN_POINT('Ctrl Pts',(480.123911805266,-139.000000103463,636.673489195824));
#522=CARTESIAN_POINT('Ctrl Pts',(479.998504722009,-139.000000116736,637.090975931693));
#523=CARTESIAN_POINT('Ctrl Pts',(479.666830330334,-139.000000140785,637.891708929241));
#524=CARTESIAN_POINT('Ctrl Pts',(479.460298889319,-139.00000015158,638.275592863563));
#525=CARTESIAN_POINT('Ctrl Pts',(478.982997940214,-139.00000017007,638.985518631693));
#526=CARTESIAN_POINT('Ctrl Pts',(478.71219869477,-139.000000177763,639.311540471879));
#527=CARTESIAN_POINT('Ctrl Pts',(478.135090180814,-139.000000189871,639.888649014027));
#528=CARTESIAN_POINT('Ctrl Pts',(477.809068347296,-139.000000194699,640.159448279856));
#529=CARTESIAN_POINT('Ctrl Pts',(477.099142587904,-139.000000201118,640.636749269746));
#530=CARTESIAN_POINT('Ctrl Pts',(476.715258655657,-139.00000020271,640.843280731163));
#531=CARTESIAN_POINT('Ctrl Pts',(475.914525657702,-139.00000020242,641.174955162125));
#532=CARTESIAN_POINT('Ctrl Pts',(475.497038919332,-139.000000200537,641.300362264305));
#533=CARTESIAN_POINT('Ctrl Pts',(474.978856037183,-139.000000196228,641.401894784276));
#534=CARTESIAN_POINT('Ctrl Pts',(474.880301100024,-139.000000195322,641.418837766175));
#535=CARTESIAN_POINT('Ctrl Pts',(474.781829833967,-139.000000194333,641.433454487817));
#536=CARTESIAN_POINT('Ctrl Pts',(472.781829834,-139.000000162905,641.419248058686));
#537=CARTESIAN_POINT('Ctrl Pts',(472.713743321672,-139.000000161448,641.408150823426));
#538=CARTESIAN_POINT('Ctrl Pts',(472.645646950074,-139.000000159951,641.39593886756));
#539=CARTESIAN_POINT('Ctrl Pts',(472.157859677453,-139.00000014893,641.300361953367));
#540=CARTESIAN_POINT('Ctrl Pts',(471.740372993477,-139.000000137908,641.174954784481));
#541=CARTESIAN_POINT('Ctrl Pts',(470.939640113324,-139.000000113448,640.843280238131));
#542=CARTESIAN_POINT('Ctrl Pts',(470.555756244663,-139.00000009999,640.636748727974));
#543=CARTESIAN_POINT('Ctrl Pts',(469.845830615663,-139.000000071628,640.15944766077));
#544=CARTESIAN_POINT('Ctrl Pts',(469.519808848947,-139.000000056722,639.888648366383));
#545=CARTESIAN_POINT('Ctrl Pts',(468.942700497513,-139.000000026776,639.311539819409));
#546=CARTESIAN_POINT('Ctrl Pts',(468.671901344509,-139.000000010712,638.985518006451));
#547=CARTESIAN_POINT('Ctrl Pts',(468.194600560177,-138.999999977469,638.275592316843));
#548=CARTESIAN_POINT('Ctrl Pts',(467.988069191522,-138.99999996029,637.891708433796));
#549=CARTESIAN_POINT('Ctrl Pts',(467.656394917648,-138.999999925989,637.090975556462));
#550=CARTESIAN_POINT('Ctrl Pts',(467.530987880011,-138.999999908839,636.673488889832));
#551=CARTESIAN_POINT('Ctrl Pts',(467.366497489305,-138.999999875709,635.833992948893));
#552=CARTESIAN_POINT('Ctrl Pts',(467.327449301315,-138.999999859729,635.411976784739));
#553=CARTESIAN_POINT('Ctrl Pts',(467.327449413181,-138.999999829992,634.595822286549));
#554=CARTESIAN_POINT('Ctrl Pts',(467.366497708511,-138.99999981522,634.173806176823));
#555=CARTESIAN_POINT('Ctrl Pts',(467.530988295718,-138.999999787174,633.334310363039));
#556=CARTESIAN_POINT('Ctrl Pts',(467.656395422536,-138.999999773901,632.916823769131));
#557=CARTESIAN_POINT('Ctrl Pts',(467.988069850679,-138.999999749852,632.116091049291));
#558=CARTESIAN_POINT('Ctrl Pts',(468.194601284498,-138.999999739057,631.732207251255));
#559=CARTESIAN_POINT('Ctrl Pts',(468.671902172193,-138.999999720567,631.022281735975));
#560=CARTESIAN_POINT('Ctrl Pts',(468.942701363378,-138.999999712873,630.696260012327));
#561=CARTESIAN_POINT('Ctrl Pts',(469.519809721263,-138.999999700765,630.119151682636));
#562=CARTESIAN_POINT('Ctrl Pts',(469.845831451577,-138.999999695937,629.848352511835));
#563=CARTESIAN_POINT('Ctrl Pts',(470.555756975596,-138.999999689519,629.371051664925));
#564=CARTESIAN_POINT('Ctrl Pts',(470.939640775706,-138.999999687926,629.164520251509));
#565=CARTESIAN_POINT('Ctrl Pts',(471.74037349514,-138.999999688217,628.832845862652));
#566=CARTESIAN_POINT('Ctrl Pts',(472.157860086547,-138.9999996901,628.707438754758));
#567=CARTESIAN_POINT('Ctrl Pts',(472.997355891388,-138.999999697081,628.542948202543));
#568=CARTESIAN_POINT('Ctrl Pts',(473.419371994671,-138.999999702181,628.503899923279));
#569=CARTESIAN_POINT('Ctrl Pts',(473.827449214153,-138.999999708488,628.503899881442));
#570=CARTESIAN_POINT('Origin',(472.781829833984,-199.086794535319,640.690095265706));
#571=CARTESIAN_POINT('',(472.781829833984,-198.,640.00373840332));
#572=CARTESIAN_POINT('',(472.781829833984,-199.04339726766,640.00373840332));
#573=CARTESIAN_POINT('',(472.781829834018,-198.,641.419248058726));
#574=CARTESIAN_POINT('',(472.781829833984,-198.,640.832583109538));
#575=CARTESIAN_POINT('',(472.781829833994,-198.999999939549,641.41924805873));
#576=CARTESIAN_POINT('',(472.781829833984,-138.955334491333,641.419248058684));
#577=CARTESIAN_POINT('Ctrl Pts',(472.781829833984,-200.,640.403593309246));
#578=CARTESIAN_POINT('Ctrl Pts',(472.781829833984,-199.970752004796,640.433384631077));
#579=CARTESIAN_POINT('Ctrl Pts',(472.781829833984,-199.508465108006,640.904073483387));
#580=CARTESIAN_POINT('Ctrl Pts',(472.781829833984,-198.999999939579,641.41924805876));
#581=CARTESIAN_POINT('Origin',(473.827448713142,-198.994873834834,635.003899594205));
#582=CARTESIAN_POINT('',(474.781829833977,-198.999999926203,641.433454487849));
#583=CARTESIAN_POINT('Ctrl Pts',(474.781829833984,-200.000000000065,640.420464083056));
#584=CARTESIAN_POINT('Ctrl Pts',(474.781829833984,-199.542756174716,640.884751359951));
#585=CARTESIAN_POINT('Ctrl Pts',(474.781829833984,-198.999999926226,641.433454487872));
#586=CARTESIAN_POINT('',(473.827449880539,-199.000000254018,628.503899881442));
#587=CARTESIAN_POINT('Ctrl Pts',(473.827449880539,-199.000000248114,628.503899881442));
#588=CARTESIAN_POINT('Ctrl Pts',(473.41937259202,-199.000000250771,628.503899881442));
#589=CARTESIAN_POINT('Ctrl Pts',(472.997356415602,-199.000000252566,628.54294813064));
#590=CARTESIAN_POINT('Ctrl Pts',(472.157860464147,-199.000000254018,628.70743864996));
#591=CARTESIAN_POINT('Ctrl Pts',(471.740373799258,-199.000000253675,628.832845754998));
#592=CARTESIAN_POINT('Ctrl Pts',(470.939640940564,-199.000000250793,629.164520164907));
#593=CARTESIAN_POINT('Ctrl Pts',(470.555757074385,-199.000000248251,629.371051602324));
#594=CARTESIAN_POINT('Ctrl Pts',(469.84583143268,-199.000000241223,629.848352520724));
#595=CARTESIAN_POINT('Ctrl Pts',(469.519809650764,-199.000000236736,630.119151739038));
#596=CARTESIAN_POINT('Ctrl Pts',(468.942701214844,-199.000000226407,630.696260174958));
#597=CARTESIAN_POINT('Ctrl Pts',(468.671901996529,-199.000000220212,631.022281956875));
#598=CARTESIAN_POINT('Ctrl Pts',(468.194601078129,-199.00000020599,631.73220759858));
#599=CARTESIAN_POINT('Ctrl Pts',(467.988069640712,-199.000000197964,632.116091464759));
#600=CARTESIAN_POINT('Ctrl Pts',(467.656395230803,-199.000000180578,632.916824323453));
#601=CARTESIAN_POINT('Ctrl Pts',(467.530988125766,-199.000000171203,633.334310988342));
#602=CARTESIAN_POINT('Ctrl Pts',(467.366497606445,-199.000000151782,634.173806939797));
#603=CARTESIAN_POINT('Ctrl Pts',(467.327449357248,-199.000000141735,634.595823116215));
#604=CARTESIAN_POINT('Ctrl Pts',(467.327449357248,-199.000000121812,635.411977693253));
#605=CARTESIAN_POINT('Ctrl Pts',(467.366497606445,-199.000000111256,635.833993869671));
#606=CARTESIAN_POINT('Ctrl Pts',(467.530988125766,-199.000000089693,636.673489821126));
#607=CARTESIAN_POINT('Ctrl Pts',(467.656395230803,-199.000000078685,637.090976486015));
#608=CARTESIAN_POINT('Ctrl Pts',(467.988069640712,-199.000000056979,637.891709344709));
#609=CARTESIAN_POINT('Ctrl Pts',(468.194601078129,-199.000000046263,638.275593210888));
#610=CARTESIAN_POINT('Ctrl Pts',(468.671901996529,-199.000000025826,638.985518852593));
#611=CARTESIAN_POINT('Ctrl Pts',(468.942701214844,-199.000000016104,639.31154063451));
#612=CARTESIAN_POINT('Ctrl Pts',(469.519809650764,-198.999999998258,639.88864907043));
#613=CARTESIAN_POINT('Ctrl Pts',(469.84583143268,-198.999999989525,640.159448288744));
#614=CARTESIAN_POINT('Ctrl Pts',(470.555757074385,-198.999999973251,640.636749207144));
#615=CARTESIAN_POINT('Ctrl Pts',(470.939640940564,-198.99999996571,640.843280644561));
#616=CARTESIAN_POINT('Ctrl Pts',(471.740373799258,-198.999999952399,641.17495505447));
#617=CARTESIAN_POINT('Ctrl Pts',(472.157860464147,-198.999999946619,641.300362159508));
#618=CARTESIAN_POINT('Ctrl Pts',(472.645647457713,-198.99999994111,641.395938958598));
#619=CARTESIAN_POINT('Ctrl Pts',(472.713743575415,-198.999999940368,641.408150864783));
#620=CARTESIAN_POINT('Ctrl Pts',(472.781829834001,-198.999999939654,641.419248058686));
#621=CARTESIAN_POINT('Ctrl Pts',(474.781829833973,-198.999999926284,641.433454487816));
#622=CARTESIAN_POINT('Ctrl Pts',(474.880301250088,-198.999999925999,641.4188377439));
#623=CARTESIAN_POINT('Ctrl Pts',(474.978856337878,-198.999999925771,641.401894732583));
#624=CARTESIAN_POINT('Ctrl Pts',(475.497039296932,-198.999999924875,641.300362159508));
#625=CARTESIAN_POINT('Ctrl Pts',(475.91452596182,-198.999999925218,641.17495505447));
#626=CARTESIAN_POINT('Ctrl Pts',(476.715258820515,-198.9999999281,640.843280644561));
#627=CARTESIAN_POINT('Ctrl Pts',(477.099142686693,-198.999999930642,640.636749207144));
#628=CARTESIAN_POINT('Ctrl Pts',(477.809068328399,-198.99999993767,640.159448288744));
#629=CARTESIAN_POINT('Ctrl Pts',(478.135090110315,-198.999999942157,639.88864907043));
#630=CARTESIAN_POINT('Ctrl Pts',(478.712198546235,-198.999999952487,639.31154063451));
#631=CARTESIAN_POINT('Ctrl Pts',(478.98299776455,-198.999999958681,638.985518852593));
#632=CARTESIAN_POINT('Ctrl Pts',(479.46029868295,-198.999999972903,638.275593210888));
#633=CARTESIAN_POINT('Ctrl Pts',(479.666830120367,-198.999999980929,637.891709344709));
#634=CARTESIAN_POINT('Ctrl Pts',(479.998504530276,-198.999999998315,637.090976486015));
#635=CARTESIAN_POINT('Ctrl Pts',(480.123911635313,-199.000000007689,636.673489821126));
#636=CARTESIAN_POINT('Ctrl Pts',(480.288402154634,-199.000000027111,635.833993869671));
#637=CARTESIAN_POINT('Ctrl Pts',(480.327450403831,-199.000000037158,635.411977693253));
#638=CARTESIAN_POINT('Ctrl Pts',(480.327450403831,-199.000000057081,634.595823116215));
#639=CARTESIAN_POINT('Ctrl Pts',(480.288402154634,-199.000000067636,634.173806939797));
#640=CARTESIAN_POINT('Ctrl Pts',(480.123911635313,-199.0000000892,633.334310988342));
#641=CARTESIAN_POINT('Ctrl Pts',(479.998504530276,-199.000000100208,632.916824323453));
#642=CARTESIAN_POINT('Ctrl Pts',(479.666830120367,-199.000000121914,632.116091464759));
#643=CARTESIAN_POINT('Ctrl Pts',(479.46029868295,-199.000000132629,631.73220759858));
#644=CARTESIAN_POINT('Ctrl Pts',(478.98299776455,-199.000000153067,631.022281956875));
#645=CARTESIAN_POINT('Ctrl Pts',(478.712198546235,-199.000000162789,630.696260174958));
#646=CARTESIAN_POINT('Ctrl Pts',(478.135090110315,-199.000000180634,630.119151739038));
#647=CARTESIAN_POINT('Ctrl Pts',(477.809068328399,-199.000000189367,629.848352520724));
#648=CARTESIAN_POINT('Ctrl Pts',(477.099142686693,-199.000000205641,629.371051602324));
#649=CARTESIAN_POINT('Ctrl Pts',(476.715258820515,-199.000000213183,629.164520164907));
#650=CARTESIAN_POINT('Ctrl Pts',(475.91452596182,-199.000000226493,628.832845754998));
#651=CARTESIAN_POINT('Ctrl Pts',(475.497039296932,-199.000000232273,628.70743864996));
#652=CARTESIAN_POINT('Ctrl Pts',(474.657543345476,-199.000000241755,628.54294813064));
#653=CARTESIAN_POINT('Ctrl Pts',(474.235527169059,-199.000000245457,628.503899881442));
#654=CARTESIAN_POINT('Ctrl Pts',(473.827449880539,-199.000000248114,628.503899881442));
#655=CARTESIAN_POINT('Origin',(473.827449880539,-138.955334491333,635.003900404734));
#656=CARTESIAN_POINT('',(474.781829833924,-198.,641.433454487891));
#657=CARTESIAN_POINT('Origin',(473.827449880539,-198.,635.003900404734));
#658=CARTESIAN_POINT('',(474.781829833984,-138.955334491333,641.433454487815));
#659=CARTESIAN_POINT('',(473.827449880539,-138.955334491333,628.503899881442));
#660=CARTESIAN_POINT('',(474.781829833924,-140.,641.433454487891));
#661=CARTESIAN_POINT('',(474.781829833984,-138.955334491333,641.433454487815));
#662=CARTESIAN_POINT('Origin',(473.827449880539,-140.,635.003900404734));
#663=CARTESIAN_POINT('Origin',(473.781829833984,-199.,640.00373840332));
#664=CARTESIAN_POINT('',(474.781829833984,-198.,640.00373840332));
#665=CARTESIAN_POINT('',(474.781829833984,-199.043387730916,640.00373840332));
#666=CARTESIAN_POINT('',(473.781748453776,-198.,640.00373840332));
#667=CARTESIAN_POINT('Origin',(473.781667073568,-140.,640.975070953369));
#668=CARTESIAN_POINT('',(474.781829833984,-140.,640.00373840332));
#669=CARTESIAN_POINT('',(474.781829833984,-140.,640.837656021118));
#670=CARTESIAN_POINT('',(473.781748453776,-140.,640.00373840332));
#671=CARTESIAN_POINT('Origin',(473.781829833984,-139.,640.00373840332));
#672=CARTESIAN_POINT('',(474.781829833984,-138.,640.00373840332));
#673=CARTESIAN_POINT('',(474.781829833984,-138.956612110138,640.00373840332));
#674=CARTESIAN_POINT('',(473.805088302236,-138.,640.00373840332));
#675=CARTESIAN_POINT('Origin',(473.828346770487,-138.,634.808904294614));
#676=CARTESIAN_POINT('',(474.781829833984,-138.,637.754572691741));
#677=CARTESIAN_POINT('Origin',(474.781829833984,-138.913224220276,640.700241088867));
#678=CARTESIAN_POINT('Origin',(473.781667073568,-198.,640.975070953369));
#679=CARTESIAN_POINT('',(474.781829833984,-198.,640.837656021118));
#680=CARTESIAN_POINT('Origin',(474.781829833984,-199.086775461833,640.700241088867));
#681=UNCERTAINTY_MEASURE_WITH_UNIT(LENGTH_MEASURE(0.01),#685,
'DISTANCE_ACCURACY_VALUE',
'Maximum model space distance between geometric entities at asserted c
onnectivities');
#682=UNCERTAINTY_MEASURE_WITH_UNIT(LENGTH_MEASURE(0.01),#685,
'DISTANCE_ACCURACY_VALUE',
'Maximum model space distance between geometric entities at asserted c
onnectivities');
#683=(
GEOMETRIC_REPRESENTATION_CONTEXT(3)
GLOBAL_UNCERTAINTY_ASSIGNED_CONTEXT((#681))
GLOBAL_UNIT_ASSIGNED_CONTEXT((#685,#687,#688))
REPRESENTATION_CONTEXT('','3D')
);
#684=(
GEOMETRIC_REPRESENTATION_CONTEXT(3)
GLOBAL_UNCERTAINTY_ASSIGNED_CONTEXT((#682))
GLOBAL_UNIT_ASSIGNED_CONTEXT((#685,#687,#688))
REPRESENTATION_CONTEXT('','3D')
);
#685=(
LENGTH_UNIT()
NAMED_UNIT(*)
SI_UNIT(.MILLI.,.METRE.)
);
#686=(
LENGTH_UNIT()
NAMED_UNIT(*)
SI_UNIT($,.METRE.)
);
#687=(
NAMED_UNIT(*)
PLANE_ANGLE_UNIT()
SI_UNIT($,.RADIAN.)
);
#688=(
NAMED_UNIT(*)
SI_UNIT($,.STERADIAN.)
SOLID_ANGLE_UNIT()
);
#689=SHAPE_DEFINITION_REPRESENTATION(#690,#691);
#690=PRODUCT_DEFINITION_SHAPE('',$,#693);
#691=SHAPE_REPRESENTATION('',(#333),#683);
#692=PRODUCT_DEFINITION_CONTEXT('part definition',#697,'design');
#693=PRODUCT_DEFINITION('6_Front_Roller','6_Front_Roller v4',#694,#692);
#694=PRODUCT_DEFINITION_FORMATION('',$,#699);
#695=PRODUCT_RELATED_PRODUCT_CATEGORY('6_Front_Roller v4',
'6_Front_Roller v4',(#699));
#696=APPLICATION_PROTOCOL_DEFINITION('international standard',
'automotive_design',2009,#697);
#697=APPLICATION_CONTEXT(
'Core Data for Automotive Mechanical Design Process');
#698=PRODUCT_CONTEXT('part definition',#697,'mechanical');
#699=PRODUCT('6_Front_Roller','6_Front_Roller v4',$,(#698));
#700=PRESENTATION_STYLE_ASSIGNMENT((#701));
#701=SURFACE_STYLE_USAGE(.BOTH.,#702);
#702=SURFACE_SIDE_STYLE('',(#703));
#703=SURFACE_STYLE_FILL_AREA(#704);
#704=FILL_AREA_STYLE('Steel - Satin',(#705));
#705=FILL_AREA_STYLE_COLOUR('Steel - Satin',#706);
#706=COLOUR_RGB('Steel - Satin',0.627450980392157,0.627450980392157,0.627450980392157);
ENDSEC;
END-ISO-10303-21;
