ISO-10303-21;
HEADER;
/* Generated by software containing ST-Developer
 * from STEP Tools, Inc. (www.steptools.com) 
 */

FILE_DESCRIPTION(
/* description */ (''),
/* implementation_level */ '2;1');

FILE_NAME(
/* name */ '7_Front_Roller_Peg.step',
/* time_stamp */ '2025-10-21T12:01:40-07:00',
/* author */ (''),
/* organization */ (''),
/* preprocessor_version */ 'ST-DEVELOPER v20.1',
/* originating_system */ 'Autodesk Translation Framework v14.17.0.0',
/* authorisation */ '');

FILE_SCHEMA (('AUTOMOTIVE_DESIGN { 1 0 10303 214 3 1 1 }'));
ENDSEC;

DATA;
#10=MECHANICAL_DESIGN_GEOMETRIC_PRESENTATION_REPRESENTATION('',(#13),#136);
#11=SHAPE_REPRESENTATION_RELATIONSHIP('SRR','None',#143,#12);
#12=ADVANCED_BREP_SHAPE_REPRESENTATION('',(#14),#135);
#13=STYLED_ITEM('',(#152),#14);
#14=MANIFOLD_SOLID_BREP('Front Roller Peg',#70);
#15=PLANE('',#89);
#16=PLANE('',#92);
#17=CYLINDRICAL_SURFACE('',#87,1.84999951017926);
#18=FACE_OUTER_BOUND('',#23,.T.);
#19=FACE_OUTER_BOUND('',#24,.T.);
#20=FACE_OUTER_BOUND('',#25,.T.);
#21=FACE_OUTER_BOUND('',#26,.T.);
#22=FACE_OUTER_BOUND('',#27,.T.);
#23=EDGE_LOOP('',(#49,#50,#51,#52));
#24=EDGE_LOOP('',(#53,#54,#55,#56));
#25=EDGE_LOOP('',(#57));
#26=EDGE_LOOP('',(#58,#59,#60,#61));
#27=EDGE_LOOP('',(#62));
#28=LINE('',#121,#31);
#29=LINE('',#126,#32);
#30=LINE('',#130,#33);
#31=VECTOR('',#99,1.64999951017927);
#32=VECTOR('',#106,1.);
#33=VECTOR('',#111,1.64999951017927);
#34=CIRCLE('',#85,1.44999951017927);
#35=CIRCLE('',#86,1.84999951017926);
#36=CIRCLE('',#88,1.84999951017926);
#37=CIRCLE('',#91,1.44999951017927);
#38=VERTEX_POINT('',#118);
#39=VERTEX_POINT('',#120);
#40=VERTEX_POINT('',#124);
#41=VERTEX_POINT('',#129);
#42=EDGE_CURVE('',#38,#38,#34,.T.);
#43=EDGE_CURVE('',#38,#39,#28,.T.);
#44=EDGE_CURVE('',#39,#39,#35,.T.);
#45=EDGE_CURVE('',#40,#40,#36,.T.);
#46=EDGE_CURVE('',#40,#39,#29,.T.);
#47=EDGE_CURVE('',#40,#41,#30,.T.);
#48=EDGE_CURVE('',#41,#41,#37,.T.);
#49=ORIENTED_EDGE('',*,*,#42,.T.);
#50=ORIENTED_EDGE('',*,*,#43,.T.);
#51=ORIENTED_EDGE('',*,*,#44,.T.);
#52=ORIENTED_EDGE('',*,*,#43,.F.);
#53=ORIENTED_EDGE('',*,*,#45,.F.);
#54=ORIENTED_EDGE('',*,*,#46,.T.);
#55=ORIENTED_EDGE('',*,*,#44,.F.);
#56=ORIENTED_EDGE('',*,*,#46,.F.);
#57=ORIENTED_EDGE('',*,*,#42,.F.);
#58=ORIENTED_EDGE('',*,*,#45,.T.);
#59=ORIENTED_EDGE('',*,*,#47,.T.);
#60=ORIENTED_EDGE('',*,*,#48,.T.);
#61=ORIENTED_EDGE('',*,*,#47,.F.);
#62=ORIENTED_EDGE('',*,*,#48,.F.);
#63=CONICAL_SURFACE('',#84,1.64999951017927,0.785398163397448);
#64=CONICAL_SURFACE('',#90,1.64999951017927,0.785398163397448);
#65=ADVANCED_FACE('',(#18),#63,.T.);
#66=ADVANCED_FACE('',(#19),#17,.T.);
#67=ADVANCED_FACE('',(#20),#15,.T.);
#68=ADVANCED_FACE('',(#21),#64,.T.);
#69=ADVANCED_FACE('',(#22),#16,.F.);
#70=CLOSED_SHELL('',(#65,#66,#67,#68,#69));
#71=DERIVED_UNIT_ELEMENT(#73,1.);
#72=DERIVED_UNIT_ELEMENT(#138,-3.);
#73=(
MASS_UNIT()
NAMED_UNIT(*)
SI_UNIT(.KILO.,.GRAM.)
);
#74=DERIVED_UNIT((#71,#72));
#75=MEASURE_REPRESENTATION_ITEM('density measure',
POSITIVE_RATIO_MEASURE(7850.),#74);
#76=PROPERTY_DEFINITION_REPRESENTATION(#81,#78);
#77=PROPERTY_DEFINITION_REPRESENTATION(#82,#79);
#78=REPRESENTATION('material name',(#80),#135);
#79=REPRESENTATION('density',(#75),#135);
#80=DESCRIPTIVE_REPRESENTATION_ITEM('Steel','Steel');
#81=PROPERTY_DEFINITION('material property','material name',#145);
#82=PROPERTY_DEFINITION('material property','density of part',#145);
#83=AXIS2_PLACEMENT_3D('',#116,#93,#94);
#84=AXIS2_PLACEMENT_3D('',#117,#95,#96);
#85=AXIS2_PLACEMENT_3D('',#119,#97,#98);
#86=AXIS2_PLACEMENT_3D('',#122,#100,#101);
#87=AXIS2_PLACEMENT_3D('',#123,#102,#103);
#88=AXIS2_PLACEMENT_3D('',#125,#104,#105);
#89=AXIS2_PLACEMENT_3D('',#127,#107,#108);
#90=AXIS2_PLACEMENT_3D('',#128,#109,#110);
#91=AXIS2_PLACEMENT_3D('',#131,#112,#113);
#92=AXIS2_PLACEMENT_3D('',#132,#114,#115);
#93=DIRECTION('axis',(0.,0.,1.));
#94=DIRECTION('refdir',(1.,0.,0.));
#95=DIRECTION('center_axis',(0.,-1.,0.));
#96=DIRECTION('ref_axis',(0.,0.,1.));
#97=DIRECTION('center_axis',(0.,-1.,0.));
#98=DIRECTION('ref_axis',(0.,0.,1.));
#99=DIRECTION('',(-8.65956056235493E-17,-0.707106781186547,-0.707106781186547));
#100=DIRECTION('center_axis',(0.,1.,0.));
#101=DIRECTION('ref_axis',(0.,0.,1.));
#102=DIRECTION('center_axis',(0.,-1.,0.));
#103=DIRECTION('ref_axis',(0.,0.,1.));
#104=DIRECTION('center_axis',(0.,-1.,0.));
#105=DIRECTION('ref_axis',(0.,0.,1.));
#106=DIRECTION('',(0.,1.,0.));
#107=DIRECTION('center_axis',(0.,1.,0.));
#108=DIRECTION('ref_axis',(0.,0.,1.));
#109=DIRECTION('center_axis',(0.,1.,0.));
#110=DIRECTION('ref_axis',(0.,0.,1.));
#111=DIRECTION('',(8.65956056235493E-17,-0.707106781186547,0.707106781186547));
#112=DIRECTION('center_axis',(0.,1.,0.));
#113=DIRECTION('ref_axis',(0.,0.,1.));
#114=DIRECTION('center_axis',(0.,1.,0.));
#115=DIRECTION('ref_axis',(0.,0.,1.));
#116=CARTESIAN_POINT('',(0.,0.,0.));
#117=CARTESIAN_POINT('Origin',(473.829877520493,-195.450003051758,634.503901891102));
#118=CARTESIAN_POINT('',(473.829877520493,-195.250003051758,633.053902380922));
#119=CARTESIAN_POINT('Origin',(473.829877520493,-195.250003051758,634.503901891102));
#120=CARTESIAN_POINT('',(473.829877520493,-195.650003051758,632.653902380922));
#121=CARTESIAN_POINT('',(473.829877520493,-195.450003051758,632.853902380922));
#122=CARTESIAN_POINT('Origin',(473.829877520493,-195.650003051758,634.503901891102));
#123=CARTESIAN_POINT('Origin',(473.829877520493,-200.,634.503901891102));
#124=CARTESIAN_POINT('',(473.829877520493,-200.900003051758,632.653902380922));
#125=CARTESIAN_POINT('Origin',(473.829877520493,-200.900003051758,634.503901891102));
#126=CARTESIAN_POINT('',(473.829877520493,-200.,632.653902380922));
#127=CARTESIAN_POINT('Origin',(473.829877520493,-195.250003051758,634.503901891102));
#128=CARTESIAN_POINT('Origin',(473.829877520493,-201.100003051758,634.503901891102));
#129=CARTESIAN_POINT('',(473.829877520493,-201.300003051758,633.053902380922));
#130=CARTESIAN_POINT('',(473.829877520493,-201.100003051758,632.853902380922));
#131=CARTESIAN_POINT('Origin',(473.829877520493,-201.300003051758,634.503901891102));
#132=CARTESIAN_POINT('Origin',(473.829877535502,-201.300003051758,634.503901640574));
#133=UNCERTAINTY_MEASURE_WITH_UNIT(LENGTH_MEASURE(0.01),#137,
'DISTANCE_ACCURACY_VALUE',
'Maximum model space distance between geometric entities at asserted c
onnectivities');
#134=UNCERTAINTY_MEASURE_WITH_UNIT(LENGTH_MEASURE(0.01),#137,
'DISTANCE_ACCURACY_VALUE',
'Maximum model space distance between geometric entities at asserted c
onnectivities');
#135=(
GEOMETRIC_REPRESENTATION_CONTEXT(3)
GLOBAL_UNCERTAINTY_ASSIGNED_CONTEXT((#133))
GLOBAL_UNIT_ASSIGNED_CONTEXT((#137,#139,#140))
REPRESENTATION_CONTEXT('','3D')
);
#136=(
GEOMETRIC_REPRESENTATION_CONTEXT(3)
GLOBAL_UNCERTAINTY_ASSIGNED_CONTEXT((#134))
GLOBAL_UNIT_ASSIGNED_CONTEXT((#137,#139,#140))
REPRESENTATION_CONTEXT('','3D')
);
#137=(
LENGTH_UNIT()
NAMED_UNIT(*)
SI_UNIT(.MILLI.,.METRE.)
);
#138=(
LENGTH_UNIT()
NAMED_UNIT(*)
SI_UNIT($,.METRE.)
);
#139=(
NAMED_UNIT(*)
PLANE_ANGLE_UNIT()
SI_UNIT($,.RADIAN.)
);
#140=(
NAMED_UNIT(*)
SI_UNIT($,.STERADIAN.)
SOLID_ANGLE_UNIT()
);
#141=SHAPE_DEFINITION_REPRESENTATION(#142,#143);
#142=PRODUCT_DEFINITION_SHAPE('',$,#145);
#143=SHAPE_REPRESENTATION('',(#83),#135);
#144=PRODUCT_DEFINITION_CONTEXT('part definition',#149,'design');
#145=PRODUCT_DEFINITION('7_Front_Roller_Peg','7_Front_Roller_Peg v3',#146,
#144);
#146=PRODUCT_DEFINITION_FORMATION('',$,#151);
#147=PRODUCT_RELATED_PRODUCT_CATEGORY('7_Front_Roller_Peg v3',
'7_Front_Roller_Peg v3',(#151));
#148=APPLICATION_PROTOCOL_DEFINITION('international standard',
'automotive_design',2009,#149);
#149=APPLICATION_CONTEXT(
'Core Data for Automotive Mechanical Design Process');
#150=PRODUCT_CONTEXT('part definition',#149,'mechanical');
#151=PRODUCT('7_Front_Roller_Peg','7_Front_Roller_Peg v3',$,(#150));
#152=PRESENTATION_STYLE_ASSIGNMENT((#153));
#153=SURFACE_STYLE_USAGE(.BOTH.,#154);
#154=SURFACE_SIDE_STYLE('',(#155));
#155=SURFACE_STYLE_FILL_AREA(#156);
#156=FILL_AREA_STYLE('Steel - Satin',(#157));
#157=FILL_AREA_STYLE_COLOUR('Steel - Satin',#158);
#158=COLOUR_RGB('Steel - Satin',0.627450980392157,0.627450980392157,0.627450980392157);
ENDSEC;
END-ISO-10303-21;
