ISO-10303-21;
HEADER;
/* Generated by software containing ST-Developer
 * from STEP Tools, Inc. (www.steptools.com) 
 */

FILE_DESCRIPTION(
/* description */ (''),
/* implementation_level */ '2;1');

FILE_NAME(
/* name */ '7_Roller_Gear_Mount.step',
/* time_stamp */ '2025-10-20T20:38:41-07:00',
/* author */ (''),
/* organization */ (''),
/* preprocessor_version */ 'ST-DEVELOPER v20.1',
/* originating_system */ 'Autodesk Translation Framework v14.17.0.0',
/* authorisation */ '');

FILE_SCHEMA (('AUTOMOTIVE_DESIGN { 1 0 10303 214 3 1 1 }'));
ENDSEC;

DATA;
#10=MECHANICAL_DESIGN_GEOMETRIC_PRESENTATION_REPRESENTATION('',(#13),#917);
#11=SHAPE_REPRESENTATION_RELATIONSHIP('SRR','None',#924,#12);
#12=ADVANCED_BREP_SHAPE_REPRESENTATION('',(#14),#916);
#13=STYLED_ITEM('',(#933),#14);
#14=MANIFOLD_SOLID_BREP('MeshBody1',#547);
#15=TOROIDAL_SURFACE('',#581,2.49999987545686,1.00000015520412);
#16=FACE_BOUND('',#81,.T.);
#17=FACE_BOUND('',#86,.T.);
#18=FACE_BOUND('',#103,.T.);
#19=FACE_BOUND('',#106,.T.);
#20=FACE_BOUND('',#108,.T.);
#21=FACE_BOUND('',#110,.T.);
#22=FACE_BOUND('',#112,.T.);
#23=CIRCLE('',#563,5.24999996769667);
#24=CIRCLE('',#564,5.24999996769667);
#25=CIRCLE('',#566,12.4999997858264);
#26=CIRCLE('',#570,5.24999996769667);
#27=CIRCLE('',#571,5.24999996769667);
#28=CIRCLE('',#573,12.4999997858264);
#29=CIRCLE('',#582,3.50000014972568);
#30=CIRCLE('',#583,1.00000015520412);
#31=CIRCLE('',#584,2.49999989278701);
#32=CIRCLE('',#585,2.49999989278701);
#33=CIRCLE('',#587,12.4999997858264);
#34=CIRCLE('',#589,12.4999997858264);
#35=CIRCLE('',#591,1.42499986509707);
#36=CIRCLE('',#592,1.42499986509707);
#37=CIRCLE('',#594,3.50000014972568);
#38=CIRCLE('',#596,2.0000000966144);
#39=CIRCLE('',#597,2.0000000966144);
#40=CIRCLE('',#599,1.99999990338562);
#41=CIRCLE('',#600,1.99999990338563);
#42=CYLINDRICAL_SURFACE('',#562,5.24999996769667);
#43=CYLINDRICAL_SURFACE('',#569,5.24999996769667);
#44=CYLINDRICAL_SURFACE('',#586,12.4999997858264);
#45=CYLINDRICAL_SURFACE('',#588,12.4999997858264);
#46=CYLINDRICAL_SURFACE('',#590,1.42499986509707);
#47=CYLINDRICAL_SURFACE('',#593,3.50000014972568);
#48=CYLINDRICAL_SURFACE('',#595,2.0000000966144);
#49=CYLINDRICAL_SURFACE('',#598,1.99999990338562);
#50=FACE_OUTER_BOUND('',#78,.T.);
#51=FACE_OUTER_BOUND('',#79,.T.);
#52=FACE_OUTER_BOUND('',#80,.T.);
#53=FACE_OUTER_BOUND('',#82,.T.);
#54=FACE_OUTER_BOUND('',#83,.T.);
#55=FACE_OUTER_BOUND('',#84,.T.);
#56=FACE_OUTER_BOUND('',#85,.T.);
#57=FACE_OUTER_BOUND('',#87,.T.);
#58=FACE_OUTER_BOUND('',#88,.T.);
#59=FACE_OUTER_BOUND('',#89,.T.);
#60=FACE_OUTER_BOUND('',#90,.T.);
#61=FACE_OUTER_BOUND('',#91,.T.);
#62=FACE_OUTER_BOUND('',#92,.T.);
#63=FACE_OUTER_BOUND('',#93,.T.);
#64=FACE_OUTER_BOUND('',#94,.T.);
#65=FACE_OUTER_BOUND('',#95,.T.);
#66=FACE_OUTER_BOUND('',#96,.T.);
#67=FACE_OUTER_BOUND('',#97,.T.);
#68=FACE_OUTER_BOUND('',#98,.T.);
#69=FACE_OUTER_BOUND('',#99,.T.);
#70=FACE_OUTER_BOUND('',#100,.T.);
#71=FACE_OUTER_BOUND('',#101,.T.);
#72=FACE_OUTER_BOUND('',#102,.T.);
#73=FACE_OUTER_BOUND('',#104,.T.);
#74=FACE_OUTER_BOUND('',#105,.T.);
#75=FACE_OUTER_BOUND('',#107,.T.);
#76=FACE_OUTER_BOUND('',#109,.T.);
#77=FACE_OUTER_BOUND('',#111,.T.);
#78=EDGE_LOOP('',(#350,#351,#352,#353));
#79=EDGE_LOOP('',(#354,#355,#356,#357));
#80=EDGE_LOOP('',(#358,#359,#360,#361));
#81=EDGE_LOOP('',(#362,#363,#364,#365,#366,#367));
#82=EDGE_LOOP('',(#368,#369,#370,#371));
#83=EDGE_LOOP('',(#372,#373,#374,#375));
#84=EDGE_LOOP('',(#376,#377,#378,#379));
#85=EDGE_LOOP('',(#380,#381,#382,#383));
#86=EDGE_LOOP('',(#384,#385,#386,#387,#388,#389));
#87=EDGE_LOOP('',(#390,#391,#392,#393));
#88=EDGE_LOOP('',(#394,#395,#396,#397));
#89=EDGE_LOOP('',(#398,#399,#400,#401));
#90=EDGE_LOOP('',(#402,#403,#404,#405));
#91=EDGE_LOOP('',(#406,#407,#408,#409));
#92=EDGE_LOOP('',(#410,#411,#412,#413));
#93=EDGE_LOOP('',(#414,#415,#416,#417));
#94=EDGE_LOOP('',(#418,#419,#420,#421,#422));
#95=EDGE_LOOP('',(#423,#424,#425,#426));
#96=EDGE_LOOP('',(#427,#428,#429,#430));
#97=EDGE_LOOP('',(#431,#432,#433,#434));
#98=EDGE_LOOP('',(#435,#436,#437,#438));
#99=EDGE_LOOP('',(#439,#440,#441,#442));
#100=EDGE_LOOP('',(#443,#444,#445,#446));
#101=EDGE_LOOP('',(#447,#448,#449,#450,#451,#452,#453,#454,#455,#456));
#102=EDGE_LOOP('',(#457,#458,#459,#460));
#103=EDGE_LOOP('',(#461));
#104=EDGE_LOOP('',(#462,#463,#464,#465,#466,#467,#468,#469,#470,#471));
#105=EDGE_LOOP('',(#472,#473));
#106=EDGE_LOOP('',(#474));
#107=EDGE_LOOP('',(#475,#476,#477,#478));
#108=EDGE_LOOP('',(#479,#480,#481,#482,#483,#484));
#109=EDGE_LOOP('',(#485,#486,#487,#488));
#110=EDGE_LOOP('',(#489));
#111=EDGE_LOOP('',(#490,#491,#492,#493));
#112=EDGE_LOOP('',(#494,#495,#496,#497,#498,#499));
#113=LINE('',#764,#169);
#114=LINE('',#766,#170);
#115=LINE('',#768,#171);
#116=LINE('',#769,#172);
#117=LINE('',#774,#173);
#118=LINE('',#779,#174);
#119=LINE('',#783,#175);
#120=LINE('',#784,#176);
#121=LINE('',#786,#177);
#122=LINE('',#788,#178);
#123=LINE('',#790,#179);
#124=LINE('',#791,#180);
#125=LINE('',#794,#181);
#126=LINE('',#795,#182);
#127=LINE('',#799,#183);
#128=LINE('',#801,#184);
#129=LINE('',#803,#185);
#130=LINE('',#804,#186);
#131=LINE('',#809,#187);
#132=LINE('',#814,#188);
#133=LINE('',#818,#189);
#134=LINE('',#819,#190);
#135=LINE('',#821,#191);
#136=LINE('',#823,#192);
#137=LINE('',#825,#193);
#138=LINE('',#826,#194);
#139=LINE('',#829,#195);
#140=LINE('',#830,#196);
#141=LINE('',#833,#197);
#142=LINE('',#834,#198);
#143=LINE('',#837,#199);
#144=LINE('',#838,#200);
#145=LINE('',#840,#201);
#146=LINE('',#843,#202);
#147=LINE('',#844,#203);
#148=LINE('',#847,#204);
#149=LINE('',#848,#205);
#150=LINE('',#850,#206);
#151=LINE('',#861,#207);
#152=LINE('',#864,#208);
#153=LINE('',#867,#209);
#154=LINE('',#870,#210);
#155=LINE('',#875,#211);
#156=LINE('',#879,#212);
#157=LINE('',#884,#213);
#158=LINE('',#888,#214);
#159=LINE('',#895,#215);
#160=LINE('',#897,#216);
#161=LINE('',#898,#217);
#162=LINE('',#900,#218);
#163=LINE('',#901,#219);
#164=LINE('',#904,#220);
#165=LINE('',#905,#221);
#166=LINE('',#907,#222);
#167=LINE('',#908,#223);
#168=LINE('',#909,#224);
#169=VECTOR('',#612,10.);
#170=VECTOR('',#613,10.);
#171=VECTOR('',#614,10.);
#172=VECTOR('',#615,10.);
#173=VECTOR('',#620,10.);
#174=VECTOR('',#625,1.);
#175=VECTOR('',#628,1.);
#176=VECTOR('',#629,1.);
#177=VECTOR('',#630,1.);
#178=VECTOR('',#631,1.);
#179=VECTOR('',#632,1.);
#180=VECTOR('',#633,10.);
#181=VECTOR('',#636,10.);
#182=VECTOR('',#637,10.);
#183=VECTOR('',#640,10.);
#184=VECTOR('',#641,10.);
#185=VECTOR('',#642,10.);
#186=VECTOR('',#643,10.);
#187=VECTOR('',#648,10.);
#188=VECTOR('',#653,1.);
#189=VECTOR('',#656,1.);
#190=VECTOR('',#657,1.);
#191=VECTOR('',#658,1.);
#192=VECTOR('',#659,1.);
#193=VECTOR('',#660,1.);
#194=VECTOR('',#661,10.);
#195=VECTOR('',#664,10.);
#196=VECTOR('',#665,10.);
#197=VECTOR('',#668,10.);
#198=VECTOR('',#669,1.);
#199=VECTOR('',#672,10.);
#200=VECTOR('',#673,1.);
#201=VECTOR('',#676,1.);
#202=VECTOR('',#679,10.);
#203=VECTOR('',#680,1.);
#204=VECTOR('',#683,10.);
#205=VECTOR('',#684,1.);
#206=VECTOR('',#687,1.);
#207=VECTOR('',#700,1.);
#208=VECTOR('',#703,1.);
#209=VECTOR('',#706,1.);
#210=VECTOR('',#709,1.);
#211=VECTOR('',#714,1.);
#212=VECTOR('',#719,1.);
#213=VECTOR('',#724,1.);
#214=VECTOR('',#727,1.);
#215=VECTOR('',#736,1.);
#216=VECTOR('',#739,1.);
#217=VECTOR('',#740,1.);
#218=VECTOR('',#741,1.);
#219=VECTOR('',#742,1.);
#220=VECTOR('',#745,1.);
#221=VECTOR('',#746,1.);
#222=VECTOR('',#749,1.);
#223=VECTOR('',#750,1.);
#224=VECTOR('',#751,1.);
#225=VERTEX_POINT('',#762);
#226=VERTEX_POINT('',#763);
#227=VERTEX_POINT('',#765);
#228=VERTEX_POINT('',#767);
#229=VERTEX_POINT('',#771);
#230=VERTEX_POINT('',#773);
#231=VERTEX_POINT('',#777);
#232=VERTEX_POINT('',#778);
#233=VERTEX_POINT('',#780);
#234=VERTEX_POINT('',#782);
#235=VERTEX_POINT('',#785);
#236=VERTEX_POINT('',#787);
#237=VERTEX_POINT('',#789);
#238=VERTEX_POINT('',#793);
#239=VERTEX_POINT('',#797);
#240=VERTEX_POINT('',#798);
#241=VERTEX_POINT('',#800);
#242=VERTEX_POINT('',#802);
#243=VERTEX_POINT('',#806);
#244=VERTEX_POINT('',#808);
#245=VERTEX_POINT('',#812);
#246=VERTEX_POINT('',#813);
#247=VERTEX_POINT('',#815);
#248=VERTEX_POINT('',#817);
#249=VERTEX_POINT('',#820);
#250=VERTEX_POINT('',#822);
#251=VERTEX_POINT('',#824);
#252=VERTEX_POINT('',#828);
#253=VERTEX_POINT('',#832);
#254=VERTEX_POINT('',#836);
#255=VERTEX_POINT('',#842);
#256=VERTEX_POINT('',#846);
#257=VERTEX_POINT('',#852);
#258=VERTEX_POINT('',#854);
#259=VERTEX_POINT('',#856);
#260=VERTEX_POINT('',#860);
#261=VERTEX_POINT('',#862);
#262=VERTEX_POINT('',#866);
#263=VERTEX_POINT('',#868);
#264=VERTEX_POINT('',#872);
#265=VERTEX_POINT('',#874);
#266=VERTEX_POINT('',#878);
#267=VERTEX_POINT('',#882);
#268=VERTEX_POINT('',#883);
#269=VERTEX_POINT('',#885);
#270=VERTEX_POINT('',#887);
#271=VERTEX_POINT('',#891);
#272=VERTEX_POINT('',#893);
#273=VERTEX_POINT('',#899);
#274=VERTEX_POINT('',#903);
#275=EDGE_CURVE('',#225,#226,#113,.T.);
#276=EDGE_CURVE('',#226,#227,#114,.T.);
#277=EDGE_CURVE('',#227,#228,#115,.T.);
#278=EDGE_CURVE('',#228,#225,#116,.T.);
#279=EDGE_CURVE('',#229,#228,#23,.T.);
#280=EDGE_CURVE('',#230,#229,#117,.T.);
#281=EDGE_CURVE('',#225,#230,#24,.T.);
#282=EDGE_CURVE('',#231,#232,#118,.T.);
#283=EDGE_CURVE('',#231,#233,#25,.T.);
#284=EDGE_CURVE('',#233,#234,#119,.T.);
#285=EDGE_CURVE('',#234,#232,#120,.T.);
#286=EDGE_CURVE('',#227,#235,#121,.T.);
#287=EDGE_CURVE('',#235,#236,#122,.T.);
#288=EDGE_CURVE('',#236,#237,#123,.T.);
#289=EDGE_CURVE('',#229,#237,#124,.T.);
#290=EDGE_CURVE('',#237,#238,#125,.T.);
#291=EDGE_CURVE('',#238,#230,#126,.T.);
#292=EDGE_CURVE('',#239,#240,#127,.T.);
#293=EDGE_CURVE('',#240,#241,#128,.T.);
#294=EDGE_CURVE('',#241,#242,#129,.T.);
#295=EDGE_CURVE('',#242,#239,#130,.T.);
#296=EDGE_CURVE('',#243,#242,#26,.T.);
#297=EDGE_CURVE('',#244,#243,#131,.T.);
#298=EDGE_CURVE('',#239,#244,#27,.T.);
#299=EDGE_CURVE('',#245,#246,#132,.T.);
#300=EDGE_CURVE('',#246,#247,#28,.T.);
#301=EDGE_CURVE('',#247,#248,#133,.T.);
#302=EDGE_CURVE('',#248,#245,#134,.T.);
#303=EDGE_CURVE('',#241,#249,#135,.T.);
#304=EDGE_CURVE('',#249,#250,#136,.T.);
#305=EDGE_CURVE('',#250,#251,#137,.T.);
#306=EDGE_CURVE('',#243,#251,#138,.T.);
#307=EDGE_CURVE('',#251,#252,#139,.T.);
#308=EDGE_CURVE('',#252,#244,#140,.T.);
#309=EDGE_CURVE('',#250,#253,#141,.T.);
#310=EDGE_CURVE('',#252,#253,#142,.T.);
#311=EDGE_CURVE('',#254,#249,#143,.T.);
#312=EDGE_CURVE('',#253,#254,#144,.T.);
#313=EDGE_CURVE('',#254,#240,#145,.T.);
#314=EDGE_CURVE('',#236,#255,#146,.T.);
#315=EDGE_CURVE('',#238,#255,#147,.T.);
#316=EDGE_CURVE('',#256,#235,#148,.T.);
#317=EDGE_CURVE('',#255,#256,#149,.T.);
#318=EDGE_CURVE('',#256,#226,#150,.T.);
#319=EDGE_CURVE('',#257,#257,#29,.T.);
#320=EDGE_CURVE('',#257,#258,#30,.T.);
#321=EDGE_CURVE('',#259,#258,#31,.T.);
#322=EDGE_CURVE('',#258,#259,#32,.T.);
#323=EDGE_CURVE('',#260,#231,#151,.T.);
#324=EDGE_CURVE('',#261,#260,#33,.T.);
#325=EDGE_CURVE('',#233,#261,#152,.T.);
#326=EDGE_CURVE('',#262,#246,#153,.T.);
#327=EDGE_CURVE('',#263,#262,#34,.T.);
#328=EDGE_CURVE('',#247,#263,#154,.T.);
#329=EDGE_CURVE('',#264,#264,#35,.T.);
#330=EDGE_CURVE('',#264,#265,#155,.T.);
#331=EDGE_CURVE('',#265,#265,#36,.T.);
#332=EDGE_CURVE('',#257,#266,#156,.T.);
#333=EDGE_CURVE('',#266,#266,#37,.T.);
#334=EDGE_CURVE('',#267,#268,#157,.T.);
#335=EDGE_CURVE('',#269,#267,#38,.T.);
#336=EDGE_CURVE('',#270,#269,#158,.T.);
#337=EDGE_CURVE('',#268,#270,#39,.T.);
#338=EDGE_CURVE('',#232,#271,#40,.T.);
#339=EDGE_CURVE('',#272,#234,#41,.T.);
#340=EDGE_CURVE('',#271,#272,#159,.T.);
#341=EDGE_CURVE('',#269,#263,#160,.T.);
#342=EDGE_CURVE('',#272,#267,#161,.T.);
#343=EDGE_CURVE('',#273,#261,#162,.T.);
#344=EDGE_CURVE('',#248,#273,#163,.T.);
#345=EDGE_CURVE('',#274,#273,#164,.T.);
#346=EDGE_CURVE('',#245,#274,#165,.T.);
#347=EDGE_CURVE('',#260,#274,#166,.T.);
#348=EDGE_CURVE('',#268,#271,#167,.T.);
#349=EDGE_CURVE('',#262,#270,#168,.T.);
#350=ORIENTED_EDGE('',*,*,#275,.T.);
#351=ORIENTED_EDGE('',*,*,#276,.T.);
#352=ORIENTED_EDGE('',*,*,#277,.T.);
#353=ORIENTED_EDGE('',*,*,#278,.T.);
#354=ORIENTED_EDGE('',*,*,#278,.F.);
#355=ORIENTED_EDGE('',*,*,#279,.F.);
#356=ORIENTED_EDGE('',*,*,#280,.F.);
#357=ORIENTED_EDGE('',*,*,#281,.F.);
#358=ORIENTED_EDGE('',*,*,#282,.F.);
#359=ORIENTED_EDGE('',*,*,#283,.T.);
#360=ORIENTED_EDGE('',*,*,#284,.T.);
#361=ORIENTED_EDGE('',*,*,#285,.T.);
#362=ORIENTED_EDGE('',*,*,#277,.F.);
#363=ORIENTED_EDGE('',*,*,#286,.T.);
#364=ORIENTED_EDGE('',*,*,#287,.T.);
#365=ORIENTED_EDGE('',*,*,#288,.T.);
#366=ORIENTED_EDGE('',*,*,#289,.F.);
#367=ORIENTED_EDGE('',*,*,#279,.T.);
#368=ORIENTED_EDGE('',*,*,#289,.T.);
#369=ORIENTED_EDGE('',*,*,#290,.T.);
#370=ORIENTED_EDGE('',*,*,#291,.T.);
#371=ORIENTED_EDGE('',*,*,#280,.T.);
#372=ORIENTED_EDGE('',*,*,#292,.T.);
#373=ORIENTED_EDGE('',*,*,#293,.T.);
#374=ORIENTED_EDGE('',*,*,#294,.T.);
#375=ORIENTED_EDGE('',*,*,#295,.T.);
#376=ORIENTED_EDGE('',*,*,#295,.F.);
#377=ORIENTED_EDGE('',*,*,#296,.F.);
#378=ORIENTED_EDGE('',*,*,#297,.F.);
#379=ORIENTED_EDGE('',*,*,#298,.F.);
#380=ORIENTED_EDGE('',*,*,#299,.T.);
#381=ORIENTED_EDGE('',*,*,#300,.T.);
#382=ORIENTED_EDGE('',*,*,#301,.T.);
#383=ORIENTED_EDGE('',*,*,#302,.T.);
#384=ORIENTED_EDGE('',*,*,#294,.F.);
#385=ORIENTED_EDGE('',*,*,#303,.T.);
#386=ORIENTED_EDGE('',*,*,#304,.T.);
#387=ORIENTED_EDGE('',*,*,#305,.T.);
#388=ORIENTED_EDGE('',*,*,#306,.F.);
#389=ORIENTED_EDGE('',*,*,#296,.T.);
#390=ORIENTED_EDGE('',*,*,#306,.T.);
#391=ORIENTED_EDGE('',*,*,#307,.T.);
#392=ORIENTED_EDGE('',*,*,#308,.T.);
#393=ORIENTED_EDGE('',*,*,#297,.T.);
#394=ORIENTED_EDGE('',*,*,#307,.F.);
#395=ORIENTED_EDGE('',*,*,#305,.F.);
#396=ORIENTED_EDGE('',*,*,#309,.T.);
#397=ORIENTED_EDGE('',*,*,#310,.F.);
#398=ORIENTED_EDGE('',*,*,#304,.F.);
#399=ORIENTED_EDGE('',*,*,#311,.F.);
#400=ORIENTED_EDGE('',*,*,#312,.F.);
#401=ORIENTED_EDGE('',*,*,#309,.F.);
#402=ORIENTED_EDGE('',*,*,#293,.F.);
#403=ORIENTED_EDGE('',*,*,#313,.F.);
#404=ORIENTED_EDGE('',*,*,#311,.T.);
#405=ORIENTED_EDGE('',*,*,#303,.F.);
#406=ORIENTED_EDGE('',*,*,#290,.F.);
#407=ORIENTED_EDGE('',*,*,#288,.F.);
#408=ORIENTED_EDGE('',*,*,#314,.T.);
#409=ORIENTED_EDGE('',*,*,#315,.F.);
#410=ORIENTED_EDGE('',*,*,#287,.F.);
#411=ORIENTED_EDGE('',*,*,#316,.F.);
#412=ORIENTED_EDGE('',*,*,#317,.F.);
#413=ORIENTED_EDGE('',*,*,#314,.F.);
#414=ORIENTED_EDGE('',*,*,#276,.F.);
#415=ORIENTED_EDGE('',*,*,#318,.F.);
#416=ORIENTED_EDGE('',*,*,#316,.T.);
#417=ORIENTED_EDGE('',*,*,#286,.F.);
#418=ORIENTED_EDGE('',*,*,#319,.F.);
#419=ORIENTED_EDGE('',*,*,#320,.T.);
#420=ORIENTED_EDGE('',*,*,#321,.F.);
#421=ORIENTED_EDGE('',*,*,#322,.F.);
#422=ORIENTED_EDGE('',*,*,#320,.F.);
#423=ORIENTED_EDGE('',*,*,#323,.F.);
#424=ORIENTED_EDGE('',*,*,#324,.F.);
#425=ORIENTED_EDGE('',*,*,#325,.F.);
#426=ORIENTED_EDGE('',*,*,#283,.F.);
#427=ORIENTED_EDGE('',*,*,#326,.F.);
#428=ORIENTED_EDGE('',*,*,#327,.F.);
#429=ORIENTED_EDGE('',*,*,#328,.F.);
#430=ORIENTED_EDGE('',*,*,#300,.F.);
#431=ORIENTED_EDGE('',*,*,#329,.F.);
#432=ORIENTED_EDGE('',*,*,#330,.T.);
#433=ORIENTED_EDGE('',*,*,#331,.F.);
#434=ORIENTED_EDGE('',*,*,#330,.F.);
#435=ORIENTED_EDGE('',*,*,#319,.T.);
#436=ORIENTED_EDGE('',*,*,#332,.T.);
#437=ORIENTED_EDGE('',*,*,#333,.F.);
#438=ORIENTED_EDGE('',*,*,#332,.F.);
#439=ORIENTED_EDGE('',*,*,#334,.F.);
#440=ORIENTED_EDGE('',*,*,#335,.F.);
#441=ORIENTED_EDGE('',*,*,#336,.F.);
#442=ORIENTED_EDGE('',*,*,#337,.F.);
#443=ORIENTED_EDGE('',*,*,#338,.F.);
#444=ORIENTED_EDGE('',*,*,#285,.F.);
#445=ORIENTED_EDGE('',*,*,#339,.F.);
#446=ORIENTED_EDGE('',*,*,#340,.F.);
#447=ORIENTED_EDGE('',*,*,#301,.F.);
#448=ORIENTED_EDGE('',*,*,#328,.T.);
#449=ORIENTED_EDGE('',*,*,#341,.F.);
#450=ORIENTED_EDGE('',*,*,#335,.T.);
#451=ORIENTED_EDGE('',*,*,#342,.F.);
#452=ORIENTED_EDGE('',*,*,#339,.T.);
#453=ORIENTED_EDGE('',*,*,#284,.F.);
#454=ORIENTED_EDGE('',*,*,#325,.T.);
#455=ORIENTED_EDGE('',*,*,#343,.F.);
#456=ORIENTED_EDGE('',*,*,#344,.F.);
#457=ORIENTED_EDGE('',*,*,#302,.F.);
#458=ORIENTED_EDGE('',*,*,#344,.T.);
#459=ORIENTED_EDGE('',*,*,#345,.F.);
#460=ORIENTED_EDGE('',*,*,#346,.F.);
#461=ORIENTED_EDGE('',*,*,#329,.T.);
#462=ORIENTED_EDGE('',*,*,#346,.T.);
#463=ORIENTED_EDGE('',*,*,#347,.F.);
#464=ORIENTED_EDGE('',*,*,#323,.T.);
#465=ORIENTED_EDGE('',*,*,#282,.T.);
#466=ORIENTED_EDGE('',*,*,#338,.T.);
#467=ORIENTED_EDGE('',*,*,#348,.F.);
#468=ORIENTED_EDGE('',*,*,#337,.T.);
#469=ORIENTED_EDGE('',*,*,#349,.F.);
#470=ORIENTED_EDGE('',*,*,#326,.T.);
#471=ORIENTED_EDGE('',*,*,#299,.F.);
#472=ORIENTED_EDGE('',*,*,#321,.T.);
#473=ORIENTED_EDGE('',*,*,#322,.T.);
#474=ORIENTED_EDGE('',*,*,#331,.T.);
#475=ORIENTED_EDGE('',*,*,#336,.T.);
#476=ORIENTED_EDGE('',*,*,#341,.T.);
#477=ORIENTED_EDGE('',*,*,#327,.T.);
#478=ORIENTED_EDGE('',*,*,#349,.T.);
#479=ORIENTED_EDGE('',*,*,#292,.F.);
#480=ORIENTED_EDGE('',*,*,#298,.T.);
#481=ORIENTED_EDGE('',*,*,#308,.F.);
#482=ORIENTED_EDGE('',*,*,#310,.T.);
#483=ORIENTED_EDGE('',*,*,#312,.T.);
#484=ORIENTED_EDGE('',*,*,#313,.T.);
#485=ORIENTED_EDGE('',*,*,#348,.T.);
#486=ORIENTED_EDGE('',*,*,#340,.T.);
#487=ORIENTED_EDGE('',*,*,#342,.T.);
#488=ORIENTED_EDGE('',*,*,#334,.T.);
#489=ORIENTED_EDGE('',*,*,#333,.T.);
#490=ORIENTED_EDGE('',*,*,#345,.T.);
#491=ORIENTED_EDGE('',*,*,#343,.T.);
#492=ORIENTED_EDGE('',*,*,#324,.T.);
#493=ORIENTED_EDGE('',*,*,#347,.T.);
#494=ORIENTED_EDGE('',*,*,#275,.F.);
#495=ORIENTED_EDGE('',*,*,#281,.T.);
#496=ORIENTED_EDGE('',*,*,#291,.F.);
#497=ORIENTED_EDGE('',*,*,#315,.T.);
#498=ORIENTED_EDGE('',*,*,#317,.T.);
#499=ORIENTED_EDGE('',*,*,#318,.T.);
#500=PLANE('',#561);
#501=PLANE('',#565);
#502=PLANE('',#567);
#503=PLANE('',#568);
#504=PLANE('',#572);
#505=PLANE('',#574);
#506=PLANE('',#575);
#507=PLANE('',#576);
#508=PLANE('',#577);
#509=PLANE('',#578);
#510=PLANE('',#579);
#511=PLANE('',#580);
#512=PLANE('',#601);
#513=PLANE('',#602);
#514=PLANE('',#603);
#515=PLANE('',#604);
#516=PLANE('',#605);
#517=PLANE('',#606);
#518=PLANE('',#607);
#519=ADVANCED_FACE('',(#50),#500,.T.);
#520=ADVANCED_FACE('',(#51),#42,.F.);
#521=ADVANCED_FACE('',(#52,#16),#501,.T.);
#522=ADVANCED_FACE('',(#53),#502,.T.);
#523=ADVANCED_FACE('',(#54),#503,.T.);
#524=ADVANCED_FACE('',(#55),#43,.F.);
#525=ADVANCED_FACE('',(#56,#17),#504,.T.);
#526=ADVANCED_FACE('',(#57),#505,.T.);
#527=ADVANCED_FACE('',(#58),#506,.F.);
#528=ADVANCED_FACE('',(#59),#507,.F.);
#529=ADVANCED_FACE('',(#60),#508,.T.);
#530=ADVANCED_FACE('',(#61),#509,.F.);
#531=ADVANCED_FACE('',(#62),#510,.F.);
#532=ADVANCED_FACE('',(#63),#511,.T.);
#533=ADVANCED_FACE('',(#64),#15,.T.);
#534=ADVANCED_FACE('',(#65),#44,.T.);
#535=ADVANCED_FACE('',(#66),#45,.T.);
#536=ADVANCED_FACE('',(#67),#46,.F.);
#537=ADVANCED_FACE('',(#68),#47,.T.);
#538=ADVANCED_FACE('',(#69),#48,.F.);
#539=ADVANCED_FACE('',(#70),#49,.F.);
#540=ADVANCED_FACE('',(#71),#512,.T.);
#541=ADVANCED_FACE('',(#72,#18),#513,.F.);
#542=ADVANCED_FACE('',(#73),#514,.F.);
#543=ADVANCED_FACE('',(#74,#19),#515,.T.);
#544=ADVANCED_FACE('',(#75,#20),#516,.F.);
#545=ADVANCED_FACE('',(#76,#21),#517,.F.);
#546=ADVANCED_FACE('',(#77,#22),#518,.F.);
#547=CLOSED_SHELL('',(#519,#520,#521,#522,#523,#524,#525,#526,#527,#528,
#529,#530,#531,#532,#533,#534,#535,#536,#537,#538,#539,#540,#541,#542,#543,
#544,#545,#546));
#548=DERIVED_UNIT_ELEMENT(#550,1.);
#549=DERIVED_UNIT_ELEMENT(#919,-3.);
#550=(
MASS_UNIT()
NAMED_UNIT(*)
SI_UNIT(.KILO.,.GRAM.)
);
#551=DERIVED_UNIT((#548,#549));
#552=MEASURE_REPRESENTATION_ITEM('density measure',
POSITIVE_RATIO_MEASURE(7850.),#551);
#553=PROPERTY_DEFINITION_REPRESENTATION(#558,#555);
#554=PROPERTY_DEFINITION_REPRESENTATION(#559,#556);
#555=REPRESENTATION('material name',(#557),#916);
#556=REPRESENTATION('density',(#552),#916);
#557=DESCRIPTIVE_REPRESENTATION_ITEM('Steel','Steel');
#558=PROPERTY_DEFINITION('material property','material name',#926);
#559=PROPERTY_DEFINITION('material property','density of part',#926);
#560=AXIS2_PLACEMENT_3D('',#760,#608,#609);
#561=AXIS2_PLACEMENT_3D('',#761,#610,#611);
#562=AXIS2_PLACEMENT_3D('',#770,#616,#617);
#563=AXIS2_PLACEMENT_3D('',#772,#618,#619);
#564=AXIS2_PLACEMENT_3D('',#775,#621,#622);
#565=AXIS2_PLACEMENT_3D('',#776,#623,#624);
#566=AXIS2_PLACEMENT_3D('',#781,#626,#627);
#567=AXIS2_PLACEMENT_3D('',#792,#634,#635);
#568=AXIS2_PLACEMENT_3D('',#796,#638,#639);
#569=AXIS2_PLACEMENT_3D('',#805,#644,#645);
#570=AXIS2_PLACEMENT_3D('',#807,#646,#647);
#571=AXIS2_PLACEMENT_3D('',#810,#649,#650);
#572=AXIS2_PLACEMENT_3D('',#811,#651,#652);
#573=AXIS2_PLACEMENT_3D('',#816,#654,#655);
#574=AXIS2_PLACEMENT_3D('',#827,#662,#663);
#575=AXIS2_PLACEMENT_3D('',#831,#666,#667);
#576=AXIS2_PLACEMENT_3D('',#835,#670,#671);
#577=AXIS2_PLACEMENT_3D('',#839,#674,#675);
#578=AXIS2_PLACEMENT_3D('',#841,#677,#678);
#579=AXIS2_PLACEMENT_3D('',#845,#681,#682);
#580=AXIS2_PLACEMENT_3D('',#849,#685,#686);
#581=AXIS2_PLACEMENT_3D('',#851,#688,#689);
#582=AXIS2_PLACEMENT_3D('',#853,#690,#691);
#583=AXIS2_PLACEMENT_3D('',#855,#692,#693);
#584=AXIS2_PLACEMENT_3D('',#857,#694,#695);
#585=AXIS2_PLACEMENT_3D('',#858,#696,#697);
#586=AXIS2_PLACEMENT_3D('',#859,#698,#699);
#587=AXIS2_PLACEMENT_3D('',#863,#701,#702);
#588=AXIS2_PLACEMENT_3D('',#865,#704,#705);
#589=AXIS2_PLACEMENT_3D('',#869,#707,#708);
#590=AXIS2_PLACEMENT_3D('',#871,#710,#711);
#591=AXIS2_PLACEMENT_3D('',#873,#712,#713);
#592=AXIS2_PLACEMENT_3D('',#876,#715,#716);
#593=AXIS2_PLACEMENT_3D('',#877,#717,#718);
#594=AXIS2_PLACEMENT_3D('',#880,#720,#721);
#595=AXIS2_PLACEMENT_3D('',#881,#722,#723);
#596=AXIS2_PLACEMENT_3D('',#886,#725,#726);
#597=AXIS2_PLACEMENT_3D('',#889,#728,#729);
#598=AXIS2_PLACEMENT_3D('',#890,#730,#731);
#599=AXIS2_PLACEMENT_3D('',#892,#732,#733);
#600=AXIS2_PLACEMENT_3D('',#894,#734,#735);
#601=AXIS2_PLACEMENT_3D('',#896,#737,#738);
#602=AXIS2_PLACEMENT_3D('',#902,#743,#744);
#603=AXIS2_PLACEMENT_3D('',#906,#747,#748);
#604=AXIS2_PLACEMENT_3D('',#910,#752,#753);
#605=AXIS2_PLACEMENT_3D('',#911,#754,#755);
#606=AXIS2_PLACEMENT_3D('',#912,#756,#757);
#607=AXIS2_PLACEMENT_3D('',#913,#758,#759);
#608=DIRECTION('axis',(0.,0.,1.));
#609=DIRECTION('refdir',(1.,0.,0.));
#610=DIRECTION('center_axis',(-0.895569612982772,2.2498180783432E-16,0.444921418119974));
#611=DIRECTION('ref_axis',(0.444921418119974,0.,0.895569612982772));
#612=DIRECTION('',(-0.444921418119974,0.,-0.895569612982772));
#613=DIRECTION('',(1.30137555037817E-17,-1.,-6.1227374986551E-17));
#614=DIRECTION('',(0.444921418119974,0.,0.895569612982772));
#615=DIRECTION('',(3.16420816283987E-16,1.,1.31248031150248E-16));
#616=DIRECTION('center_axis',(3.16420816283987E-16,1.,1.31248031150248E-16));
#617=DIRECTION('ref_axis',(-0.207911992881846,-6.25922558408684E-17,0.978147536528053));
#618=DIRECTION('center_axis',(0.,1.,0.));
#619=DIRECTION('ref_axis',(0.,1.31248031150248E-16,-1.));
#620=DIRECTION('',(-3.16420816283987E-16,-1.,-1.31248031150248E-16));
#621=DIRECTION('center_axis',(0.,-1.,0.));
#622=DIRECTION('ref_axis',(0.,1.31248031150248E-16,-1.));
#623=DIRECTION('center_axis',(0.,-1.,0.));
#624=DIRECTION('ref_axis',(0.,0.,-1.));
#625=DIRECTION('',(-0.207911690006928,0.,0.978147600906153));
#626=DIRECTION('center_axis',(0.,-1.,0.));
#627=DIRECTION('ref_axis',(-0.978147600906153,0.,-0.207911690006928));
#628=DIRECTION('',(-0.207911657382075,0.,0.978147607840779));
#629=DIRECTION('',(-0.978147599944155,0.,-0.207911694532774));
#630=DIRECTION('',(0.207903669137431,0.,-0.978149305760217));
#631=DIRECTION('',(-0.978147831172667,0.,-0.207910606685198));
#632=DIRECTION('',(-0.207912834959016,0.,0.978147357538375));
#633=DIRECTION('',(0.770714875265553,0.,-0.637180179418979));
#634=DIRECTION('center_axis',(0.637180179418979,-3.02771882448544E-16,0.770714875265554));
#635=DIRECTION('ref_axis',(0.770714875265553,0.,-0.637180179418979));
#636=DIRECTION('',(-1.30136730755278E-17,1.,6.12241660463392E-17));
#637=DIRECTION('',(-0.770714875265553,0.,0.637180179418979));
#638=DIRECTION('center_axis',(-0.895569612982772,2.2498180783432E-16,0.444921418119974));
#639=DIRECTION('ref_axis',(0.444921418119974,0.,0.895569612982772));
#640=DIRECTION('',(-0.444921418119974,0.,-0.895569612982772));
#641=DIRECTION('',(1.30137555037817E-17,-1.,-6.1227374986551E-17));
#642=DIRECTION('',(0.444921418119974,0.,0.895569612982772));
#643=DIRECTION('',(3.16420816283987E-16,1.,1.31248031150248E-16));
#644=DIRECTION('center_axis',(3.16420816283987E-16,1.,1.31248031150248E-16));
#645=DIRECTION('ref_axis',(-0.207911992881847,-6.25922558408682E-17,0.978147536528053));
#646=DIRECTION('center_axis',(0.,1.,0.));
#647=DIRECTION('ref_axis',(0.,1.31248031150248E-16,-1.));
#648=DIRECTION('',(-3.16420816283987E-16,-1.,-1.31248031150248E-16));
#649=DIRECTION('center_axis',(0.,-1.,0.));
#650=DIRECTION('ref_axis',(0.,1.31248031150248E-16,-1.));
#651=DIRECTION('center_axis',(0.,-1.,0.));
#652=DIRECTION('ref_axis',(0.,0.,-1.));
#653=DIRECTION('',(0.207911690006928,0.,-0.978147600906153));
#654=DIRECTION('center_axis',(0.,-1.,0.));
#655=DIRECTION('ref_axis',(-0.978147600906153,0.,-0.207911690006928));
#656=DIRECTION('',(-0.207911657382075,0.,0.978147607840779));
#657=DIRECTION('',(-0.9781476005368,0.,-0.207911691744596));
#658=DIRECTION('',(0.207903669137431,0.,-0.978149305760217));
#659=DIRECTION('',(-0.978147831172667,0.,-0.207910606685198));
#660=DIRECTION('',(-0.207912834959016,0.,0.978147357538375));
#661=DIRECTION('',(0.770714875265553,0.,-0.637180179418979));
#662=DIRECTION('center_axis',(0.637180179418979,-3.02771882448544E-16,0.770714875265554));
#663=DIRECTION('ref_axis',(0.770714875265553,0.,-0.637180179418979));
#664=DIRECTION('',(-1.30136730755278E-17,1.,6.12241660463392E-17));
#665=DIRECTION('',(-0.770714875265553,0.,0.637180179418979));
#666=DIRECTION('center_axis',(-0.978147357538375,0.,-0.207912834959016));
#667=DIRECTION('ref_axis',(-0.207912834959016,0.,0.978147357538375));
#668=DIRECTION('',(0.,1.,0.));
#669=DIRECTION('',(0.207912834959016,0.,-0.978147357538375));
#670=DIRECTION('center_axis',(0.207910606685198,0.,-0.978147831172667));
#671=DIRECTION('ref_axis',(-0.978147831172667,0.,-0.207910606685198));
#672=DIRECTION('',(0.,-1.,0.));
#673=DIRECTION('',(0.978147831172667,0.,0.207910606685198));
#674=DIRECTION('center_axis',(-0.978149305760217,0.,-0.207903669137431));
#675=DIRECTION('ref_axis',(-0.207903669137431,0.,0.978149305760217));
#676=DIRECTION('',(-0.207903669137431,0.,0.978149305760217));
#677=DIRECTION('center_axis',(-0.978147357538375,0.,-0.207912834959016));
#678=DIRECTION('ref_axis',(-0.207912834959016,0.,0.978147357538375));
#679=DIRECTION('',(0.,1.,0.));
#680=DIRECTION('',(0.207912834959016,0.,-0.978147357538375));
#681=DIRECTION('center_axis',(0.207910606685198,0.,-0.978147831172667));
#682=DIRECTION('ref_axis',(-0.978147831172667,0.,-0.207910606685198));
#683=DIRECTION('',(0.,-1.,0.));
#684=DIRECTION('',(0.978147831172667,0.,0.207910606685198));
#685=DIRECTION('center_axis',(-0.978149305760217,0.,-0.207903669137431));
#686=DIRECTION('ref_axis',(-0.207903669137431,0.,0.978149305760217));
#687=DIRECTION('',(-0.207903669137431,0.,0.978149305760217));
#688=DIRECTION('center_axis',(-0.207911635235387,-1.15285998989048E-8,0.978147612548202));
#689=DIRECTION('ref_axis',(0.978147612548202,0.,0.207911635235386));
#690=DIRECTION('center_axis',(-0.207911701593665,-2.11272182830199E-8,0.978147598443316));
#691=DIRECTION('ref_axis',(0.978147598443316,-2.4528174085583E-16,0.207911701593665));
#692=DIRECTION('center_axis',(2.39693005695578E-9,-1.,-1.12766724671372E-8));
#693=DIRECTION('ref_axis',(-0.978147612548202,0.,-0.207911635235385));
#694=DIRECTION('center_axis',(0.207911635235387,1.15285998989048E-8,-0.978147612548202));
#695=DIRECTION('ref_axis',(0.978147612548202,1.53917770768752E-16,0.207911635235387));
#696=DIRECTION('center_axis',(0.207911635235387,1.15285998989048E-8,-0.978147612548202));
#697=DIRECTION('ref_axis',(0.978147612548202,1.53917770768752E-16,0.207911635235387));
#698=DIRECTION('center_axis',(2.01442842804518E-9,1.,-9.47714011948876E-9));
#699=DIRECTION('ref_axis',(-0.978147600906153,1.42108549586892E-16,-0.207911690006928));
#700=DIRECTION('',(-2.01442842804518E-9,-1.,9.47714011948876E-9));
#701=DIRECTION('center_axis',(0.,1.,0.));
#702=DIRECTION('ref_axis',(-0.978147600906153,0.,-0.207911690006928));
#703=DIRECTION('',(2.01442842804518E-9,1.,-9.47714011948876E-9));
#704=DIRECTION('center_axis',(-2.01442842804518E-9,-1.,9.47714011948876E-9));
#705=DIRECTION('ref_axis',(-0.978147600906153,0.,-0.207911690006928));
#706=DIRECTION('',(-2.01442842804518E-9,-1.,9.47714011948876E-9));
#707=DIRECTION('center_axis',(0.,1.,0.));
#708=DIRECTION('ref_axis',(-0.978147600906153,0.,-0.207911690006928));
#709=DIRECTION('',(2.01442842804518E-9,1.,-9.47714011948876E-9));
#710=DIRECTION('center_axis',(0.207911701142787,-1.87172553172003E-9,-0.978147598539153));
#711=DIRECTION('ref_axis',(0.978147598539153,0.,0.207911701142787));
#712=DIRECTION('center_axis',(0.207911691744596,1.48834893742958E-8,-0.9781476005368));
#713=DIRECTION('ref_axis',(3.09445159475044E-9,-1.,-1.45582493893505E-8));
#714=DIRECTION('',(0.207911701142787,-1.87172553172003E-9,-0.978147598539153));
#715=DIRECTION('center_axis',(-0.207911597708609,-9.13608364559657E-8,0.978147620524758));
#716=DIRECTION('ref_axis',(0.978147620524762,-1.97925535868579E-16,0.20791159770861));
#717=DIRECTION('center_axis',(0.207911701593665,2.11272182830199E-8,-0.978147598443316));
#718=DIRECTION('ref_axis',(0.978147598443316,0.,0.207911701593665));
#719=DIRECTION('',(-0.207911701593665,-2.11272182830199E-8,0.978147598443316));
#720=DIRECTION('center_axis',(-0.207911694532774,-4.83071655814479E-8,0.978147599944154));
#721=DIRECTION('ref_axis',(1.00436249952058E-8,-0.999999999999999,-4.72515380010968E-8));
#722=DIRECTION('center_axis',(0.978147599944155,0.,0.207911694532774));
#723=DIRECTION('ref_axis',(-0.207911694532774,-4.83071657099094E-8,0.978147599944154));
#724=DIRECTION('',(-0.978147599944155,0.,-0.207911694532774));
#725=DIRECTION('center_axis',(-0.978147607840779,4.38573786831722E-16,-0.207911657382075));
#726=DIRECTION('ref_axis',(-0.207911657382075,-4.83071657099094E-8,0.978147607840778));
#727=DIRECTION('',(0.978147599944155,0.,0.207911694532774));
#728=DIRECTION('center_axis',(0.978147600906153,-1.15414172210212E-16,0.207911690006928));
#729=DIRECTION('ref_axis',(1.00436243492999E-8,-0.999999999999999,-4.72515382697199E-8));
#730=DIRECTION('center_axis',(0.978147599944155,0.,0.207911694532774));
#731=DIRECTION('ref_axis',(-0.207911694532773,-4.83071659361845E-8,0.978147599944154));
#732=DIRECTION('center_axis',(0.978147600906153,-1.15414172210212E-16,0.207911690006928));
#733=DIRECTION('ref_axis',(1.00436243963451E-8,-0.999999999999999,-4.72515384910502E-8));
#734=DIRECTION('center_axis',(-0.978147607840779,4.38573786831722E-16,-0.207911657382075));
#735=DIRECTION('ref_axis',(-0.207911657382075,-4.83071659361844E-8,0.978147607840778));
#736=DIRECTION('',(0.978147599944155,0.,0.207911694532774));
#737=DIRECTION('center_axis',(0.978147607840779,-4.38573786831722E-16,0.207911657382075));
#738=DIRECTION('ref_axis',(0.207911657382075,0.,-0.978147607840779));
#739=DIRECTION('',(0.207911657382075,0.,-0.978147607840779));
#740=DIRECTION('',(1.00436224304793E-8,-0.999999999999999,-4.72515385462463E-8));
#741=DIRECTION('',(0.207911657382075,0.,-0.978147607840779));
#742=DIRECTION('',(-3.09445051444846E-9,1.,1.45582496189758E-8));
#743=DIRECTION('center_axis',(0.207911691744596,1.48834893742958E-8,-0.9781476005368));
#744=DIRECTION('ref_axis',(-0.9781476005368,0.,-0.207911691744596));
#745=DIRECTION('',(0.9781476005368,0.,0.207911691744596));
#746=DIRECTION('',(-3.09445131611791E-9,1.,1.45582494485757E-8));
#747=DIRECTION('center_axis',(0.978147600906153,-1.15414172210212E-16,0.207911690006928));
#748=DIRECTION('ref_axis',(0.207911690006928,0.,-0.978147600906153));
#749=DIRECTION('',(-0.207911690006928,0.,0.978147600906153));
#750=DIRECTION('',(-1.00436243225913E-8,0.999999999999999,4.72515381440655E-8));
#751=DIRECTION('',(-0.207911690006928,0.,0.978147600906153));
#752=DIRECTION('center_axis',(0.207911597708609,9.13608364559657E-8,-0.978147620524758));
#753=DIRECTION('ref_axis',(-0.978147620524762,0.,-0.20791159770861));
#754=DIRECTION('center_axis',(0.,-1.,0.));
#755=DIRECTION('ref_axis',(0.,0.,-1.));
#756=DIRECTION('center_axis',(-0.207911694532774,-4.83071655814479E-8,0.978147599944154));
#757=DIRECTION('ref_axis',(0.978147599944155,0.,0.207911694532774));
#758=DIRECTION('center_axis',(0.,-1.,0.));
#759=DIRECTION('ref_axis',(0.,0.,-1.));
#760=CARTESIAN_POINT('',(0.,0.,0.));
#761=CARTESIAN_POINT('Origin',(257.758686893405,-312.,415.630856460013));
#762=CARTESIAN_POINT('',(257.898125265825,-292.,415.911527976684));
#763=CARTESIAN_POINT('',(257.619248520985,-292.,415.350184943343));
#764=CARTESIAN_POINT('',(257.902541519234,-292.,415.920417327017));
#765=CARTESIAN_POINT('',(257.619248520985,-295.,415.350184943343));
#766=CARTESIAN_POINT('',(257.619248520985,-312.,415.350184943343));
#767=CARTESIAN_POINT('',(257.898125265825,-295.,415.911527976684));
#768=CARTESIAN_POINT('',(257.88892458667,-295.,415.893008192438));
#769=CARTESIAN_POINT('',(257.898125265825,-312.,415.911527976684));
#770=CARTESIAN_POINT('Origin',(255.486383145136,-312.,420.574788596048));
#771=CARTESIAN_POINT('',(255.179869292881,-295.,415.333743955979));
#772=CARTESIAN_POINT('Origin',(255.486383145136,-295.,420.574788596048));
#773=CARTESIAN_POINT('',(255.179869292881,-292.,415.333743955979));
#774=CARTESIAN_POINT('',(255.179869292881,-312.,415.333743955979));
#775=CARTESIAN_POINT('Origin',(255.486383145136,-292.,420.574788596048));
#776=CARTESIAN_POINT('Origin',(256.23768234935,-295.,417.040203996901));
#777=CARTESIAN_POINT('',(243.259538155363,-295.,417.975893251738));
#778=CARTESIAN_POINT('',(241.10245426002,-295.,428.124175135806));
#779=CARTESIAN_POINT('',(242.571821928468,-295.,421.211343732755));
#780=CARTESIAN_POINT('',(267.713227845682,-295.,423.173685005188));
#781=CARTESIAN_POINT('Origin',(255.486382957166,-295.,420.574789332442));
#782=CARTESIAN_POINT('',(265.55614417812,-295.,433.321967482014));
#783=CARTESIAN_POINT('',(267.025511702396,-295.,426.409135623489));
#784=CARTESIAN_POINT('',(265.44754753178,-295.,433.298884551828));
#785=CARTESIAN_POINT('',(257.763974478252,-295.,414.669275389349));
#786=CARTESIAN_POINT('',(257.427586842348,-295.,416.251918610081));
#787=CARTESIAN_POINT('',(255.807683659856,-295.,414.253455205586));
#788=CARTESIAN_POINT('',(256.785830176569,-295.,414.461365532876));
#789=CARTESIAN_POINT('',(255.662951911375,-295.,414.934360630959));
#790=CARTESIAN_POINT('',(255.47128086651,-295.,415.836096813276));
#791=CARTESIAN_POINT('',(255.195803357492,-295.,415.320570640563));
#792=CARTESIAN_POINT('Origin',(255.421410602128,-312.,415.134052293469));
#793=CARTESIAN_POINT('',(255.662951911375,-292.,414.934360630959));
#794=CARTESIAN_POINT('',(255.662951911375,-312.,414.934360630959));
#795=CARTESIAN_POINT('',(255.17221536994,-292.,415.34007175391));
#796=CARTESIAN_POINT('Origin',(257.758686893405,-312.,415.630856460013));
#797=CARTESIAN_POINT('',(257.898125265825,-312.,415.911527976684));
#798=CARTESIAN_POINT('',(257.619248520985,-312.,415.350184943343));
#799=CARTESIAN_POINT('',(257.88892458667,-312.,415.893008192438));
#800=CARTESIAN_POINT('',(257.619248520985,-315.,415.350184943343));
#801=CARTESIAN_POINT('',(257.619248520985,-312.,415.350184943343));
#802=CARTESIAN_POINT('',(257.898125265825,-315.,415.911527976684));
#803=CARTESIAN_POINT('',(257.902541519234,-315.,415.920417327017));
#804=CARTESIAN_POINT('',(257.898125265825,-312.,415.911527976684));
#805=CARTESIAN_POINT('Origin',(255.486383145136,-312.,420.574788596048));
#806=CARTESIAN_POINT('',(255.179869292881,-315.,415.333743955979));
#807=CARTESIAN_POINT('Origin',(255.486383145136,-315.,420.574788596048));
#808=CARTESIAN_POINT('',(255.179869292881,-312.,415.333743955979));
#809=CARTESIAN_POINT('',(255.179869292881,-312.,415.333743955979));
#810=CARTESIAN_POINT('Origin',(255.486383145136,-312.,420.574788596048));
#811=CARTESIAN_POINT('Origin',(256.221439248252,-315.,417.116621741061));
#812=CARTESIAN_POINT('',(240.062896045152,-315.,433.01491203379));
#813=CARTESIAN_POINT('',(243.259538155363,-315.,417.975893251738));
#814=CARTESIAN_POINT('',(242.563700381849,-315.,421.24955260567));
#815=CARTESIAN_POINT('',(267.713227845682,-315.,423.173685005188));
#816=CARTESIAN_POINT('Origin',(255.486382957166,-315.,420.574789332442));
#817=CARTESIAN_POINT('',(264.516586141168,-315.,438.212704344927));
#818=CARTESIAN_POINT('',(267.017390157051,-315.,426.447344496675));
#819=CARTESIAN_POINT('',(252.289740877238,-315.,435.613808143502));
#820=CARTESIAN_POINT('',(257.763974478252,-315.,414.669275389349));
#821=CARTESIAN_POINT('',(257.419465609044,-315.,416.290127549591));
#822=CARTESIAN_POINT('',(255.807683659856,-315.,414.253455205586));
#823=CARTESIAN_POINT('',(256.785830130322,-315.,414.461365523046));
#824=CARTESIAN_POINT('',(255.662951911375,-315.,414.934360630959));
#825=CARTESIAN_POINT('',(255.463159275167,-315.,415.874305676685));
#826=CARTESIAN_POINT('',(255.17221536994,-315.,415.34007175391));
#827=CARTESIAN_POINT('Origin',(255.421410602128,-312.,415.134052293469));
#828=CARTESIAN_POINT('',(255.662951911375,-312.,414.934360630959));
#829=CARTESIAN_POINT('',(255.662951911375,-312.,414.934360630959));
#830=CARTESIAN_POINT('',(255.195803357492,-312.,415.320570640563));
#831=CARTESIAN_POINT('Origin',(255.68302960072,-313.5,414.839903072421));
#832=CARTESIAN_POINT('',(255.807683659856,-312.,414.253455205586));
#833=CARTESIAN_POINT('',(255.807683659856,-313.5,414.253455205586));
#834=CARTESIAN_POINT('',(255.47128086651,-312.,415.836096813276));
#835=CARTESIAN_POINT('Origin',(256.785831877332,-313.5,414.461365894382));
#836=CARTESIAN_POINT('',(257.763974478252,-312.,414.669275389349));
#837=CARTESIAN_POINT('',(257.763974478252,-303.5,414.669275389349));
#838=CARTESIAN_POINT('',(256.785830176569,-312.,414.461365532876));
#839=CARTESIAN_POINT('Origin',(257.639325567822,-293.5,415.255726055209));
#840=CARTESIAN_POINT('',(257.427586842348,-312.,416.251918610081));
#841=CARTESIAN_POINT('Origin',(255.68302960072,-313.5,414.839903072421));
#842=CARTESIAN_POINT('',(255.807683659856,-292.,414.253455205586));
#843=CARTESIAN_POINT('',(255.807683659856,-313.5,414.253455205586));
#844=CARTESIAN_POINT('',(255.463159275167,-292.,415.874305676685));
#845=CARTESIAN_POINT('Origin',(256.785831877332,-313.5,414.461365894382));
#846=CARTESIAN_POINT('',(257.763974478252,-292.,414.669275389349));
#847=CARTESIAN_POINT('',(257.763974478252,-303.5,414.669275389349));
#848=CARTESIAN_POINT('',(256.785830130322,-292.,414.461365523046));
#849=CARTESIAN_POINT('Origin',(257.639325567822,-293.5,415.255726055209));
#850=CARTESIAN_POINT('',(257.419465609044,-292.,416.290127549591));
#851=CARTESIAN_POINT('Origin',(253.329299266299,-303.500000019599,430.723070727686));
#852=CARTESIAN_POINT('',(249.90578261601,-303.500000019599,429.99537948569));
#853=CARTESIAN_POINT('Origin',(253.329299357016,-303.500000137746,430.723070472398));
#854=CARTESIAN_POINT('',(251.091842007303,-303.500000008071,429.225143897528));
#855=CARTESIAN_POINT('Origin',(250.88393035675,-303.500000019599,430.203291665492));
#856=CARTESIAN_POINT('',(251.093636454677,-303.595756547148,429.225525317856));
#857=CARTESIAN_POINT('Origin',(253.537210933803,-303.500000008071,429.744922963325));
#858=CARTESIAN_POINT('Origin',(253.537210933803,-303.500000008071,429.744922963325));
#859=CARTESIAN_POINT('Origin',(255.486382957166,-295.,420.574789332442));
#860=CARTESIAN_POINT('',(243.259538161375,-292.,417.975893223453));
#861=CARTESIAN_POINT('',(243.259538155332,-295.,417.975893251884));
#862=CARTESIAN_POINT('',(267.713227851725,-292.,423.173684976757));
#863=CARTESIAN_POINT('Origin',(255.486382963209,-292.,420.57478930401));
#864=CARTESIAN_POINT('',(267.713227845682,-295.,423.173685005188));
#865=CARTESIAN_POINT('Origin',(255.486382963209,-312.,420.57478930401));
#866=CARTESIAN_POINT('',(243.259538161375,-312.,417.975893223453));
#867=CARTESIAN_POINT('',(243.259538161375,-312.,417.975893223453));
#868=CARTESIAN_POINT('',(267.713227851725,-312.,423.173684976757));
#869=CARTESIAN_POINT('Origin',(255.486382963209,-312.,420.57478930401));
#870=CARTESIAN_POINT('',(267.713227851725,-312.,423.173684976757));
#871=CARTESIAN_POINT('Origin',(253.537211050688,-303.500000085799,429.744922743923));
#872=CARTESIAN_POINT('',(250.895880646268,-303.500000074568,435.3175341966));
#873=CARTESIAN_POINT('Origin',(252.289740848666,-303.500000074568,435.613808312412));
#874=CARTESIAN_POINT('',(252.143350861394,-303.500000085799,429.448648566465));
#875=CARTESIAN_POINT('',(252.143350854724,-303.500000085799,429.448648597843));
#876=CARTESIAN_POINT('Origin',(253.537211011055,-303.500000085799,429.744922930379));
#877=CARTESIAN_POINT('Origin',(252.913475859665,-303.500000180001,432.679366112287));
#878=CARTESIAN_POINT('',(249.489959099757,-303.500000180001,431.951675214512));
#879=CARTESIAN_POINT('',(249.48995911866,-303.500000180001,431.951675125579));
#880=CARTESIAN_POINT('Origin',(252.913475863116,-303.500000180001,432.679366096052));
#881=CARTESIAN_POINT('Origin',(265.559783122988,-309.999999903386,433.322740124069));
#882=CARTESIAN_POINT('',(265.140321014078,-310.,435.278261988937));
#883=CARTESIAN_POINT('',(240.686631030693,-310.,430.080469628852));
#884=CARTESIAN_POINT('',(265.143959713835,-310.,435.279035418461));
#885=CARTESIAN_POINT('',(265.556144348861,-312.,433.321966678738));
#886=CARTESIAN_POINT('Origin',(265.556144348861,-309.999999903386,433.321966678738));
#887=CARTESIAN_POINT('',(241.102454430761,-312.,428.12417433253));
#888=CARTESIAN_POINT('',(265.559783122988,-312.,433.322740124069));
#889=CARTESIAN_POINT('Origin',(241.102454430761,-309.999999903386,428.12417433253));
#890=CARTESIAN_POINT('Origin',(265.44754753178,-296.999999903386,433.298884551828));
#891=CARTESIAN_POINT('',(240.686630900126,-297.,430.080470243122));
#892=CARTESIAN_POINT('Origin',(241.10245426002,-296.999999903386,428.124175135806));
#893=CARTESIAN_POINT('',(265.140320883511,-297.,435.278262603207));
#894=CARTESIAN_POINT('Origin',(265.55614417812,-296.999999903386,433.321967482014));
#895=CARTESIAN_POINT('',(265.031724162802,-297.,435.255179657213));
#896=CARTESIAN_POINT('Origin',(265.586496370348,-303.5,433.179171620569));
#897=CARTESIAN_POINT('',(267.025511702396,-312.,426.409135623489));
#898=CARTESIAN_POINT('',(265.140320948726,-303.500000087821,435.278262296057));
#899=CARTESIAN_POINT('',(264.516586070036,-292.,438.212704679795));
#900=CARTESIAN_POINT('',(267.017390157051,-292.,426.447344496675));
#901=CARTESIAN_POINT('',(264.516586105637,-303.500000038295,438.212704512414));
#902=CARTESIAN_POINT('Origin',(252.28974083168,-303.5,435.613808308802));
#903=CARTESIAN_POINT('',(240.062895973991,-292.,433.014912368578));
#904=CARTESIAN_POINT('',(252.289740806066,-292.,435.613808478341));
#905=CARTESIAN_POINT('',(240.062896009597,-303.500000038295,433.014912201238));
#906=CARTESIAN_POINT('Origin',(241.13280639495,-303.5,427.981379567347));
#907=CARTESIAN_POINT('',(242.563700381849,-292.,421.24955260567));
#908=CARTESIAN_POINT('',(240.686630965377,-303.500000087821,430.08046993598));
#909=CARTESIAN_POINT('',(242.571821928468,-312.,421.211343732755));
#910=CARTESIAN_POINT('Origin',(253.537211049339,-303.499999947018,429.744922938517));
#911=CARTESIAN_POINT('Origin',(256.23768234935,-312.,417.040203996901));
#912=CARTESIAN_POINT('Origin',(252.91347592138,-303.500000071975,432.679366108437));
#913=CARTESIAN_POINT('Origin',(256.221439248252,-292.,417.116621741061));
#914=UNCERTAINTY_MEASURE_WITH_UNIT(LENGTH_MEASURE(0.01),#918,
'DISTANCE_ACCURACY_VALUE',
'Maximum model space distance between geometric entities at asserted c
onnectivities');
#915=UNCERTAINTY_MEASURE_WITH_UNIT(LENGTH_MEASURE(0.01),#918,
'DISTANCE_ACCURACY_VALUE',
'Maximum model space distance between geometric entities at asserted c
onnectivities');
#916=(
GEOMETRIC_REPRESENTATION_CONTEXT(3)
GLOBAL_UNCERTAINTY_ASSIGNED_CONTEXT((#914))
GLOBAL_UNIT_ASSIGNED_CONTEXT((#918,#920,#921))
REPRESENTATION_CONTEXT('','3D')
);
#917=(
GEOMETRIC_REPRESENTATION_CONTEXT(3)
GLOBAL_UNCERTAINTY_ASSIGNED_CONTEXT((#915))
GLOBAL_UNIT_ASSIGNED_CONTEXT((#918,#920,#921))
REPRESENTATION_CONTEXT('','3D')
);
#918=(
LENGTH_UNIT()
NAMED_UNIT(*)
SI_UNIT(.MILLI.,.METRE.)
);
#919=(
LENGTH_UNIT()
NAMED_UNIT(*)
SI_UNIT($,.METRE.)
);
#920=(
NAMED_UNIT(*)
PLANE_ANGLE_UNIT()
SI_UNIT($,.RADIAN.)
);
#921=(
NAMED_UNIT(*)
SI_UNIT($,.STERADIAN.)
SOLID_ANGLE_UNIT()
);
#922=SHAPE_DEFINITION_REPRESENTATION(#923,#924);
#923=PRODUCT_DEFINITION_SHAPE('',$,#926);
#924=SHAPE_REPRESENTATION('',(#560),#916);
#925=PRODUCT_DEFINITION_CONTEXT('part definition',#930,'design');
#926=PRODUCT_DEFINITION('7_Roller_Gear_Mount','7_Roller_Gear_Mount v6',
#927,#925);
#927=PRODUCT_DEFINITION_FORMATION('',$,#932);
#928=PRODUCT_RELATED_PRODUCT_CATEGORY('7_Roller_Gear_Mount v6',
'7_Roller_Gear_Mount v6',(#932));
#929=APPLICATION_PROTOCOL_DEFINITION('international standard',
'automotive_design',2009,#930);
#930=APPLICATION_CONTEXT(
'Core Data for Automotive Mechanical Design Process');
#931=PRODUCT_CONTEXT('part definition',#930,'mechanical');
#932=PRODUCT('7_Roller_Gear_Mount','7_Roller_Gear_Mount v6',$,(#931));
#933=PRESENTATION_STYLE_ASSIGNMENT((#934));
#934=SURFACE_STYLE_USAGE(.BOTH.,#935);
#935=SURFACE_SIDE_STYLE('',(#936));
#936=SURFACE_STYLE_FILL_AREA(#937);
#937=FILL_AREA_STYLE('Steel - Satin',(#938));
#938=FILL_AREA_STYLE_COLOUR('Steel - Satin',#939);
#939=COLOUR_RGB('Steel - Satin',0.627450980392157,0.627450980392157,0.627450980392157);
ENDSEC;
END-ISO-10303-21;
