M48
;Layer_Color=9474304
;FILE_FORMAT=4:4
METRIC,LZ
;TYPE=PLATED
T01F00S00C1.0000
T02F00S00C1.0200
;TYPE=NON_PLATED
T03F00S00C3.0000
%
T01
X000175Y000925
X000625
X000975Y000625
Y000175
X001625
Y000625
X001925Y00095066
X002375
X0035313Y000825
X0039813
Y000175
X0035313
Y001775
X0039813
Y002425
X0035313
X001625Y002375
Y001925
X001925Y00160066
X002375
X000975Y001925
Y002375
X000625Y001575
X000175
T02
X0011Y001046
Y0013
X00145
Y001046
X003492Y00125
X003746
X004
X00145Y001554
X0011
T03
X0003Y00027566
X0023
Y00227566
X0003
M30
